<?xml version="1.0" encoding="UTF-8" standalone="no"?>
<!DOCTYPE svg PUBLIC "-//W3C//DTD SVG 1.1//EN"
 "http://www.w3.org/Graphics/SVG/1.1/DTD/svg11.dtd">
<!-- Generated by graphviz version 2.38.0 (20140413.2041)
 -->
<!-- Title: snakemake_dag Pages: 1 -->
<svg width="662pt" height="1340pt"
 viewBox="0.00 0.00 661.50 1340.00" xmlns="http://www.w3.org/2000/svg" xmlns:xlink="http://www.w3.org/1999/xlink">
<g id="graph0" class="graph" transform="scale(1 1) rotate(0) translate(4 1336)">
<title>snakemake_dag</title>
<polygon fill="white" stroke="none" points="-4,4 -4,-1336 657.5,-1336 657.5,4 -4,4"/>
<!-- 0 -->
<g id="node1" class="node"><title>0</title>
<path fill="none" stroke="#56d8a2" stroke-width="2" d="M250,-36C250,-36 220,-36 220,-36 214,-36 208,-30 208,-24 208,-24 208,-12 208,-12 208,-6 214,-0 220,-0 220,-0 250,-0 250,-0 256,-0 262,-6 262,-12 262,-12 262,-24 262,-24 262,-30 256,-36 250,-36"/>
<text text-anchor="middle" x="235" y="-15.5" font-family="sans" font-size="10.00">all</text>
</g>
<!-- 1 -->
<g id="node2" class="node"><title>1</title>
<path fill="none" stroke="#b6d856" stroke-width="2" d="M273.5,-108C273.5,-108 196.5,-108 196.5,-108 190.5,-108 184.5,-102 184.5,-96 184.5,-96 184.5,-84 184.5,-84 184.5,-78 190.5,-72 196.5,-72 196.5,-72 273.5,-72 273.5,-72 279.5,-72 285.5,-78 285.5,-84 285.5,-84 285.5,-96 285.5,-96 285.5,-102 279.5,-108 273.5,-108"/>
<text text-anchor="middle" x="235" y="-87.5" font-family="sans" font-size="10.00">orthofinder_clean</text>
</g>
<!-- 1&#45;&gt;0 -->
<g id="edge1" class="edge"><title>1&#45;&gt;0</title>
<path fill="none" stroke="grey" stroke-width="2" d="M235,-71.6966C235,-63.9827 235,-54.7125 235,-46.1124"/>
<polygon fill="grey" stroke="grey" stroke-width="2" points="238.5,-46.1043 235,-36.1043 231.5,-46.1044 238.5,-46.1043"/>
</g>
<!-- 2 -->
<g id="node3" class="node"><title>2</title>
<path fill="none" stroke="#56d882" stroke-width="2" d="M289.5,-180C289.5,-180 180.5,-180 180.5,-180 174.5,-180 168.5,-174 168.5,-168 168.5,-168 168.5,-156 168.5,-156 168.5,-150 174.5,-144 180.5,-144 180.5,-144 289.5,-144 289.5,-144 295.5,-144 301.5,-150 301.5,-156 301.5,-156 301.5,-168 301.5,-168 301.5,-174 295.5,-180 289.5,-180"/>
<text text-anchor="middle" x="235" y="-159.5" font-family="sans" font-size="10.00">orthofinder_orthologues</text>
</g>
<!-- 2&#45;&gt;1 -->
<g id="edge2" class="edge"><title>2&#45;&gt;1</title>
<path fill="none" stroke="grey" stroke-width="2" d="M235,-143.697C235,-135.983 235,-126.712 235,-118.112"/>
<polygon fill="grey" stroke="grey" stroke-width="2" points="238.5,-118.104 235,-108.104 231.5,-118.104 238.5,-118.104"/>
</g>
<!-- 3 -->
<g id="node4" class="node"><title>3</title>
<path fill="none" stroke="#88d856" stroke-width="2" d="M273,-252C273,-252 197,-252 197,-252 191,-252 185,-246 185,-240 185,-240 185,-228 185,-228 185,-222 191,-216 197,-216 197,-216 273,-216 273,-216 279,-216 285,-222 285,-228 285,-228 285,-240 285,-240 285,-246 279,-252 273,-252"/>
<text text-anchor="middle" x="235" y="-231.5" font-family="sans" font-size="10.00">orthofinder_trees</text>
</g>
<!-- 3&#45;&gt;2 -->
<g id="edge3" class="edge"><title>3&#45;&gt;2</title>
<path fill="none" stroke="grey" stroke-width="2" d="M235,-215.697C235,-207.983 235,-198.712 235,-190.112"/>
<polygon fill="grey" stroke="grey" stroke-width="2" points="238.5,-190.104 235,-180.104 231.5,-190.104 238.5,-190.104"/>
</g>
<!-- 4 -->
<g id="node5" class="node"><title>4</title>
<path fill="none" stroke="#56d8d8" stroke-width="2" d="M277,-324C277,-324 193,-324 193,-324 187,-324 181,-318 181,-312 181,-312 181,-300 181,-300 181,-294 187,-288 193,-288 193,-288 277,-288 277,-288 283,-288 289,-294 289,-300 289,-300 289,-312 289,-312 289,-318 283,-324 277,-324"/>
<text text-anchor="middle" x="235" y="-303.5" font-family="sans" font-size="10.00">orthofinder_groups</text>
</g>
<!-- 4&#45;&gt;3 -->
<g id="edge4" class="edge"><title>4&#45;&gt;3</title>
<path fill="none" stroke="grey" stroke-width="2" d="M235,-287.697C235,-279.983 235,-270.712 235,-262.112"/>
<polygon fill="grey" stroke="grey" stroke-width="2" points="238.5,-262.104 235,-252.104 231.5,-262.104 238.5,-262.104"/>
</g>
<!-- 5 -->
<g id="node6" class="node"><title>5</title>
<path fill="none" stroke="#70d856" stroke-width="2" d="M294,-396C294,-396 176,-396 176,-396 170,-396 164,-390 164,-384 164,-384 164,-372 164,-372 164,-366 170,-360 176,-360 176,-360 294,-360 294,-360 300,-360 306,-366 306,-372 306,-372 306,-384 306,-384 306,-390 300,-396 294,-396"/>
<text text-anchor="middle" x="235" y="-375.5" font-family="sans" font-size="10.00">orthofinder_blastp_merge</text>
</g>
<!-- 5&#45;&gt;4 -->
<g id="edge5" class="edge"><title>5&#45;&gt;4</title>
<path fill="none" stroke="grey" stroke-width="2" d="M235,-359.697C235,-351.983 235,-342.712 235,-334.112"/>
<polygon fill="grey" stroke="grey" stroke-width="2" points="238.5,-334.104 235,-324.104 231.5,-334.104 238.5,-334.104"/>
</g>
<!-- 6 -->
<g id="node7" class="node"><title>6</title>
<path fill="none" stroke="#97d856" stroke-width="2" d="M275.5,-468C275.5,-468 194.5,-468 194.5,-468 188.5,-468 182.5,-462 182.5,-456 182.5,-456 182.5,-444 182.5,-444 182.5,-438 188.5,-432 194.5,-432 194.5,-432 275.5,-432 275.5,-432 281.5,-432 287.5,-438 287.5,-444 287.5,-444 287.5,-456 287.5,-456 287.5,-462 281.5,-468 275.5,-468"/>
<text text-anchor="middle" x="235" y="-447.5" font-family="sans" font-size="10.00">orthofinder_blastp</text>
</g>
<!-- 6&#45;&gt;5 -->
<g id="edge6" class="edge"><title>6&#45;&gt;5</title>
<path fill="none" stroke="grey" stroke-width="2" d="M235,-431.697C235,-423.983 235,-414.712 235,-406.112"/>
<polygon fill="grey" stroke="grey" stroke-width="2" points="238.5,-406.104 235,-396.104 231.5,-406.104 238.5,-406.104"/>
</g>
<!-- 7 -->
<g id="node8" class="node"><title>7</title>
<path fill="none" stroke="#d8cb56" stroke-width="2" d="M271,-540C271,-540 199,-540 199,-540 193,-540 187,-534 187,-528 187,-528 187,-516 187,-516 187,-510 193,-504 199,-504 199,-504 271,-504 271,-504 277,-504 283,-510 283,-516 283,-516 283,-528 283,-528 283,-534 277,-540 271,-540"/>
<text text-anchor="middle" x="235" y="-519.5" font-family="sans" font-size="10.00">orthofinder_split</text>
</g>
<!-- 7&#45;&gt;6 -->
<g id="edge9" class="edge"><title>7&#45;&gt;6</title>
<path fill="none" stroke="grey" stroke-width="2" d="M235,-503.697C235,-495.983 235,-486.712 235,-478.112"/>
<polygon fill="grey" stroke="grey" stroke-width="2" points="238.5,-478.104 235,-468.104 231.5,-478.104 238.5,-478.104"/>
</g>
<!-- 8 -->
<g id="node9" class="node"><title>8</title>
<path fill="none" stroke="#d85e56" stroke-width="2" d="M252.5,-612C252.5,-612 217.5,-612 217.5,-612 211.5,-612 205.5,-606 205.5,-600 205.5,-600 205.5,-588 205.5,-588 205.5,-582 211.5,-576 217.5,-576 217.5,-576 252.5,-576 252.5,-576 258.5,-576 264.5,-582 264.5,-588 264.5,-588 264.5,-600 264.5,-600 264.5,-606 258.5,-612 252.5,-612"/>
<text text-anchor="middle" x="235" y="-591.5" font-family="sans" font-size="10.00">index_fa</text>
</g>
<!-- 8&#45;&gt;6 -->
<g id="edge8" class="edge"><title>8&#45;&gt;6</title>
<path fill="none" stroke="grey" stroke-width="2" d="M261.58,-575.912C273.237,-566.81 285.685,-554.494 292,-540 298.391,-525.332 298.391,-518.668 292,-504 287.067,-492.677 278.389,-482.682 269.271,-474.512"/>
<polygon fill="grey" stroke="grey" stroke-width="2" points="271.499,-471.812 261.58,-468.088 267.011,-477.185 271.499,-471.812"/>
</g>
<!-- 8&#45;&gt;7 -->
<g id="edge10" class="edge"><title>8&#45;&gt;7</title>
<path fill="none" stroke="grey" stroke-width="2" d="M235,-575.697C235,-567.983 235,-558.712 235,-550.112"/>
<polygon fill="grey" stroke="grey" stroke-width="2" points="238.5,-550.104 235,-540.104 231.5,-550.104 238.5,-550.104"/>
</g>
<!-- 9 -->
<g id="node10" class="node"><title>9</title>
<path fill="none" stroke="#56c9d8" stroke-width="2" d="M241.5,-684C241.5,-684 152.5,-684 152.5,-684 146.5,-684 140.5,-678 140.5,-672 140.5,-672 140.5,-660 140.5,-660 140.5,-654 146.5,-648 152.5,-648 152.5,-648 241.5,-648 241.5,-648 247.5,-648 253.5,-654 253.5,-660 253.5,-660 253.5,-672 253.5,-672 253.5,-678 247.5,-684 241.5,-684"/>
<text text-anchor="middle" x="197" y="-663.5" font-family="sans" font-size="10.00">orthofinder_prepare</text>
</g>
<!-- 9&#45;&gt;6 -->
<g id="edge7" class="edge"><title>9&#45;&gt;6</title>
<path fill="none" stroke="grey" stroke-width="2" d="M189.411,-647.71C177.235,-617.281 156.754,-552.767 178,-504 182.933,-492.677 191.611,-482.682 200.729,-474.512"/>
<polygon fill="grey" stroke="grey" stroke-width="2" points="202.989,-477.185 208.42,-468.088 198.501,-471.812 202.989,-477.185"/>
</g>
<!-- 9&#45;&gt;8 -->
<g id="edge11" class="edge"><title>9&#45;&gt;8</title>
<path fill="none" stroke="grey" stroke-width="2" d="M206.393,-647.697C210.765,-639.644 216.057,-629.894 220.895,-620.982"/>
<polygon fill="grey" stroke="grey" stroke-width="2" points="224.02,-622.563 225.715,-612.104 217.868,-619.223 224.02,-622.563"/>
</g>
<!-- 10 -->
<g id="node11" class="node"><title>10</title>
<path fill="none" stroke="#ced856" stroke-width="2" d="M231.5,-756C231.5,-756 162.5,-756 162.5,-756 156.5,-756 150.5,-750 150.5,-744 150.5,-744 150.5,-732 150.5,-732 150.5,-726 156.5,-720 162.5,-720 162.5,-720 231.5,-720 231.5,-720 237.5,-720 243.5,-726 243.5,-732 243.5,-732 243.5,-744 243.5,-744 243.5,-750 237.5,-756 231.5,-756"/>
<text text-anchor="middle" x="197" y="-735.5" font-family="sans" font-size="10.00">orthofinder_link</text>
</g>
<!-- 10&#45;&gt;9 -->
<g id="edge12" class="edge"><title>10&#45;&gt;9</title>
<path fill="none" stroke="grey" stroke-width="2" d="M197,-719.697C197,-711.983 197,-702.712 197,-694.112"/>
<polygon fill="grey" stroke="grey" stroke-width="2" points="200.5,-694.104 197,-684.104 193.5,-694.104 200.5,-694.104"/>
</g>
<!-- 11 -->
<g id="node12" class="node"><title>11</title>
<path fill="none" stroke="#d8b456" stroke-width="2" d="M223.5,-828C223.5,-828 170.5,-828 170.5,-828 164.5,-828 158.5,-822 158.5,-816 158.5,-816 158.5,-804 158.5,-804 158.5,-798 164.5,-792 170.5,-792 170.5,-792 223.5,-792 223.5,-792 229.5,-792 235.5,-798 235.5,-804 235.5,-804 235.5,-816 235.5,-816 235.5,-822 229.5,-828 223.5,-828"/>
<text text-anchor="middle" x="197" y="-807.5" font-family="sans" font-size="10.00">filterlen_pep</text>
</g>
<!-- 11&#45;&gt;10 -->
<g id="edge13" class="edge"><title>11&#45;&gt;10</title>
<path fill="none" stroke="grey" stroke-width="2" d="M197,-791.697C197,-783.983 197,-774.712 197,-766.112"/>
<polygon fill="grey" stroke="grey" stroke-width="2" points="200.5,-766.104 197,-756.104 193.5,-766.104 200.5,-766.104"/>
</g>
<!-- 12 -->
<g id="node13" class="node"><title>12</title>
<path fill="none" stroke="#80d856" stroke-width="2" d="M244.5,-900C244.5,-900 149.5,-900 149.5,-900 143.5,-900 137.5,-894 137.5,-888 137.5,-888 137.5,-876 137.5,-876 137.5,-870 143.5,-864 149.5,-864 149.5,-864 244.5,-864 244.5,-864 250.5,-864 256.5,-870 256.5,-876 256.5,-876 256.5,-888 256.5,-888 256.5,-894 250.5,-900 244.5,-900"/>
<text text-anchor="middle" x="197" y="-879.5" font-family="sans" font-size="10.00">transdecoder_predict</text>
</g>
<!-- 12&#45;&gt;11 -->
<g id="edge14" class="edge"><title>12&#45;&gt;11</title>
<path fill="none" stroke="grey" stroke-width="2" d="M197,-863.697C197,-855.983 197,-846.712 197,-838.112"/>
<polygon fill="grey" stroke="grey" stroke-width="2" points="200.5,-838.104 197,-828.104 193.5,-838.104 200.5,-838.104"/>
</g>
<!-- 13 -->
<g id="node14" class="node"><title>13</title>
<path fill="none" stroke="#567bd8" stroke-width="2" d="M270,-972C270,-972 124,-972 124,-972 118,-972 112,-966 112,-960 112,-960 112,-948 112,-948 112,-942 118,-936 124,-936 124,-936 270,-936 270,-936 276,-936 282,-942 282,-948 282,-948 282,-960 282,-960 282,-966 276,-972 270,-972"/>
<text text-anchor="middle" x="197" y="-951.5" font-family="sans" font-size="10.00">transdecoder_hmmscan_merge</text>
</g>
<!-- 13&#45;&gt;12 -->
<g id="edge16" class="edge"><title>13&#45;&gt;12</title>
<path fill="none" stroke="grey" stroke-width="2" d="M197,-935.697C197,-927.983 197,-918.712 197,-910.112"/>
<polygon fill="grey" stroke="grey" stroke-width="2" points="200.5,-910.104 197,-900.104 193.5,-910.104 200.5,-910.104"/>
</g>
<!-- 14 -->
<g id="node15" class="node"><title>14</title>
<path fill="none" stroke="#56d8b9" stroke-width="2" d="M474,-972C474,-972 346,-972 346,-972 340,-972 334,-966 334,-960 334,-960 334,-948 334,-948 334,-942 340,-936 346,-936 346,-936 474,-936 474,-936 480,-936 486,-942 486,-948 486,-948 486,-960 486,-960 486,-966 480,-972 474,-972"/>
<text text-anchor="middle" x="410" y="-951.5" font-family="sans" font-size="10.00">transdecoder_blastp_merge</text>
</g>
<!-- 14&#45;&gt;12 -->
<g id="edge17" class="edge"><title>14&#45;&gt;12</title>
<path fill="none" stroke="grey" stroke-width="2" d="M358.167,-935.966C328.147,-926.1 290.177,-913.622 258.633,-903.255"/>
<polygon fill="grey" stroke="grey" stroke-width="2" points="259.659,-899.908 249.066,-900.111 257.473,-906.558 259.659,-899.908"/>
</g>
<!-- 15 -->
<g id="node16" class="node"><title>15</title>
<path fill="none" stroke="#5663d8" stroke-width="2" d="M119.5,-1332C119.5,-1332 70.5,-1332 70.5,-1332 64.5,-1332 58.5,-1326 58.5,-1320 58.5,-1320 58.5,-1308 58.5,-1308 58.5,-1302 64.5,-1296 70.5,-1296 70.5,-1296 119.5,-1296 119.5,-1296 125.5,-1296 131.5,-1302 131.5,-1308 131.5,-1308 131.5,-1320 131.5,-1320 131.5,-1326 125.5,-1332 119.5,-1332"/>
<text text-anchor="middle" x="95" y="-1311.5" font-family="sans" font-size="10.00">raw_link_fa</text>
</g>
<!-- 15&#45;&gt;12 -->
<g id="edge15" class="edge"><title>15&#45;&gt;12</title>
<path fill="none" stroke="grey" stroke-width="2" d="M73.443,-1295.78C45.414,-1271.28 0,-1223.5 0,-1171 0,-1171 0,-1171 0,-1025 0,-960.236 70.9323,-922.067 127.671,-901.895"/>
<polygon fill="grey" stroke="grey" stroke-width="2" points="129.035,-905.127 137.359,-898.573 126.764,-898.506 129.035,-905.127"/>
</g>
<!-- 21 -->
<g id="node22" class="node"><title>21</title>
<path fill="none" stroke="#68d856" stroke-width="2" d="M281.5,-1260C281.5,-1260 180.5,-1260 180.5,-1260 174.5,-1260 168.5,-1254 168.5,-1248 168.5,-1248 168.5,-1236 168.5,-1236 168.5,-1230 174.5,-1224 180.5,-1224 180.5,-1224 281.5,-1224 281.5,-1224 287.5,-1224 293.5,-1230 293.5,-1236 293.5,-1236 293.5,-1248 293.5,-1248 293.5,-1254 287.5,-1260 281.5,-1260"/>
<text text-anchor="middle" x="231" y="-1239.5" font-family="sans" font-size="10.00">transdecoder_longorfs</text>
</g>
<!-- 15&#45;&gt;21 -->
<g id="edge31" class="edge"><title>15&#45;&gt;21</title>
<path fill="none" stroke="grey" stroke-width="2" d="M128.269,-1295.88C146.463,-1286.51 169.191,-1274.81 188.64,-1264.8"/>
<polygon fill="grey" stroke="grey" stroke-width="2" points="190.313,-1267.88 197.603,-1260.19 187.11,-1261.65 190.313,-1267.88"/>
</g>
<!-- 16 -->
<g id="node17" class="node"><title>16</title>
<path fill="none" stroke="#d87556" stroke-width="2" d="M252,-1044C252,-1044 142,-1044 142,-1044 136,-1044 130,-1038 130,-1032 130,-1032 130,-1020 130,-1020 130,-1014 136,-1008 142,-1008 142,-1008 252,-1008 252,-1008 258,-1008 264,-1014 264,-1020 264,-1020 264,-1032 264,-1032 264,-1038 258,-1044 252,-1044"/>
<text text-anchor="middle" x="197" y="-1023.5" font-family="sans" font-size="10.00">transdecoder_hmmscan</text>
</g>
<!-- 16&#45;&gt;13 -->
<g id="edge18" class="edge"><title>16&#45;&gt;13</title>
<path fill="none" stroke="grey" stroke-width="2" d="M197,-1007.7C197,-999.983 197,-990.712 197,-982.112"/>
<polygon fill="grey" stroke="grey" stroke-width="2" points="200.5,-982.104 197,-972.104 193.5,-982.104 200.5,-982.104"/>
</g>
<!-- 17 -->
<g id="node18" class="node"><title>17</title>
<path fill="none" stroke="#d8bc56" stroke-width="2" d="M513.5,-1044C513.5,-1044 374.5,-1044 374.5,-1044 368.5,-1044 362.5,-1038 362.5,-1032 362.5,-1032 362.5,-1020 362.5,-1020 362.5,-1014 368.5,-1008 374.5,-1008 374.5,-1008 513.5,-1008 513.5,-1008 519.5,-1008 525.5,-1014 525.5,-1020 525.5,-1020 525.5,-1032 525.5,-1032 525.5,-1038 519.5,-1044 513.5,-1044"/>
<text text-anchor="middle" x="444" y="-1023.5" font-family="sans" font-size="10.00">transdecoder_diamond_chunk</text>
</g>
<!-- 17&#45;&gt;14 -->
<g id="edge19" class="edge"><title>17&#45;&gt;14</title>
<path fill="none" stroke="grey" stroke-width="2" d="M435.596,-1007.7C431.725,-999.728 427.048,-990.1 422.757,-981.264"/>
<polygon fill="grey" stroke="grey" stroke-width="2" points="425.825,-979.57 418.308,-972.104 419.529,-982.629 425.825,-979.57"/>
</g>
<!-- 18 -->
<g id="node19" class="node"><title>18</title>
<path fill="none" stroke="#56d8c1" stroke-width="2" d="M138,-1116C138,-1116 40,-1116 40,-1116 34,-1116 28,-1110 28,-1104 28,-1104 28,-1092 28,-1092 28,-1086 34,-1080 40,-1080 40,-1080 138,-1080 138,-1080 144,-1080 150,-1086 150,-1092 150,-1092 150,-1104 150,-1104 150,-1110 144,-1116 138,-1116"/>
<text text-anchor="middle" x="89" y="-1095.5" font-family="sans" font-size="10.00">db_hmmpress_pfama</text>
</g>
<!-- 18&#45;&gt;16 -->
<g id="edge20" class="edge"><title>18&#45;&gt;16</title>
<path fill="none" stroke="grey" stroke-width="2" d="M115.42,-1079.88C129.41,-1070.81 146.776,-1059.55 161.886,-1049.76"/>
<polygon fill="grey" stroke="grey" stroke-width="2" points="163.991,-1052.57 170.479,-1044.19 160.183,-1046.69 163.991,-1052.57"/>
</g>
<!-- 19 -->
<g id="node20" class="node"><title>19</title>
<path fill="none" stroke="#d88d56" stroke-width="2" d="M306.5,-1188C306.5,-1188 263.5,-1188 263.5,-1188 257.5,-1188 251.5,-1182 251.5,-1176 251.5,-1176 251.5,-1164 251.5,-1164 251.5,-1158 257.5,-1152 263.5,-1152 263.5,-1152 306.5,-1152 306.5,-1152 312.5,-1152 318.5,-1158 318.5,-1164 318.5,-1164 318.5,-1176 318.5,-1176 318.5,-1182 312.5,-1188 306.5,-1188"/>
<text text-anchor="middle" x="285" y="-1167.5" font-family="sans" font-size="10.00">index_pep</text>
</g>
<!-- 19&#45;&gt;16 -->
<g id="edge21" class="edge"><title>19&#45;&gt;16</title>
<path fill="none" stroke="grey" stroke-width="2" d="M265.684,-1151.72C255.595,-1141.97 243.595,-1129.12 235,-1116 222.261,-1096.55 212.191,-1072.13 205.627,-1053.78"/>
<polygon fill="grey" stroke="grey" stroke-width="2" points="208.921,-1052.6 202.346,-1044.29 202.305,-1054.89 208.921,-1052.6"/>
</g>
<!-- 19&#45;&gt;17 -->
<g id="edge25" class="edge"><title>19&#45;&gt;17</title>
<path fill="none" stroke="grey" stroke-width="2" d="M318.775,-1165.39C350.89,-1160.12 398.161,-1147.25 425,-1116 439.592,-1099.01 443.85,-1073.55 444.744,-1054.21"/>
<polygon fill="grey" stroke="grey" stroke-width="2" points="448.244,-1054.25 444.939,-1044.18 441.245,-1054.11 448.244,-1054.25"/>
</g>
<!-- 20 -->
<g id="node21" class="node"><title>20</title>
<path fill="none" stroke="#569ad8" stroke-width="2" d="M404,-1116C404,-1116 256,-1116 256,-1116 250,-1116 244,-1110 244,-1104 244,-1104 244,-1092 244,-1092 244,-1086 250,-1080 256,-1080 256,-1080 404,-1080 404,-1080 410,-1080 416,-1086 416,-1092 416,-1092 416,-1104 416,-1104 416,-1110 410,-1116 404,-1116"/>
<text text-anchor="middle" x="330" y="-1095.5" font-family="sans" font-size="10.00">transdecoder_split_longest_orfs</text>
</g>
<!-- 19&#45;&gt;20 -->
<g id="edge30" class="edge"><title>19&#45;&gt;20</title>
<path fill="none" stroke="grey" stroke-width="2" d="M296.124,-1151.7C301.355,-1143.56 307.7,-1133.69 313.478,-1124.7"/>
<polygon fill="grey" stroke="grey" stroke-width="2" points="316.541,-1126.41 319.004,-1116.1 310.653,-1122.62 316.541,-1126.41"/>
</g>
<!-- 20&#45;&gt;16 -->
<g id="edge22" class="edge"><title>20&#45;&gt;16</title>
<path fill="none" stroke="grey" stroke-width="2" d="M297.465,-1079.88C279.753,-1070.55 257.647,-1058.92 238.684,-1048.94"/>
<polygon fill="grey" stroke="grey" stroke-width="2" points="240.14,-1045.75 229.661,-1044.19 236.88,-1051.94 240.14,-1045.75"/>
</g>
<!-- 20&#45;&gt;17 -->
<g id="edge26" class="edge"><title>20&#45;&gt;17</title>
<path fill="none" stroke="grey" stroke-width="2" d="M357.888,-1079.88C372.793,-1070.72 391.329,-1059.34 407.382,-1049.48"/>
<polygon fill="grey" stroke="grey" stroke-width="2" points="409.315,-1052.41 416.005,-1044.19 405.652,-1046.44 409.315,-1052.41"/>
</g>
<!-- 21&#45;&gt;16 -->
<g id="edge23" class="edge"><title>21&#45;&gt;16</title>
<path fill="none" stroke="grey" stroke-width="2" d="M228.275,-1223.85C222.394,-1186.83 208.468,-1099.18 201.351,-1054.39"/>
<polygon fill="grey" stroke="grey" stroke-width="2" points="204.764,-1053.56 199.738,-1044.23 197.85,-1054.66 204.764,-1053.56"/>
</g>
<!-- 21&#45;&gt;17 -->
<g id="edge27" class="edge"><title>21&#45;&gt;17</title>
<path fill="none" stroke="grey" stroke-width="2" d="M293.681,-1224.14C345.421,-1206.52 415.442,-1173.26 448,-1116 458.594,-1097.37 456.547,-1072.83 452.44,-1054.24"/>
<polygon fill="grey" stroke="grey" stroke-width="2" points="455.781,-1053.17 449.939,-1044.33 448.994,-1054.89 455.781,-1053.17"/>
</g>
<!-- 21&#45;&gt;19 -->
<g id="edge29" class="edge"><title>21&#45;&gt;19</title>
<path fill="none" stroke="grey" stroke-width="2" d="M244.348,-1223.7C250.757,-1215.39 258.558,-1205.28 265.606,-1196.14"/>
<polygon fill="grey" stroke="grey" stroke-width="2" points="268.468,-1198.16 271.805,-1188.1 262.926,-1193.88 268.468,-1198.16"/>
</g>
<!-- 22 -->
<g id="node23" class="node"><title>22</title>
<path fill="none" stroke="#d88556" stroke-width="2" d="M641.5,-1116C641.5,-1116 522.5,-1116 522.5,-1116 516.5,-1116 510.5,-1110 510.5,-1104 510.5,-1104 510.5,-1092 510.5,-1092 510.5,-1086 516.5,-1080 522.5,-1080 522.5,-1080 641.5,-1080 641.5,-1080 647.5,-1080 653.5,-1086 653.5,-1092 653.5,-1092 653.5,-1104 653.5,-1104 653.5,-1110 647.5,-1116 641.5,-1116"/>
<text text-anchor="middle" x="582" y="-1095.5" font-family="sans" font-size="10.00">db_makedb_uniprot_sprot</text>
</g>
<!-- 22&#45;&gt;17 -->
<g id="edge24" class="edge"><title>22&#45;&gt;17</title>
<path fill="none" stroke="grey" stroke-width="2" d="M548.241,-1079.88C529.78,-1070.51 506.718,-1058.81 486.983,-1048.8"/>
<polygon fill="grey" stroke="grey" stroke-width="2" points="488.39,-1045.59 477.888,-1044.19 485.223,-1051.83 488.39,-1045.59"/>
</g>
<!-- 23 -->
<g id="node24" class="node"><title>23</title>
<path fill="none" stroke="#56d85b" stroke-width="2" d="M127.5,-1188C127.5,-1188 50.5,-1188 50.5,-1188 44.5,-1188 38.5,-1182 38.5,-1176 38.5,-1176 38.5,-1164 38.5,-1164 38.5,-1158 44.5,-1152 50.5,-1152 50.5,-1152 127.5,-1152 127.5,-1152 133.5,-1152 139.5,-1158 139.5,-1164 139.5,-1164 139.5,-1176 139.5,-1176 139.5,-1182 133.5,-1188 127.5,-1188"/>
<text text-anchor="middle" x="89" y="-1167.5" font-family="sans" font-size="10.00">download_pfama</text>
</g>
<!-- 23&#45;&gt;18 -->
<g id="edge28" class="edge"><title>23&#45;&gt;18</title>
<path fill="none" stroke="grey" stroke-width="2" d="M89,-1151.7C89,-1143.98 89,-1134.71 89,-1126.11"/>
<polygon fill="grey" stroke="grey" stroke-width="2" points="92.5001,-1126.1 89,-1116.1 85.5001,-1126.1 92.5001,-1126.1"/>
</g>
<!-- 24 -->
<g id="node25" class="node"><title>24</title>
<path fill="none" stroke="#5682d8" stroke-width="2" d="M258.5,-1332C258.5,-1332 203.5,-1332 203.5,-1332 197.5,-1332 191.5,-1326 191.5,-1320 191.5,-1320 191.5,-1308 191.5,-1308 191.5,-1302 197.5,-1296 203.5,-1296 203.5,-1296 258.5,-1296 258.5,-1296 264.5,-1296 270.5,-1302 270.5,-1308 270.5,-1308 270.5,-1320 270.5,-1320 270.5,-1326 264.5,-1332 258.5,-1332"/>
<text text-anchor="middle" x="231" y="-1311.5" font-family="sans" font-size="10.00">raw_link_g2t</text>
</g>
<!-- 24&#45;&gt;21 -->
<g id="edge32" class="edge"><title>24&#45;&gt;21</title>
<path fill="none" stroke="grey" stroke-width="2" d="M231,-1295.7C231,-1287.98 231,-1278.71 231,-1270.11"/>
<polygon fill="grey" stroke="grey" stroke-width="2" points="234.5,-1270.1 231,-1260.1 227.5,-1270.1 234.5,-1270.1"/>
</g>
<!-- 25 -->
<g id="node26" class="node"><title>25</title>
<path fill="none" stroke="#56d88a" stroke-width="2" d="M635.5,-1188C635.5,-1188 528.5,-1188 528.5,-1188 522.5,-1188 516.5,-1182 516.5,-1176 516.5,-1176 516.5,-1164 516.5,-1164 516.5,-1158 522.5,-1152 528.5,-1152 528.5,-1152 635.5,-1152 635.5,-1152 641.5,-1152 647.5,-1158 647.5,-1164 647.5,-1164 647.5,-1176 647.5,-1176 647.5,-1182 641.5,-1188 635.5,-1188"/>
<text text-anchor="middle" x="582" y="-1167.5" font-family="sans" font-size="10.00">db_parse_uniprot_sprot</text>
</g>
<!-- 25&#45;&gt;22 -->
<g id="edge33" class="edge"><title>25&#45;&gt;22</title>
<path fill="none" stroke="grey" stroke-width="2" d="M582,-1151.7C582,-1143.98 582,-1134.71 582,-1126.11"/>
<polygon fill="grey" stroke="grey" stroke-width="2" points="585.5,-1126.1 582,-1116.1 578.5,-1126.1 585.5,-1126.1"/>
</g>
<!-- 26 -->
<g id="node27" class="node"><title>26</title>
<path fill="none" stroke="#d86e56" stroke-width="2" d="M637,-1260C637,-1260 527,-1260 527,-1260 521,-1260 515,-1254 515,-1248 515,-1248 515,-1236 515,-1236 515,-1230 521,-1224 527,-1224 527,-1224 637,-1224 637,-1224 643,-1224 649,-1230 649,-1236 649,-1236 649,-1248 649,-1248 649,-1254 643,-1260 637,-1260"/>
<text text-anchor="middle" x="582" y="-1239.5" font-family="sans" font-size="10.00">download_uniprot_sprot</text>
</g>
<!-- 26&#45;&gt;25 -->
<g id="edge34" class="edge"><title>26&#45;&gt;25</title>
<path fill="none" stroke="grey" stroke-width="2" d="M582,-1223.7C582,-1215.98 582,-1206.71 582,-1198.11"/>
<polygon fill="grey" stroke="grey" stroke-width="2" points="585.5,-1198.1 582,-1188.1 578.5,-1198.1 585.5,-1198.1"/>
</g>
</g>
</svg>
