<?xml version="1.0" encoding="UTF-8" standalone="no"?>
<!DOCTYPE svg PUBLIC "-//W3C//DTD SVG 1.1//EN"
 "http://www.w3.org/Graphics/SVG/1.1/DTD/svg11.dtd">
<!-- Generated by graphviz version 2.42.3 (20191010.1750)
 -->
<!-- Title: snakemake_dag Pages: 1 -->
<svg width="545pt" height="2708pt"
 viewBox="0.00 0.00 545.00 2708.00" xmlns="http://www.w3.org/2000/svg" xmlns:xlink="http://www.w3.org/1999/xlink">
<g id="graph0" class="graph" transform="scale(1 1) rotate(0) translate(4 2704)">
<title>snakemake_dag</title>
<polygon fill="white" stroke="transparent" points="-4,4 -4,-2704 541,-2704 541,4 -4,4"/>
<!-- 0 -->
<g id="node1" class="node">
<title>0</title>
<path fill="none" stroke="#56d0d8" stroke-width="2" d="M264,-36C264,-36 234,-36 234,-36 228,-36 222,-30 222,-24 222,-24 222,-12 222,-12 222,-6 228,0 234,0 234,0 264,0 264,0 270,0 276,-6 276,-12 276,-12 276,-24 276,-24 276,-30 270,-36 264,-36"/>
<text text-anchor="middle" x="249" y="-15.5" font-family="sans" font-size="10.00">all</text>
</g>
<!-- 1 -->
<g id="node2" class="node">
<title>1</title>
<path fill="none" stroke="#59d856" stroke-width="2" d="M123,-180C123,-180 81,-180 81,-180 75,-180 69,-174 69,-168 69,-168 69,-156 69,-156 69,-150 75,-144 81,-144 81,-144 123,-144 123,-144 129,-144 135,-150 135,-156 135,-156 135,-168 135,-168 135,-174 129,-180 123,-180"/>
<text text-anchor="middle" x="102" y="-159.5" font-family="sans" font-size="10.00">busco_run</text>
</g>
<!-- 1&#45;&gt;0 -->
<g id="edge3" class="edge">
<title>1&#45;&gt;0</title>
<path fill="none" stroke="grey" stroke-width="2" d="M101.4,-143.9C101.63,-124.34 104.9,-92.38 122,-72 144.57,-45.11 183.08,-31.62 211.79,-25.02"/>
<polygon fill="grey" stroke="grey" stroke-width="2" points="212.81,-28.38 221.87,-22.88 211.37,-21.53 212.81,-28.38"/>
</g>
<!-- 2 -->
<g id="node3" class="node">
<title>2</title>
<path fill="none" stroke="#d86e56" stroke-width="2" d="M205.5,-108C205.5,-108 142.5,-108 142.5,-108 136.5,-108 130.5,-102 130.5,-96 130.5,-96 130.5,-84 130.5,-84 130.5,-78 136.5,-72 142.5,-72 142.5,-72 205.5,-72 205.5,-72 211.5,-72 217.5,-78 217.5,-84 217.5,-84 217.5,-96 217.5,-96 217.5,-102 211.5,-108 205.5,-108"/>
<text text-anchor="middle" x="174" y="-87.5" font-family="sans" font-size="10.00">busco_multiqc</text>
</g>
<!-- 1&#45;&gt;2 -->
<g id="edge7" class="edge">
<title>1&#45;&gt;2</title>
<path fill="none" stroke="grey" stroke-width="2" d="M119.8,-143.7C128.6,-135.14 139.38,-124.66 149,-115.3"/>
<polygon fill="grey" stroke="grey" stroke-width="2" points="151.68,-117.58 156.41,-108.1 146.8,-112.57 151.68,-117.58"/>
</g>
<!-- 2&#45;&gt;0 -->
<g id="edge4" class="edge">
<title>2&#45;&gt;0</title>
<path fill="none" stroke="grey" stroke-width="2" d="M192.54,-71.7C201.8,-63.05 213.16,-52.45 223.26,-43.03"/>
<polygon fill="grey" stroke="grey" stroke-width="2" points="225.75,-45.49 230.67,-36.1 220.98,-40.37 225.75,-45.49"/>
</g>
<!-- 3 -->
<g id="node4" class="node">
<title>3</title>
<path fill="none" stroke="#56a2d8" stroke-width="2" d="M414,-324C414,-324 260,-324 260,-324 254,-324 248,-318 248,-312 248,-312 248,-300 248,-300 248,-294 254,-288 260,-288 260,-288 414,-288 414,-288 420,-288 426,-294 426,-300 426,-300 426,-312 426,-312 426,-318 420,-324 414,-324"/>
<text text-anchor="middle" x="337" y="-303.5" font-family="sans" font-size="10.00">homologs_refine2_maxalign_pep</text>
</g>
<!-- 3&#45;&gt;0 -->
<g id="edge1" class="edge">
<title>3&#45;&gt;0</title>
<path fill="none" stroke="grey" stroke-width="2" d="M392,-287.93C409.22,-279.81 426.45,-268.23 437,-252 480.77,-184.66 477.36,-129.22 421,-72 385.32,-35.78 325.52,-24.19 286.67,-20.56"/>
<polygon fill="grey" stroke="grey" stroke-width="2" points="286.55,-17.03 276.3,-19.73 285.99,-24.01 286.55,-17.03"/>
</g>
<!-- 12 -->
<g id="node13" class="node">
<title>12</title>
<path fill="none" stroke="#567bd8" stroke-width="2" d="M415.5,-252C415.5,-252 258.5,-252 258.5,-252 252.5,-252 246.5,-246 246.5,-240 246.5,-240 246.5,-228 246.5,-228 246.5,-222 252.5,-216 258.5,-216 258.5,-216 415.5,-216 415.5,-216 421.5,-216 427.5,-222 427.5,-228 427.5,-228 427.5,-240 427.5,-240 427.5,-246 421.5,-252 415.5,-252"/>
<text text-anchor="middle" x="337" y="-231.5" font-family="sans" font-size="10.00">homologs_refine2_maxalign_long</text>
</g>
<!-- 3&#45;&gt;12 -->
<g id="edge18" class="edge">
<title>3&#45;&gt;12</title>
<path fill="none" stroke="grey" stroke-width="2" d="M337,-287.7C337,-279.98 337,-270.71 337,-262.11"/>
<polygon fill="grey" stroke="grey" stroke-width="2" points="340.5,-262.1 337,-252.1 333.5,-262.1 340.5,-262.1"/>
</g>
<!-- 4 -->
<g id="node5" class="node">
<title>4</title>
<path fill="none" stroke="#56c1d8" stroke-width="2" d="M400,-108C400,-108 248,-108 248,-108 242,-108 236,-102 236,-96 236,-96 236,-84 236,-84 236,-78 242,-72 248,-72 248,-72 400,-72 400,-72 406,-72 412,-78 412,-84 412,-84 412,-96 412,-96 412,-102 406,-108 400,-108"/>
<text text-anchor="middle" x="324" y="-87.5" font-family="sans" font-size="10.00">homologs_refine2_maxalign_cds</text>
</g>
<!-- 4&#45;&gt;0 -->
<g id="edge2" class="edge">
<title>4&#45;&gt;0</title>
<path fill="none" stroke="grey" stroke-width="2" d="M305.46,-71.7C296.2,-63.05 284.84,-52.45 274.74,-43.03"/>
<polygon fill="grey" stroke="grey" stroke-width="2" points="277.02,-40.37 267.33,-36.1 272.25,-45.49 277.02,-40.37"/>
</g>
<!-- 5 -->
<g id="node6" class="node">
<title>5</title>
<path fill="none" stroke="#8fd856" stroke-width="2" d="M95.5,-2700C95.5,-2700 38.5,-2700 38.5,-2700 32.5,-2700 26.5,-2694 26.5,-2688 26.5,-2688 26.5,-2676 26.5,-2676 26.5,-2670 32.5,-2664 38.5,-2664 38.5,-2664 95.5,-2664 95.5,-2664 101.5,-2664 107.5,-2670 107.5,-2676 107.5,-2676 107.5,-2688 107.5,-2688 107.5,-2694 101.5,-2700 95.5,-2700"/>
<text text-anchor="middle" x="67" y="-2679.5" font-family="sans" font-size="10.00">raw_link_pep</text>
</g>
<!-- 5&#45;&gt;1 -->
<g id="edge5" class="edge">
<title>5&#45;&gt;1</title>
<path fill="none" stroke="grey" stroke-width="2" d="M52.79,-2663.86C33.12,-2638.34 0,-2588.07 0,-2539 0,-2539 0,-2539 0,-305 0,-255.82 40.86,-212.01 70.85,-186.48"/>
<polygon fill="grey" stroke="grey" stroke-width="2" points="73.12,-189.15 78.6,-180.08 68.66,-183.75 73.12,-189.15"/>
</g>
<!-- 20 -->
<g id="node21" class="node">
<title>20</title>
<path fill="none" stroke="#56d0d8" stroke-width="2" d="M163,-2628C163,-2628 123,-2628 123,-2628 117,-2628 111,-2622 111,-2616 111,-2616 111,-2604 111,-2604 111,-2598 117,-2592 123,-2592 123,-2592 163,-2592 163,-2592 169,-2592 175,-2598 175,-2604 175,-2604 175,-2616 175,-2616 175,-2622 169,-2628 163,-2628"/>
<text text-anchor="middle" x="143" y="-2607.5" font-family="sans" font-size="10.00">cdhit_pep</text>
</g>
<!-- 5&#45;&gt;20 -->
<g id="edge27" class="edge">
<title>5&#45;&gt;20</title>
<path fill="none" stroke="grey" stroke-width="2" d="M85.79,-2663.7C95.17,-2655.05 106.68,-2644.45 116.91,-2635.03"/>
<polygon fill="grey" stroke="grey" stroke-width="2" points="119.45,-2637.45 124.43,-2628.1 114.7,-2632.3 119.45,-2637.45"/>
</g>
<!-- 6 -->
<g id="node7" class="node">
<title>6</title>
<path fill="none" stroke="#d88556" stroke-width="2" d="M132.5,-252C132.5,-252 71.5,-252 71.5,-252 65.5,-252 59.5,-246 59.5,-240 59.5,-240 59.5,-228 59.5,-228 59.5,-222 65.5,-216 71.5,-216 71.5,-216 132.5,-216 132.5,-216 138.5,-216 144.5,-222 144.5,-228 144.5,-228 144.5,-240 144.5,-240 144.5,-246 138.5,-252 132.5,-252"/>
<text text-anchor="middle" x="102" y="-231.5" font-family="sans" font-size="10.00">busco_extract</text>
</g>
<!-- 6&#45;&gt;1 -->
<g id="edge6" class="edge">
<title>6&#45;&gt;1</title>
<path fill="none" stroke="grey" stroke-width="2" d="M102,-215.7C102,-207.98 102,-198.71 102,-190.11"/>
<polygon fill="grey" stroke="grey" stroke-width="2" points="105.5,-190.1 102,-180.1 98.5,-190.1 105.5,-190.1"/>
</g>
<!-- 7 -->
<g id="node8" class="node">
<title>7</title>
<path fill="none" stroke="#d6d856" stroke-width="2" d="M297,-396C297,-396 151,-396 151,-396 145,-396 139,-390 139,-384 139,-384 139,-372 139,-372 139,-366 145,-360 151,-360 151,-360 297,-360 297,-360 303,-360 309,-366 309,-372 309,-372 309,-384 309,-384 309,-390 303,-396 297,-396"/>
<text text-anchor="middle" x="224" y="-375.5" font-family="sans" font-size="10.00">homologs_refine2_tcoffee_filter</text>
</g>
<!-- 7&#45;&gt;3 -->
<g id="edge8" class="edge">
<title>7&#45;&gt;3</title>
<path fill="none" stroke="grey" stroke-width="2" d="M251.64,-359.88C266.42,-350.72 284.79,-339.34 300.7,-329.48"/>
<polygon fill="grey" stroke="grey" stroke-width="2" points="302.59,-332.43 309.25,-324.19 298.91,-326.48 302.59,-332.43"/>
</g>
<!-- 7&#45;&gt;4 -->
<g id="edge9" class="edge">
<title>7&#45;&gt;4</title>
<path fill="none" stroke="grey" stroke-width="2" d="M219.37,-359.93C209.35,-319.15 189.77,-214.25 232,-144 239.79,-131.04 252.04,-120.94 265.09,-113.2"/>
<polygon fill="grey" stroke="grey" stroke-width="2" points="267.12,-116.08 274.21,-108.21 263.76,-109.94 267.12,-116.08"/>
</g>
<!-- 8 -->
<g id="node9" class="node">
<title>8</title>
<path fill="none" stroke="#a7d856" stroke-width="2" d="M421,-180C421,-180 253,-180 253,-180 247,-180 241,-174 241,-168 241,-168 241,-156 241,-156 241,-150 247,-144 253,-144 253,-144 421,-144 421,-144 427,-144 433,-150 433,-156 433,-156 433,-168 433,-168 433,-174 427,-180 421,-180"/>
<text text-anchor="middle" x="337" y="-159.5" font-family="sans" font-size="10.00">homologs_refine2_maxalign_subset</text>
</g>
<!-- 8&#45;&gt;4 -->
<g id="edge10" class="edge">
<title>8&#45;&gt;4</title>
<path fill="none" stroke="grey" stroke-width="2" d="M333.79,-143.7C332.35,-135.98 330.63,-126.71 329.04,-118.11"/>
<polygon fill="grey" stroke="grey" stroke-width="2" points="332.44,-117.3 327.18,-108.1 325.56,-118.58 332.44,-117.3"/>
</g>
<!-- 9 -->
<g id="node10" class="node">
<title>9</title>
<path fill="none" stroke="#56d882" stroke-width="2" d="M139,-324C139,-324 65,-324 65,-324 59,-324 53,-318 53,-312 53,-312 53,-300 53,-300 53,-294 59,-288 65,-288 65,-288 139,-288 139,-288 145,-288 151,-294 151,-300 151,-300 151,-312 151,-312 151,-318 145,-324 139,-324"/>
<text text-anchor="middle" x="102" y="-303.5" font-family="sans" font-size="10.00">busco_download</text>
</g>
<!-- 9&#45;&gt;6 -->
<g id="edge11" class="edge">
<title>9&#45;&gt;6</title>
<path fill="none" stroke="grey" stroke-width="2" d="M102,-287.7C102,-279.98 102,-270.71 102,-262.11"/>
<polygon fill="grey" stroke="grey" stroke-width="2" points="105.5,-262.1 102,-252.1 98.5,-262.1 105.5,-262.1"/>
</g>
<!-- 10 -->
<g id="node11" class="node">
<title>10</title>
<path fill="none" stroke="#56b9d8" stroke-width="2" d="M278,-540C278,-540 130,-540 130,-540 124,-540 118,-534 118,-528 118,-528 118,-516 118,-516 118,-510 124,-504 130,-504 130,-504 278,-504 278,-504 284,-504 290,-510 290,-516 290,-516 290,-528 290,-528 290,-534 284,-540 278,-540"/>
<text text-anchor="middle" x="204" y="-519.5" font-family="sans" font-size="10.00">homologs_refine2_tcoffee_align</text>
</g>
<!-- 10&#45;&gt;7 -->
<g id="edge13" class="edge">
<title>10&#45;&gt;7</title>
<path fill="none" stroke="grey" stroke-width="2" d="M247.56,-503.87C262.86,-495.49 278.37,-483.74 287,-468 294.69,-453.97 293.75,-446.51 287,-432 281.57,-420.34 272.18,-410.34 262.28,-402.26"/>
<polygon fill="grey" stroke="grey" stroke-width="2" points="264.38,-399.45 254.3,-396.2 260.15,-405.03 264.38,-399.45"/>
</g>
<!-- 11 -->
<g id="node12" class="node">
<title>11</title>
<path fill="none" stroke="#d88d56" stroke-width="2" d="M265.5,-468C265.5,-468 120.5,-468 120.5,-468 114.5,-468 108.5,-462 108.5,-456 108.5,-456 108.5,-444 108.5,-444 108.5,-438 114.5,-432 120.5,-432 120.5,-432 265.5,-432 265.5,-432 271.5,-432 277.5,-438 277.5,-444 277.5,-444 277.5,-456 277.5,-456 277.5,-462 271.5,-468 265.5,-468"/>
<text text-anchor="middle" x="193" y="-447.5" font-family="sans" font-size="10.00">homologs_refine2_tcoffee_eval</text>
</g>
<!-- 10&#45;&gt;11 -->
<g id="edge17" class="edge">
<title>10&#45;&gt;11</title>
<path fill="none" stroke="grey" stroke-width="2" d="M201.28,-503.7C200.07,-495.98 198.61,-486.71 197.26,-478.11"/>
<polygon fill="grey" stroke="grey" stroke-width="2" points="200.7,-477.44 195.69,-468.1 193.78,-478.53 200.7,-477.44"/>
</g>
<!-- 11&#45;&gt;7 -->
<g id="edge12" class="edge">
<title>11&#45;&gt;7</title>
<path fill="none" stroke="grey" stroke-width="2" d="M200.66,-431.7C204.19,-423.73 208.46,-414.1 212.37,-405.26"/>
<polygon fill="grey" stroke="grey" stroke-width="2" points="215.58,-406.67 216.43,-396.1 209.18,-403.83 215.58,-406.67"/>
</g>
<!-- 12&#45;&gt;8 -->
<g id="edge14" class="edge">
<title>12&#45;&gt;8</title>
<path fill="none" stroke="grey" stroke-width="2" d="M337,-215.7C337,-207.98 337,-198.71 337,-190.11"/>
<polygon fill="grey" stroke="grey" stroke-width="2" points="340.5,-190.1 337,-180.1 333.5,-190.1 340.5,-190.1"/>
</g>
<!-- 13 -->
<g id="node14" class="node">
<title>13</title>
<path fill="none" stroke="#d8ac56" stroke-width="2" d="M525,-2340C525,-2340 439,-2340 439,-2340 433,-2340 427,-2334 427,-2328 427,-2328 427,-2316 427,-2316 427,-2310 433,-2304 439,-2304 439,-2304 525,-2304 525,-2304 531,-2304 537,-2310 537,-2316 537,-2316 537,-2328 537,-2328 537,-2334 531,-2340 525,-2340"/>
<text text-anchor="middle" x="482" y="-2319.5" font-family="sans" font-size="10.00">homologs_join_cds</text>
</g>
<!-- 13&#45;&gt;8 -->
<g id="edge15" class="edge">
<title>13&#45;&gt;8</title>
<path fill="none" stroke="grey" stroke-width="2" d="M488.07,-2303.76C496.84,-2277.28 512,-2224.86 512,-2179 512,-2179 512,-2179 512,-305 512,-244.78 448.74,-205.64 398.29,-184"/>
<polygon fill="grey" stroke="grey" stroke-width="2" points="399.61,-180.76 389.03,-180.16 396.93,-187.23 399.61,-180.76"/>
</g>
<!-- 14 -->
<g id="node15" class="node">
<title>14</title>
<path fill="none" stroke="#c6d856" stroke-width="2" d="M259,-612C259,-612 149,-612 149,-612 143,-612 137,-606 137,-600 137,-600 137,-588 137,-588 137,-582 143,-576 149,-576 149,-576 259,-576 259,-576 265,-576 271,-582 271,-588 271,-588 271,-600 271,-600 271,-606 265,-612 259,-612"/>
<text text-anchor="middle" x="204" y="-591.5" font-family="sans" font-size="10.00">homologs_refine2_fasta</text>
</g>
<!-- 14&#45;&gt;10 -->
<g id="edge16" class="edge">
<title>14&#45;&gt;10</title>
<path fill="none" stroke="grey" stroke-width="2" d="M204,-575.7C204,-567.98 204,-558.71 204,-550.11"/>
<polygon fill="grey" stroke="grey" stroke-width="2" points="207.5,-550.1 204,-540.1 200.5,-550.1 207.5,-550.1"/>
</g>
<!-- 15 -->
<g id="node16" class="node">
<title>15</title>
<path fill="none" stroke="#61d856" stroke-width="2" d="M461,-2484C461,-2484 395,-2484 395,-2484 389,-2484 383,-2478 383,-2472 383,-2472 383,-2460 383,-2460 383,-2454 389,-2448 395,-2448 395,-2448 461,-2448 461,-2448 467,-2448 473,-2454 473,-2460 473,-2460 473,-2472 473,-2472 473,-2478 467,-2484 461,-2484"/>
<text text-anchor="middle" x="428" y="-2463.5" font-family="sans" font-size="10.00">cdhit_filter_cds</text>
</g>
<!-- 15&#45;&gt;13 -->
<g id="edge19" class="edge">
<title>15&#45;&gt;13</title>
<path fill="none" stroke="grey" stroke-width="2" d="M434.51,-2447.87C443.8,-2423.46 460.92,-2378.43 471.87,-2349.64"/>
<polygon fill="grey" stroke="grey" stroke-width="2" points="475.18,-2350.78 475.46,-2340.19 468.64,-2348.29 475.18,-2350.78"/>
</g>
<!-- 16 -->
<g id="node17" class="node">
<title>16</title>
<path fill="none" stroke="#567bd8" stroke-width="2" d="M281,-684C281,-684 127,-684 127,-684 121,-684 115,-678 115,-672 115,-672 115,-660 115,-660 115,-654 121,-648 127,-648 127,-648 281,-648 281,-648 287,-648 293,-654 293,-660 293,-660 293,-672 293,-672 293,-678 287,-684 281,-684"/>
<text text-anchor="middle" x="204" y="-663.5" font-family="sans" font-size="10.00">homologs_refine1_maxalign_pep</text>
</g>
<!-- 16&#45;&gt;14 -->
<g id="edge20" class="edge">
<title>16&#45;&gt;14</title>
<path fill="none" stroke="grey" stroke-width="2" d="M204,-647.7C204,-639.98 204,-630.71 204,-622.11"/>
<polygon fill="grey" stroke="grey" stroke-width="2" points="207.5,-622.1 204,-612.1 200.5,-622.1 207.5,-622.1"/>
</g>
<!-- 17 -->
<g id="node18" class="node">
<title>17</title>
<path fill="none" stroke="#d87d56" stroke-width="2" d="M364,-2556C364,-2556 308,-2556 308,-2556 302,-2556 296,-2550 296,-2544 296,-2544 296,-2532 296,-2532 296,-2526 302,-2520 308,-2520 308,-2520 364,-2520 364,-2520 370,-2520 376,-2526 376,-2532 376,-2532 376,-2544 376,-2544 376,-2550 370,-2556 364,-2556"/>
<text text-anchor="middle" x="336" y="-2535.5" font-family="sans" font-size="10.00">raw_link_cds</text>
</g>
<!-- 17&#45;&gt;15 -->
<g id="edge21" class="edge">
<title>17&#45;&gt;15</title>
<path fill="none" stroke="grey" stroke-width="2" d="M358.74,-2519.7C370.44,-2510.8 384.86,-2499.82 397.51,-2490.2"/>
<polygon fill="grey" stroke="grey" stroke-width="2" points="399.68,-2492.94 405.52,-2484.1 395.44,-2487.37 399.68,-2492.94"/>
</g>
<!-- 18 -->
<g id="node19" class="node">
<title>18</title>
<path fill="none" stroke="#56d8b9" stroke-width="2" d="M449.5,-2556C449.5,-2556 406.5,-2556 406.5,-2556 400.5,-2556 394.5,-2550 394.5,-2544 394.5,-2544 394.5,-2532 394.5,-2532 394.5,-2526 400.5,-2520 406.5,-2520 406.5,-2520 449.5,-2520 449.5,-2520 455.5,-2520 461.5,-2526 461.5,-2532 461.5,-2532 461.5,-2544 461.5,-2544 461.5,-2550 455.5,-2556 449.5,-2556"/>
<text text-anchor="middle" x="428" y="-2535.5" font-family="sans" font-size="10.00">index_pep</text>
</g>
<!-- 18&#45;&gt;15 -->
<g id="edge22" class="edge">
<title>18&#45;&gt;15</title>
<path fill="none" stroke="grey" stroke-width="2" d="M428,-2519.7C428,-2511.98 428,-2502.71 428,-2494.11"/>
<polygon fill="grey" stroke="grey" stroke-width="2" points="431.5,-2494.1 428,-2484.1 424.5,-2494.1 431.5,-2494.1"/>
</g>
<!-- 19 -->
<g id="node20" class="node">
<title>19</title>
<path fill="none" stroke="#d8cb56" stroke-width="2" d="M277,-756C277,-756 131,-756 131,-756 125,-756 119,-750 119,-744 119,-744 119,-732 119,-732 119,-726 125,-720 131,-720 131,-720 277,-720 277,-720 283,-720 289,-726 289,-732 289,-732 289,-744 289,-744 289,-750 283,-756 277,-756"/>
<text text-anchor="middle" x="204" y="-735.5" font-family="sans" font-size="10.00">homologs_refine1_tcoffee_filter</text>
</g>
<!-- 19&#45;&gt;16 -->
<g id="edge23" class="edge">
<title>19&#45;&gt;16</title>
<path fill="none" stroke="grey" stroke-width="2" d="M204,-719.7C204,-711.98 204,-702.71 204,-694.11"/>
<polygon fill="grey" stroke="grey" stroke-width="2" points="207.5,-694.1 204,-684.1 200.5,-694.1 207.5,-694.1"/>
</g>
<!-- 20&#45;&gt;18 -->
<g id="edge24" class="edge">
<title>20&#45;&gt;18</title>
<path fill="none" stroke="grey" stroke-width="2" d="M175.13,-2603.66C220.06,-2595.84 304.25,-2579.84 384.6,-2555.85"/>
<polygon fill="grey" stroke="grey" stroke-width="2" points="385.83,-2559.14 394.38,-2552.88 383.8,-2552.44 385.83,-2559.14"/>
</g>
<!-- 25 -->
<g id="node26" class="node">
<title>25</title>
<path fill="none" stroke="#5663d8" stroke-width="2" d="M128.5,-2268C128.5,-2268 41.5,-2268 41.5,-2268 35.5,-2268 29.5,-2262 29.5,-2256 29.5,-2256 29.5,-2244 29.5,-2244 29.5,-2238 35.5,-2232 41.5,-2232 41.5,-2232 128.5,-2232 128.5,-2232 134.5,-2232 140.5,-2238 140.5,-2244 140.5,-2244 140.5,-2256 140.5,-2256 140.5,-2262 134.5,-2268 128.5,-2268"/>
<text text-anchor="middle" x="85" y="-2247.5" font-family="sans" font-size="10.00">homologs_join_pep</text>
</g>
<!-- 20&#45;&gt;25 -->
<g id="edge34" class="edge">
<title>20&#45;&gt;25</title>
<path fill="none" stroke="grey" stroke-width="2" d="M133.47,-2591.66C120,-2565.47 97,-2513.9 97,-2467 97,-2467 97,-2467 97,-2393 97,-2352.85 92.18,-2306.55 88.65,-2278.02"/>
<polygon fill="grey" stroke="grey" stroke-width="2" points="92.11,-2277.49 87.37,-2268.01 85.16,-2278.37 92.11,-2277.49"/>
</g>
<!-- 47 -->
<g id="node48" class="node">
<title>47</title>
<path fill="none" stroke="#56a9d8" stroke-width="2" d="M239,-2556C239,-2556 141,-2556 141,-2556 135,-2556 129,-2550 129,-2544 129,-2544 129,-2532 129,-2532 129,-2526 135,-2520 141,-2520 141,-2520 239,-2520 239,-2520 245,-2520 251,-2526 251,-2532 251,-2532 251,-2544 251,-2544 251,-2550 245,-2556 239,-2556"/>
<text text-anchor="middle" x="190" y="-2535.5" font-family="sans" font-size="10.00">orthofinder_parse_ids</text>
</g>
<!-- 20&#45;&gt;47 -->
<g id="edge59" class="edge">
<title>20&#45;&gt;47</title>
<path fill="none" stroke="grey" stroke-width="2" d="M154.62,-2591.7C160.14,-2583.47 166.85,-2573.48 172.93,-2564.42"/>
<polygon fill="grey" stroke="grey" stroke-width="2" points="175.85,-2566.36 178.52,-2556.1 170.04,-2562.46 175.85,-2566.36"/>
</g>
<!-- 21 -->
<g id="node22" class="node">
<title>21</title>
<path fill="none" stroke="#d85656" stroke-width="2" d="M204,-900C204,-900 56,-900 56,-900 50,-900 44,-894 44,-888 44,-888 44,-876 44,-876 44,-870 50,-864 56,-864 56,-864 204,-864 204,-864 210,-864 216,-870 216,-876 216,-876 216,-888 216,-888 216,-894 210,-900 204,-900"/>
<text text-anchor="middle" x="130" y="-879.5" font-family="sans" font-size="10.00">homologs_refine1_tcoffee_align</text>
</g>
<!-- 21&#45;&gt;19 -->
<g id="edge25" class="edge">
<title>21&#45;&gt;19</title>
<path fill="none" stroke="grey" stroke-width="2" d="M175.03,-863.86C190.55,-855.53 206.22,-843.81 215,-828 225.52,-809.05 221.34,-784.39 215.34,-765.83"/>
<polygon fill="grey" stroke="grey" stroke-width="2" points="218.57,-764.46 211.91,-756.23 211.98,-766.82 218.57,-764.46"/>
</g>
<!-- 22 -->
<g id="node23" class="node">
<title>22</title>
<path fill="none" stroke="#d8c356" stroke-width="2" d="M193.5,-828C193.5,-828 48.5,-828 48.5,-828 42.5,-828 36.5,-822 36.5,-816 36.5,-816 36.5,-804 36.5,-804 36.5,-798 42.5,-792 48.5,-792 48.5,-792 193.5,-792 193.5,-792 199.5,-792 205.5,-798 205.5,-804 205.5,-804 205.5,-816 205.5,-816 205.5,-822 199.5,-828 193.5,-828"/>
<text text-anchor="middle" x="121" y="-807.5" font-family="sans" font-size="10.00">homologs_refine1_tcoffee_eval</text>
</g>
<!-- 21&#45;&gt;22 -->
<g id="edge29" class="edge">
<title>21&#45;&gt;22</title>
<path fill="none" stroke="grey" stroke-width="2" d="M127.78,-863.7C126.78,-855.98 125.59,-846.71 124.49,-838.11"/>
<polygon fill="grey" stroke="grey" stroke-width="2" points="127.95,-837.58 123.2,-828.1 121,-838.47 127.95,-837.58"/>
</g>
<!-- 22&#45;&gt;19 -->
<g id="edge26" class="edge">
<title>22&#45;&gt;19</title>
<path fill="none" stroke="grey" stroke-width="2" d="M141.52,-791.7C151.87,-782.97 164.59,-772.24 175.84,-762.75"/>
<polygon fill="grey" stroke="grey" stroke-width="2" points="178.33,-765.23 183.72,-756.1 173.82,-759.88 178.33,-765.23"/>
</g>
<!-- 23 -->
<g id="node24" class="node">
<title>23</title>
<path fill="none" stroke="#d86e56" stroke-width="2" d="M185,-972C185,-972 75,-972 75,-972 69,-972 63,-966 63,-960 63,-960 63,-948 63,-948 63,-942 69,-936 75,-936 75,-936 185,-936 185,-936 191,-936 197,-942 197,-948 197,-948 197,-960 197,-960 197,-966 191,-972 185,-972"/>
<text text-anchor="middle" x="130" y="-951.5" font-family="sans" font-size="10.00">homologs_refine1_fasta</text>
</g>
<!-- 23&#45;&gt;21 -->
<g id="edge28" class="edge">
<title>23&#45;&gt;21</title>
<path fill="none" stroke="grey" stroke-width="2" d="M130,-935.7C130,-927.98 130,-918.71 130,-910.11"/>
<polygon fill="grey" stroke="grey" stroke-width="2" points="133.5,-910.1 130,-900.1 126.5,-910.1 133.5,-910.1"/>
</g>
<!-- 24 -->
<g id="node25" class="node">
<title>24</title>
<path fill="none" stroke="#56d8d8" stroke-width="2" d="M212,-1044C212,-1044 78,-1044 78,-1044 72,-1044 66,-1038 66,-1032 66,-1032 66,-1020 66,-1020 66,-1014 72,-1008 78,-1008 78,-1008 212,-1008 212,-1008 218,-1008 224,-1014 224,-1020 224,-1020 224,-1032 224,-1032 224,-1038 218,-1044 212,-1044"/>
<text text-anchor="middle" x="145" y="-1023.5" font-family="sans" font-size="10.00">homologs_rt_prune_paralogs</text>
</g>
<!-- 24&#45;&gt;23 -->
<g id="edge31" class="edge">
<title>24&#45;&gt;23</title>
<path fill="none" stroke="grey" stroke-width="2" d="M141.29,-1007.7C139.64,-999.98 137.65,-990.71 135.81,-982.11"/>
<polygon fill="grey" stroke="grey" stroke-width="2" points="139.18,-981.15 133.67,-972.1 132.34,-982.62 139.18,-981.15"/>
</g>
<!-- 25&#45;&gt;23 -->
<g id="edge30" class="edge">
<title>25&#45;&gt;23</title>
<path fill="none" stroke="grey" stroke-width="2" d="M75.26,-2231.68C61.49,-2205.53 38,-2154 38,-2107 38,-2107 38,-2107 38,-1097 38,-1056.55 34.95,-1041.91 57,-1008 64.83,-995.96 76.42,-985.74 88.08,-977.58"/>
<polygon fill="grey" stroke="grey" stroke-width="2" points="90.1,-980.44 96.52,-972.01 86.25,-974.6 90.1,-980.44"/>
</g>
<!-- 34 -->
<g id="node35" class="node">
<title>34</title>
<path fill="none" stroke="#afd856" stroke-width="2" d="M309.5,-1620C309.5,-1620 160.5,-1620 160.5,-1620 154.5,-1620 148.5,-1614 148.5,-1608 148.5,-1608 148.5,-1596 148.5,-1596 148.5,-1590 154.5,-1584 160.5,-1584 160.5,-1584 309.5,-1584 309.5,-1584 315.5,-1584 321.5,-1590 321.5,-1596 321.5,-1596 321.5,-1608 321.5,-1608 321.5,-1614 315.5,-1620 309.5,-1620"/>
<text text-anchor="middle" x="235" y="-1599.5" font-family="sans" font-size="10.00">homologs_round2_tree_to_fasta</text>
</g>
<!-- 25&#45;&gt;34 -->
<g id="edge44" class="edge">
<title>25&#45;&gt;34</title>
<path fill="none" stroke="grey" stroke-width="2" d="M85,-2231.95C85,-2205.29 85,-2152.11 85,-2107 85,-2107 85,-2107 85,-1745 85,-1704.46 78.81,-1686.95 105,-1656 116.82,-1642.03 132.9,-1631.69 149.71,-1624.06"/>
<polygon fill="grey" stroke="grey" stroke-width="2" points="151.25,-1627.21 159.1,-1620.1 148.53,-1620.76 151.25,-1627.21"/>
</g>
<!-- 42 -->
<g id="node43" class="node">
<title>42</title>
<path fill="none" stroke="#5692d8" stroke-width="2" d="M287.5,-2196C287.5,-2196 138.5,-2196 138.5,-2196 132.5,-2196 126.5,-2190 126.5,-2184 126.5,-2184 126.5,-2172 126.5,-2172 126.5,-2166 132.5,-2160 138.5,-2160 138.5,-2160 287.5,-2160 287.5,-2160 293.5,-2160 299.5,-2166 299.5,-2172 299.5,-2172 299.5,-2184 299.5,-2184 299.5,-2190 293.5,-2196 287.5,-2196"/>
<text text-anchor="middle" x="213" y="-2175.5" font-family="sans" font-size="10.00">homologs_round1_tree_to_fasta</text>
</g>
<!-- 25&#45;&gt;42 -->
<g id="edge53" class="edge">
<title>25&#45;&gt;42</title>
<path fill="none" stroke="grey" stroke-width="2" d="M116.31,-2231.88C133.2,-2222.64 154.25,-2211.13 172.38,-2201.21"/>
<polygon fill="grey" stroke="grey" stroke-width="2" points="174.47,-2204.06 181.57,-2196.19 171.11,-2197.92 174.47,-2204.06"/>
</g>
<!-- 26 -->
<g id="node27" class="node">
<title>26</title>
<path fill="none" stroke="#56d86b" stroke-width="2" d="M212,-1116C212,-1116 78,-1116 78,-1116 72,-1116 66,-1110 66,-1104 66,-1104 66,-1092 66,-1092 66,-1086 72,-1080 78,-1080 78,-1080 212,-1080 212,-1080 218,-1080 224,-1086 224,-1092 224,-1092 224,-1104 224,-1104 224,-1110 218,-1116 212,-1116"/>
<text text-anchor="middle" x="145" y="-1095.5" font-family="sans" font-size="10.00">homologs_create_taxa_inout</text>
</g>
<!-- 26&#45;&gt;24 -->
<g id="edge33" class="edge">
<title>26&#45;&gt;24</title>
<path fill="none" stroke="grey" stroke-width="2" d="M145,-1079.7C145,-1071.98 145,-1062.71 145,-1054.11"/>
<polygon fill="grey" stroke="grey" stroke-width="2" points="148.5,-1054.1 145,-1044.1 141.5,-1054.1 148.5,-1054.1"/>
</g>
<!-- 27 -->
<g id="node28" class="node">
<title>27</title>
<path fill="none" stroke="#80d856" stroke-width="2" d="M472,-1116C472,-1116 254,-1116 254,-1116 248,-1116 242,-1110 242,-1104 242,-1104 242,-1092 242,-1092 242,-1086 248,-1080 254,-1080 254,-1080 472,-1080 472,-1080 478,-1080 484,-1086 484,-1092 484,-1092 484,-1104 484,-1104 484,-1110 478,-1116 472,-1116"/>
<text text-anchor="middle" x="363" y="-1095.5" font-family="sans" font-size="10.00">homologs_round2_cut_internal_long_branches</text>
</g>
<!-- 27&#45;&gt;24 -->
<g id="edge32" class="edge">
<title>27&#45;&gt;24</title>
<path fill="none" stroke="grey" stroke-width="2" d="M309.95,-1079.97C279.23,-1070.1 240.36,-1057.62 208.08,-1047.25"/>
<polygon fill="grey" stroke="grey" stroke-width="2" points="208.88,-1043.84 198.29,-1044.11 206.74,-1050.5 208.88,-1043.84"/>
</g>
<!-- 28 -->
<g id="node29" class="node">
<title>28</title>
<path fill="none" stroke="#56d89a" stroke-width="2" d="M461,-1188C461,-1188 261,-1188 261,-1188 255,-1188 249,-1182 249,-1176 249,-1176 249,-1164 249,-1164 249,-1158 255,-1152 261,-1152 261,-1152 461,-1152 461,-1152 467,-1152 473,-1158 473,-1164 473,-1164 473,-1176 473,-1176 473,-1182 467,-1188 461,-1188"/>
<text text-anchor="middle" x="361" y="-1167.5" font-family="sans" font-size="10.00">homologs_round2_mask_tips_by_taxon_id</text>
</g>
<!-- 28&#45;&gt;27 -->
<g id="edge35" class="edge">
<title>28&#45;&gt;27</title>
<path fill="none" stroke="grey" stroke-width="2" d="M361.49,-1151.7C361.71,-1143.98 361.98,-1134.71 362.23,-1126.11"/>
<polygon fill="grey" stroke="grey" stroke-width="2" points="365.72,-1126.2 362.51,-1116.1 358.73,-1126 365.72,-1126.2"/>
</g>
<!-- 29 -->
<g id="node30" class="node">
<title>29</title>
<path fill="none" stroke="#56d8b9" stroke-width="2" d="M311,-1260C311,-1260 183,-1260 183,-1260 177,-1260 171,-1254 171,-1248 171,-1248 171,-1236 171,-1236 171,-1230 177,-1224 183,-1224 183,-1224 311,-1224 311,-1224 317,-1224 323,-1230 323,-1236 323,-1236 323,-1248 323,-1248 323,-1254 317,-1260 311,-1260"/>
<text text-anchor="middle" x="247" y="-1239.5" font-family="sans" font-size="10.00">homologs_round2_trim_tips</text>
</g>
<!-- 29&#45;&gt;28 -->
<g id="edge36" class="edge">
<title>29&#45;&gt;28</title>
<path fill="none" stroke="grey" stroke-width="2" d="M274.89,-1223.88C289.79,-1214.72 308.33,-1203.34 324.38,-1193.48"/>
<polygon fill="grey" stroke="grey" stroke-width="2" points="326.31,-1196.41 333.01,-1188.19 322.65,-1190.44 326.31,-1196.41"/>
</g>
<!-- 30 -->
<g id="node31" class="node">
<title>30</title>
<path fill="none" stroke="#97d856" stroke-width="2" d="M294,-1476C294,-1476 178,-1476 178,-1476 172,-1476 166,-1470 166,-1464 166,-1464 166,-1452 166,-1452 166,-1446 172,-1440 178,-1440 178,-1440 294,-1440 294,-1440 300,-1440 306,-1446 306,-1452 306,-1452 306,-1464 306,-1464 306,-1470 300,-1476 294,-1476"/>
<text text-anchor="middle" x="236" y="-1455.5" font-family="sans" font-size="10.00">homologs_round2_pxclsq</text>
</g>
<!-- 30&#45;&gt;28 -->
<g id="edge37" class="edge">
<title>30&#45;&gt;28</title>
<path fill="none" stroke="grey" stroke-width="2" d="M295.5,-1439.95C313.27,-1431.91 330.94,-1420.37 342,-1404 384.8,-1340.67 374.91,-1244.42 366.69,-1197.96"/>
<polygon fill="grey" stroke="grey" stroke-width="2" points="370.11,-1197.23 364.83,-1188.05 363.23,-1198.52 370.11,-1197.23"/>
</g>
<!-- 33 -->
<g id="node34" class="node">
<title>33</title>
<path fill="none" stroke="#ced856" stroke-width="2" d="M321,-1404C321,-1404 151,-1404 151,-1404 145,-1404 139,-1398 139,-1392 139,-1392 139,-1380 139,-1380 139,-1374 145,-1368 151,-1368 151,-1368 321,-1368 321,-1368 327,-1368 333,-1374 333,-1380 333,-1380 333,-1392 333,-1392 333,-1398 327,-1404 321,-1404"/>
<text text-anchor="middle" x="236" y="-1383.5" font-family="sans" font-size="10.00">homologs_round2_raxmlng_reduced</text>
</g>
<!-- 30&#45;&gt;33 -->
<g id="edge42" class="edge">
<title>30&#45;&gt;33</title>
<path fill="none" stroke="grey" stroke-width="2" d="M236,-1439.7C236,-1431.98 236,-1422.71 236,-1414.11"/>
<polygon fill="grey" stroke="grey" stroke-width="2" points="239.5,-1414.1 236,-1404.1 232.5,-1414.1 239.5,-1414.1"/>
</g>
<!-- 31 -->
<g id="node32" class="node">
<title>31</title>
<path fill="none" stroke="#bed856" stroke-width="2" d="M303.5,-1332C303.5,-1332 178.5,-1332 178.5,-1332 172.5,-1332 166.5,-1326 166.5,-1320 166.5,-1320 166.5,-1308 166.5,-1308 166.5,-1302 172.5,-1296 178.5,-1296 178.5,-1296 303.5,-1296 303.5,-1296 309.5,-1296 315.5,-1302 315.5,-1308 315.5,-1308 315.5,-1320 315.5,-1320 315.5,-1326 309.5,-1332 303.5,-1332"/>
<text text-anchor="middle" x="241" y="-1311.5" font-family="sans" font-size="10.00">homologs_round2_raxmlng</text>
</g>
<!-- 31&#45;&gt;29 -->
<g id="edge38" class="edge">
<title>31&#45;&gt;29</title>
<path fill="none" stroke="grey" stroke-width="2" d="M242.48,-1295.7C243.14,-1287.98 243.94,-1278.71 244.68,-1270.11"/>
<polygon fill="grey" stroke="grey" stroke-width="2" points="248.17,-1270.37 245.53,-1260.1 241.19,-1269.77 248.17,-1270.37"/>
</g>
<!-- 32 -->
<g id="node33" class="node">
<title>32</title>
<path fill="none" stroke="#88d856" stroke-width="2" d="M290.5,-1548C290.5,-1548 179.5,-1548 179.5,-1548 173.5,-1548 167.5,-1542 167.5,-1536 167.5,-1536 167.5,-1524 167.5,-1524 167.5,-1518 173.5,-1512 179.5,-1512 179.5,-1512 290.5,-1512 290.5,-1512 296.5,-1512 302.5,-1518 302.5,-1524 302.5,-1524 302.5,-1536 302.5,-1536 302.5,-1542 296.5,-1548 290.5,-1548"/>
<text text-anchor="middle" x="235" y="-1527.5" font-family="sans" font-size="10.00">homologs_round2_mafft</text>
</g>
<!-- 32&#45;&gt;30 -->
<g id="edge39" class="edge">
<title>32&#45;&gt;30</title>
<path fill="none" stroke="grey" stroke-width="2" d="M235.25,-1511.7C235.36,-1503.98 235.49,-1494.71 235.61,-1486.11"/>
<polygon fill="grey" stroke="grey" stroke-width="2" points="239.11,-1486.15 235.76,-1476.1 232.11,-1486.05 239.11,-1486.15"/>
</g>
<!-- 33&#45;&gt;31 -->
<g id="edge40" class="edge">
<title>33&#45;&gt;31</title>
<path fill="none" stroke="grey" stroke-width="2" d="M237.24,-1367.7C237.79,-1359.98 238.45,-1350.71 239.06,-1342.11"/>
<polygon fill="grey" stroke="grey" stroke-width="2" points="242.56,-1342.33 239.78,-1332.1 235.57,-1341.83 242.56,-1342.33"/>
</g>
<!-- 34&#45;&gt;32 -->
<g id="edge41" class="edge">
<title>34&#45;&gt;32</title>
<path fill="none" stroke="grey" stroke-width="2" d="M235,-1583.7C235,-1575.98 235,-1566.71 235,-1558.11"/>
<polygon fill="grey" stroke="grey" stroke-width="2" points="238.5,-1558.1 235,-1548.1 231.5,-1558.1 238.5,-1558.1"/>
</g>
<!-- 35 -->
<g id="node36" class="node">
<title>35</title>
<path fill="none" stroke="#d8d356" stroke-width="2" d="M344,-1692C344,-1692 126,-1692 126,-1692 120,-1692 114,-1686 114,-1680 114,-1680 114,-1668 114,-1668 114,-1662 120,-1656 126,-1656 126,-1656 344,-1656 344,-1656 350,-1656 356,-1662 356,-1668 356,-1668 356,-1680 356,-1680 356,-1686 350,-1692 344,-1692"/>
<text text-anchor="middle" x="235" y="-1671.5" font-family="sans" font-size="10.00">homologs_round1_cut_internal_long_branches</text>
</g>
<!-- 35&#45;&gt;34 -->
<g id="edge43" class="edge">
<title>35&#45;&gt;34</title>
<path fill="none" stroke="grey" stroke-width="2" d="M235,-1655.7C235,-1647.98 235,-1638.71 235,-1630.11"/>
<polygon fill="grey" stroke="grey" stroke-width="2" points="238.5,-1630.1 235,-1620.1 231.5,-1630.1 238.5,-1630.1"/>
</g>
<!-- 36 -->
<g id="node37" class="node">
<title>36</title>
<path fill="none" stroke="#d8a456" stroke-width="2" d="M335,-1764C335,-1764 135,-1764 135,-1764 129,-1764 123,-1758 123,-1752 123,-1752 123,-1740 123,-1740 123,-1734 129,-1728 135,-1728 135,-1728 335,-1728 335,-1728 341,-1728 347,-1734 347,-1740 347,-1740 347,-1752 347,-1752 347,-1758 341,-1764 335,-1764"/>
<text text-anchor="middle" x="235" y="-1743.5" font-family="sans" font-size="10.00">homologs_round1_mask_tips_by_taxon_id</text>
</g>
<!-- 36&#45;&gt;35 -->
<g id="edge45" class="edge">
<title>36&#45;&gt;35</title>
<path fill="none" stroke="grey" stroke-width="2" d="M235,-1727.7C235,-1719.98 235,-1710.71 235,-1702.11"/>
<polygon fill="grey" stroke="grey" stroke-width="2" points="238.5,-1702.1 235,-1692.1 231.5,-1702.1 238.5,-1702.1"/>
</g>
<!-- 37 -->
<g id="node38" class="node">
<title>37</title>
<path fill="none" stroke="#56d863" stroke-width="2" d="M336,-1836C336,-1836 208,-1836 208,-1836 202,-1836 196,-1830 196,-1824 196,-1824 196,-1812 196,-1812 196,-1806 202,-1800 208,-1800 208,-1800 336,-1800 336,-1800 342,-1800 348,-1806 348,-1812 348,-1812 348,-1824 348,-1824 348,-1830 342,-1836 336,-1836"/>
<text text-anchor="middle" x="272" y="-1815.5" font-family="sans" font-size="10.00">homologs_round1_trim_tips</text>
</g>
<!-- 37&#45;&gt;36 -->
<g id="edge46" class="edge">
<title>37&#45;&gt;36</title>
<path fill="none" stroke="grey" stroke-width="2" d="M262.85,-1799.7C258.6,-1791.64 253.44,-1781.89 248.73,-1772.98"/>
<polygon fill="grey" stroke="grey" stroke-width="2" points="251.81,-1771.31 244.04,-1764.1 245.62,-1774.58 251.81,-1771.31"/>
</g>
<!-- 38 -->
<g id="node39" class="node">
<title>38</title>
<path fill="none" stroke="#d8bc56" stroke-width="2" d="M271,-2052C271,-2052 155,-2052 155,-2052 149,-2052 143,-2046 143,-2040 143,-2040 143,-2028 143,-2028 143,-2022 149,-2016 155,-2016 155,-2016 271,-2016 271,-2016 277,-2016 283,-2022 283,-2028 283,-2028 283,-2040 283,-2040 283,-2046 277,-2052 271,-2052"/>
<text text-anchor="middle" x="213" y="-2031.5" font-family="sans" font-size="10.00">homologs_round1_pxclsq</text>
</g>
<!-- 38&#45;&gt;36 -->
<g id="edge47" class="edge">
<title>38&#45;&gt;36</title>
<path fill="none" stroke="grey" stroke-width="2" d="M199.44,-2015.97C192.44,-2006.09 184.63,-1993.05 181,-1980 170.16,-1941.07 152.27,-1884.79 187,-1800 191.32,-1789.45 198.73,-1779.64 206.44,-1771.41"/>
<polygon fill="grey" stroke="grey" stroke-width="2" points="208.94,-1773.86 213.53,-1764.31 203.99,-1768.91 208.94,-1773.86"/>
</g>
<!-- 41 -->
<g id="node42" class="node">
<title>41</title>
<path fill="none" stroke="#70d856" stroke-width="2" d="M372,-1980C372,-1980 202,-1980 202,-1980 196,-1980 190,-1974 190,-1968 190,-1968 190,-1956 190,-1956 190,-1950 196,-1944 202,-1944 202,-1944 372,-1944 372,-1944 378,-1944 384,-1950 384,-1956 384,-1956 384,-1968 384,-1968 384,-1974 378,-1980 372,-1980"/>
<text text-anchor="middle" x="287" y="-1959.5" font-family="sans" font-size="10.00">homologs_round1_raxmlng_reduced</text>
</g>
<!-- 38&#45;&gt;41 -->
<g id="edge52" class="edge">
<title>38&#45;&gt;41</title>
<path fill="none" stroke="grey" stroke-width="2" d="M231.29,-2015.7C240.43,-2007.05 251.64,-1996.45 261.6,-1987.03"/>
<polygon fill="grey" stroke="grey" stroke-width="2" points="264.06,-1989.52 268.92,-1980.1 259.25,-1984.43 264.06,-1989.52"/>
</g>
<!-- 39 -->
<g id="node40" class="node">
<title>39</title>
<path fill="none" stroke="#5673d8" stroke-width="2" d="M344.5,-1908C344.5,-1908 219.5,-1908 219.5,-1908 213.5,-1908 207.5,-1902 207.5,-1896 207.5,-1896 207.5,-1884 207.5,-1884 207.5,-1878 213.5,-1872 219.5,-1872 219.5,-1872 344.5,-1872 344.5,-1872 350.5,-1872 356.5,-1878 356.5,-1884 356.5,-1884 356.5,-1896 356.5,-1896 356.5,-1902 350.5,-1908 344.5,-1908"/>
<text text-anchor="middle" x="282" y="-1887.5" font-family="sans" font-size="10.00">homologs_round1_raxmlng</text>
</g>
<!-- 39&#45;&gt;37 -->
<g id="edge48" class="edge">
<title>39&#45;&gt;37</title>
<path fill="none" stroke="grey" stroke-width="2" d="M279.53,-1871.7C278.43,-1863.98 277.1,-1854.71 275.87,-1846.11"/>
<polygon fill="grey" stroke="grey" stroke-width="2" points="279.32,-1845.51 274.44,-1836.1 272.39,-1846.5 279.32,-1845.51"/>
</g>
<!-- 40 -->
<g id="node41" class="node">
<title>40</title>
<path fill="none" stroke="#56d8c1" stroke-width="2" d="M268.5,-2124C268.5,-2124 157.5,-2124 157.5,-2124 151.5,-2124 145.5,-2118 145.5,-2112 145.5,-2112 145.5,-2100 145.5,-2100 145.5,-2094 151.5,-2088 157.5,-2088 157.5,-2088 268.5,-2088 268.5,-2088 274.5,-2088 280.5,-2094 280.5,-2100 280.5,-2100 280.5,-2112 280.5,-2112 280.5,-2118 274.5,-2124 268.5,-2124"/>
<text text-anchor="middle" x="213" y="-2103.5" font-family="sans" font-size="10.00">homologs_round1_mafft</text>
</g>
<!-- 40&#45;&gt;38 -->
<g id="edge49" class="edge">
<title>40&#45;&gt;38</title>
<path fill="none" stroke="grey" stroke-width="2" d="M213,-2087.7C213,-2079.98 213,-2070.71 213,-2062.11"/>
<polygon fill="grey" stroke="grey" stroke-width="2" points="216.5,-2062.1 213,-2052.1 209.5,-2062.1 216.5,-2062.1"/>
</g>
<!-- 41&#45;&gt;39 -->
<g id="edge50" class="edge">
<title>41&#45;&gt;39</title>
<path fill="none" stroke="grey" stroke-width="2" d="M285.76,-1943.7C285.21,-1935.98 284.55,-1926.71 283.94,-1918.11"/>
<polygon fill="grey" stroke="grey" stroke-width="2" points="287.43,-1917.83 283.22,-1908.1 280.44,-1918.33 287.43,-1917.83"/>
</g>
<!-- 42&#45;&gt;40 -->
<g id="edge51" class="edge">
<title>42&#45;&gt;40</title>
<path fill="none" stroke="grey" stroke-width="2" d="M213,-2159.7C213,-2151.98 213,-2142.71 213,-2134.11"/>
<polygon fill="grey" stroke="grey" stroke-width="2" points="216.5,-2134.1 213,-2124.1 209.5,-2134.1 216.5,-2134.1"/>
</g>
<!-- 43 -->
<g id="node44" class="node">
<title>43</title>
<path fill="none" stroke="#56d892" stroke-width="2" d="M279.5,-2268C279.5,-2268 170.5,-2268 170.5,-2268 164.5,-2268 158.5,-2262 158.5,-2256 158.5,-2256 158.5,-2244 158.5,-2244 158.5,-2238 164.5,-2232 170.5,-2232 170.5,-2232 279.5,-2232 279.5,-2232 285.5,-2232 291.5,-2238 291.5,-2244 291.5,-2244 291.5,-2256 291.5,-2256 291.5,-2262 285.5,-2268 279.5,-2268"/>
<text text-anchor="middle" x="225" y="-2247.5" font-family="sans" font-size="10.00">homologs_correct_leafs</text>
</g>
<!-- 43&#45;&gt;42 -->
<g id="edge54" class="edge">
<title>43&#45;&gt;42</title>
<path fill="none" stroke="grey" stroke-width="2" d="M222.03,-2231.7C220.71,-2223.98 219.12,-2214.71 217.65,-2206.11"/>
<polygon fill="grey" stroke="grey" stroke-width="2" points="221.07,-2205.37 215.93,-2196.1 214.17,-2206.55 221.07,-2205.37"/>
</g>
<!-- 44 -->
<g id="node45" class="node">
<title>44</title>
<path fill="none" stroke="#b6d856" stroke-width="2" d="M257.5,-2340C257.5,-2340 148.5,-2340 148.5,-2340 142.5,-2340 136.5,-2334 136.5,-2328 136.5,-2328 136.5,-2316 136.5,-2316 136.5,-2310 142.5,-2304 148.5,-2304 148.5,-2304 257.5,-2304 257.5,-2304 263.5,-2304 269.5,-2310 269.5,-2316 269.5,-2316 269.5,-2328 269.5,-2328 269.5,-2334 263.5,-2340 257.5,-2340"/>
<text text-anchor="middle" x="203" y="-2319.5" font-family="sans" font-size="10.00">orthofinder_orthologues</text>
</g>
<!-- 44&#45;&gt;43 -->
<g id="edge55" class="edge">
<title>44&#45;&gt;43</title>
<path fill="none" stroke="grey" stroke-width="2" d="M208.44,-2303.7C210.89,-2295.9 213.84,-2286.51 216.57,-2277.83"/>
<polygon fill="grey" stroke="grey" stroke-width="2" points="219.96,-2278.69 219.62,-2268.1 213.29,-2276.59 219.96,-2278.69"/>
</g>
<!-- 45 -->
<g id="node46" class="node">
<title>45</title>
<path fill="none" stroke="#d8b456" stroke-width="2" d="M234,-2412C234,-2412 158,-2412 158,-2412 152,-2412 146,-2406 146,-2400 146,-2400 146,-2388 146,-2388 146,-2382 152,-2376 158,-2376 158,-2376 234,-2376 234,-2376 240,-2376 246,-2382 246,-2388 246,-2388 246,-2400 246,-2400 246,-2406 240,-2412 234,-2412"/>
<text text-anchor="middle" x="196" y="-2391.5" font-family="sans" font-size="10.00">orthofinder_trees</text>
</g>
<!-- 45&#45;&gt;44 -->
<g id="edge56" class="edge">
<title>45&#45;&gt;44</title>
<path fill="none" stroke="grey" stroke-width="2" d="M197.73,-2375.7C198.5,-2367.98 199.43,-2358.71 200.29,-2350.11"/>
<polygon fill="grey" stroke="grey" stroke-width="2" points="203.78,-2350.4 201.29,-2340.1 196.81,-2349.71 203.78,-2350.4"/>
</g>
<!-- 46 -->
<g id="node47" class="node">
<title>46</title>
<path fill="none" stroke="#566bd8" stroke-width="2" d="M235,-2484C235,-2484 151,-2484 151,-2484 145,-2484 139,-2478 139,-2472 139,-2472 139,-2460 139,-2460 139,-2454 145,-2448 151,-2448 151,-2448 235,-2448 235,-2448 241,-2448 247,-2454 247,-2460 247,-2460 247,-2472 247,-2472 247,-2478 241,-2484 235,-2484"/>
<text text-anchor="middle" x="193" y="-2463.5" font-family="sans" font-size="10.00">orthofinder_groups</text>
</g>
<!-- 46&#45;&gt;45 -->
<g id="edge57" class="edge">
<title>46&#45;&gt;45</title>
<path fill="none" stroke="grey" stroke-width="2" d="M193.74,-2447.7C194.07,-2439.98 194.47,-2430.71 194.84,-2422.11"/>
<polygon fill="grey" stroke="grey" stroke-width="2" points="198.34,-2422.25 195.27,-2412.1 191.34,-2421.95 198.34,-2422.25"/>
</g>
<!-- 47&#45;&gt;46 -->
<g id="edge58" class="edge">
<title>47&#45;&gt;46</title>
<path fill="none" stroke="grey" stroke-width="2" d="M190.74,-2519.7C191.07,-2511.98 191.47,-2502.71 191.84,-2494.11"/>
<polygon fill="grey" stroke="grey" stroke-width="2" points="195.34,-2494.25 192.27,-2484.1 188.34,-2493.95 195.34,-2494.25"/>
</g>
</g>
</svg>
