<?xml version="1.0" encoding="UTF-8" standalone="no"?>
<!DOCTYPE svg PUBLIC "-//W3C//DTD SVG 1.1//EN"
 "http://www.w3.org/Graphics/SVG/1.1/DTD/svg11.dtd">
<!-- Generated by graphviz version 2.40.1 (20161225.0304)
 -->
<!-- Title: snakemake_dag Pages: 1 -->
<svg width="554pt" height="3860pt"
 viewBox="0.00 0.00 554.00 3860.00" xmlns="http://www.w3.org/2000/svg" xmlns:xlink="http://www.w3.org/1999/xlink">
<g id="graph0" class="graph" transform="scale(1 1) rotate(0) translate(4 3856)">
<title>snakemake_dag</title>
<polygon fill="#ffffff" stroke="transparent" points="-4,4 -4,-3856 550,-3856 550,4 -4,4"/>
<!-- 0 -->
<g id="node1" class="node">
<title>0</title>
<path fill="none" stroke="#56c1d8" stroke-width="2" d="M181,-36C181,-36 151,-36 151,-36 145,-36 139,-30 139,-24 139,-24 139,-12 139,-12 139,-6 145,0 151,0 151,0 181,0 181,0 187,0 193,-6 193,-12 193,-12 193,-24 193,-24 193,-30 187,-36 181,-36"/>
<text text-anchor="middle" x="166" y="-15.5" font-family="sans" font-size="10.00" fill="#000000">all</text>
</g>
<!-- 1 -->
<g id="node2" class="node">
<title>1</title>
<path fill="none" stroke="#56d8c9" stroke-width="2" d="M284,-108C284,-108 154,-108 154,-108 148,-108 142,-102 142,-96 142,-96 142,-84 142,-84 142,-78 148,-72 154,-72 154,-72 284,-72 284,-72 290,-72 296,-78 296,-84 296,-84 296,-96 296,-96 296,-102 290,-108 284,-108"/>
<text text-anchor="middle" x="219" y="-87.5" font-family="sans" font-size="10.00" fill="#000000">selection_fastcodeml_group</text>
</g>
<!-- 1&#45;&gt;0 -->
<g id="edge1" class="edge">
<title>1&#45;&gt;0</title>
<path fill="none" stroke="#c0c0c0" stroke-width="2" d="M205.6259,-71.8314C199.5838,-63.6232 192.3237,-53.7606 185.6779,-44.7323"/>
<polygon fill="#c0c0c0" stroke="#c0c0c0" stroke-width="2" points="188.3011,-42.3918 179.5542,-36.4133 182.6637,-46.5415 188.3011,-42.3918"/>
</g>
<!-- 2 -->
<g id="node3" class="node">
<title>2</title>
<path fill="none" stroke="#9fd856" stroke-width="2" d="M166,-540C166,-540 62,-540 62,-540 56,-540 50,-534 50,-528 50,-528 50,-516 50,-516 50,-510 56,-504 62,-504 62,-504 166,-504 166,-504 172,-504 178,-510 178,-516 178,-516 178,-528 178,-528 178,-534 172,-540 166,-540"/>
<text text-anchor="middle" x="114" y="-519.5" font-family="sans" font-size="10.00" fill="#000000">selection_speed_group</text>
</g>
<!-- 2&#45;&gt;0 -->
<g id="edge2" class="edge">
<title>2&#45;&gt;0</title>
<path fill="none" stroke="#c0c0c0" stroke-width="2" d="M114,-503.8146C114,-476.4983 114,-423.25 114,-378 114,-378 114,-378 114,-162 114,-121.1184 117.9006,-109.991 133,-72 136.6953,-62.7024 141.9372,-53.1866 147.1579,-44.7844"/>
<polygon fill="#c0c0c0" stroke="#c0c0c0" stroke-width="2" points="150.2407,-46.4628 152.7403,-36.1671 144.3658,-42.6569 150.2407,-46.4628"/>
</g>
<!-- 3 -->
<g id="node4" class="node">
<title>3</title>
<path fill="none" stroke="#5673d8" stroke-width="2" d="M202.5,-684C202.5,-684 137.5,-684 137.5,-684 131.5,-684 125.5,-678 125.5,-672 125.5,-672 125.5,-660 125.5,-660 125.5,-654 131.5,-648 137.5,-648 137.5,-648 202.5,-648 202.5,-648 208.5,-648 214.5,-654 214.5,-660 214.5,-660 214.5,-672 214.5,-672 214.5,-678 208.5,-684 202.5,-684"/>
<text text-anchor="middle" x="170" y="-663.5" font-family="sans" font-size="10.00" fill="#000000">tree_exabayes</text>
</g>
<!-- 3&#45;&gt;1 -->
<g id="edge4" class="edge">
<title>3&#45;&gt;1</title>
<path fill="none" stroke="#c0c0c0" stroke-width="2" d="M177.6347,-647.7257C188.2021,-620.7325 206,-568.3849 206,-522 206,-522 206,-522 206,-234 206,-193.7128 211.1097,-147.3414 214.9221,-118.3495"/>
<polygon fill="#c0c0c0" stroke="#c0c0c0" stroke-width="2" points="218.4313,-118.5175 216.3064,-108.138 211.4947,-117.5772 218.4313,-118.5175"/>
</g>
<!-- 3&#45;&gt;2 -->
<g id="edge5" class="edge">
<title>3&#45;&gt;2</title>
<path fill="none" stroke="#c0c0c0" stroke-width="2" d="M162.9076,-647.7623C153.2718,-622.9846 135.9611,-578.4714 124.731,-549.5939"/>
<polygon fill="#c0c0c0" stroke="#c0c0c0" stroke-width="2" points="127.9214,-548.1411 121.0349,-540.0896 121.3974,-550.6783 127.9214,-548.1411"/>
</g>
<!-- 20 -->
<g id="node21" class="node">
<title>20</title>
<path fill="none" stroke="#5673d8" stroke-width="2" d="M346,-612C346,-612 246,-612 246,-612 240,-612 234,-606 234,-600 234,-600 234,-588 234,-588 234,-582 240,-576 246,-576 246,-576 346,-576 346,-576 352,-576 358,-582 358,-588 358,-588 358,-600 358,-600 358,-606 352,-612 346,-612"/>
<text text-anchor="middle" x="296" y="-591.5" font-family="sans" font-size="10.00" fill="#000000">selection_trees_group</text>
</g>
<!-- 3&#45;&gt;20 -->
<g id="edge30" class="edge">
<title>3&#45;&gt;20</title>
<path fill="none" stroke="#c0c0c0" stroke-width="2" d="M201.7951,-647.8314C218.0605,-638.5368 238.0386,-627.1208 255.4051,-617.1971"/>
<polygon fill="#c0c0c0" stroke="#c0c0c0" stroke-width="2" points="257.2691,-620.1631 264.2151,-612.1628 253.7961,-614.0854 257.2691,-620.1631"/>
</g>
<!-- 4 -->
<g id="node5" class="node">
<title>4</title>
<path fill="none" stroke="#566bd8" stroke-width="2" d="M371.5,-180C371.5,-180 250.5,-180 250.5,-180 244.5,-180 238.5,-174 238.5,-168 238.5,-168 238.5,-156 238.5,-156 238.5,-150 244.5,-144 250.5,-144 250.5,-144 371.5,-144 371.5,-144 377.5,-144 383.5,-150 383.5,-156 383.5,-156 383.5,-168 383.5,-168 383.5,-174 377.5,-180 371.5,-180"/>
<text text-anchor="middle" x="311" y="-159.5" font-family="sans" font-size="10.00" fill="#000000">selection_maxalign_group</text>
</g>
<!-- 4&#45;&gt;1 -->
<g id="edge3" class="edge">
<title>4&#45;&gt;1</title>
<path fill="none" stroke="#c0c0c0" stroke-width="2" d="M287.7845,-143.8314C276.453,-134.9632 262.6536,-124.1637 250.3973,-114.5718"/>
<polygon fill="#c0c0c0" stroke="#c0c0c0" stroke-width="2" points="252.2402,-111.5697 242.2081,-108.1628 247.926,-117.0822 252.2402,-111.5697"/>
</g>
<!-- 5 -->
<g id="node6" class="node">
<title>5</title>
<path fill="none" stroke="#ced856" stroke-width="2" d="M304.5,-756C304.5,-756 205.5,-756 205.5,-756 199.5,-756 193.5,-750 193.5,-744 193.5,-744 193.5,-732 193.5,-732 193.5,-726 199.5,-720 205.5,-720 205.5,-720 304.5,-720 304.5,-720 310.5,-720 316.5,-726 316.5,-732 316.5,-732 316.5,-744 316.5,-744 316.5,-750 310.5,-756 304.5,-756"/>
<text text-anchor="middle" x="255" y="-735.5" font-family="sans" font-size="10.00" fill="#000000">tree_exabayes_config</text>
</g>
<!-- 5&#45;&gt;3 -->
<g id="edge8" class="edge">
<title>5&#45;&gt;3</title>
<path fill="none" stroke="#c0c0c0" stroke-width="2" d="M233.5509,-719.8314C223.1822,-711.0485 210.5771,-700.3712 199.3354,-690.8489"/>
<polygon fill="#c0c0c0" stroke="#c0c0c0" stroke-width="2" points="201.3349,-687.9556 191.4422,-684.1628 196.8105,-693.297 201.3349,-687.9556"/>
</g>
<!-- 6 -->
<g id="node7" class="node">
<title>6</title>
<path fill="none" stroke="#afd856" stroke-width="2" d="M171,-900C171,-900 133,-900 133,-900 127,-900 121,-894 121,-888 121,-888 121,-876 121,-876 121,-870 127,-864 133,-864 133,-864 171,-864 171,-864 177,-864 183,-870 183,-876 183,-876 183,-888 183,-888 183,-894 177,-900 171,-900"/>
<text text-anchor="middle" x="152" y="-879.5" font-family="sans" font-size="10.00" fill="#000000">tree_trim</text>
</g>
<!-- 6&#45;&gt;3 -->
<g id="edge6" class="edge">
<title>6&#45;&gt;3</title>
<path fill="none" stroke="#c0c0c0" stroke-width="2" d="M133.8281,-863.9168C105.4063,-833.3495 56.4013,-769.9177 84,-720 91.3467,-706.712 103.4839,-696.253 116.3567,-688.2235"/>
<polygon fill="#c0c0c0" stroke="#c0c0c0" stroke-width="2" points="118.4202,-691.0739 125.3363,-683.0478 114.9246,-685.0092 118.4202,-691.0739"/>
</g>
<!-- 7 -->
<g id="node8" class="node">
<title>7</title>
<path fill="none" stroke="#56d8d8" stroke-width="2" d="M163,-756C163,-756 105,-756 105,-756 99,-756 93,-750 93,-744 93,-744 93,-732 93,-732 93,-726 99,-720 105,-720 105,-720 163,-720 163,-720 169,-720 175,-726 175,-732 175,-732 175,-744 175,-744 175,-750 169,-756 163,-756"/>
<text text-anchor="middle" x="134" y="-735.5" font-family="sans" font-size="10.00" fill="#000000">tree_raxmlng</text>
</g>
<!-- 6&#45;&gt;7 -->
<g id="edge12" class="edge">
<title>6&#45;&gt;7</title>
<path fill="none" stroke="#c0c0c0" stroke-width="2" d="M146.2378,-863.7031C143.2319,-853.3377 139.8121,-840.0677 138,-828 134.9082,-807.4095 133.9503,-783.8961 133.743,-766.0678"/>
<polygon fill="#c0c0c0" stroke="#c0c0c0" stroke-width="2" points="137.243,-766.0204 133.6979,-756.0363 130.243,-766.052 137.243,-766.0204"/>
</g>
<!-- 10 -->
<g id="node11" class="node">
<title>10</title>
<path fill="none" stroke="#d8b456" stroke-width="2" d="M238.5,-828C238.5,-828 159.5,-828 159.5,-828 153.5,-828 147.5,-822 147.5,-816 147.5,-816 147.5,-804 147.5,-804 147.5,-798 153.5,-792 159.5,-792 159.5,-792 238.5,-792 238.5,-792 244.5,-792 250.5,-798 250.5,-804 250.5,-804 250.5,-816 250.5,-816 250.5,-822 244.5,-828 238.5,-828"/>
<text text-anchor="middle" x="199" y="-807.5" font-family="sans" font-size="10.00" fill="#000000">tree_modeltestng</text>
</g>
<!-- 6&#45;&gt;10 -->
<g id="edge15" class="edge">
<title>6&#45;&gt;10</title>
<path fill="none" stroke="#c0c0c0" stroke-width="2" d="M163.8601,-863.8314C169.1629,-855.7079 175.5237,-845.9637 181.3673,-837.0118"/>
<polygon fill="#c0c0c0" stroke="#c0c0c0" stroke-width="2" points="184.4448,-838.7003 186.9802,-828.4133 178.5831,-834.8739 184.4448,-838.7003"/>
</g>
<!-- 7&#45;&gt;3 -->
<g id="edge7" class="edge">
<title>7&#45;&gt;3</title>
<path fill="none" stroke="#c0c0c0" stroke-width="2" d="M143.0843,-719.8314C147.0615,-711.8771 151.8155,-702.369 156.2139,-693.5723"/>
<polygon fill="#c0c0c0" stroke="#c0c0c0" stroke-width="2" points="159.4517,-694.9228 160.7934,-684.4133 153.1907,-691.7923 159.4517,-694.9228"/>
</g>
<!-- 8 -->
<g id="node9" class="node">
<title>8</title>
<path fill="none" stroke="#80d856" stroke-width="2" d="M381,-252C381,-252 277,-252 277,-252 271,-252 265,-246 265,-240 265,-240 265,-228 265,-228 265,-222 271,-216 277,-216 277,-216 381,-216 381,-216 387,-216 393,-222 393,-228 393,-228 393,-240 393,-240 393,-246 387,-252 381,-252"/>
<text text-anchor="middle" x="329" y="-231.5" font-family="sans" font-size="10.00" fill="#000000">selection_trimal_group</text>
</g>
<!-- 8&#45;&gt;4 -->
<g id="edge9" class="edge">
<title>8&#45;&gt;4</title>
<path fill="none" stroke="#c0c0c0" stroke-width="2" d="M324.4578,-215.8314C322.5116,-208.0463 320.1932,-198.7729 318.0337,-190.1347"/>
<polygon fill="#c0c0c0" stroke="#c0c0c0" stroke-width="2" points="321.4242,-189.2658 315.6033,-180.4133 314.6332,-190.9636 321.4242,-189.2658"/>
</g>
<!-- 9 -->
<g id="node10" class="node">
<title>9</title>
<path fill="none" stroke="#d87d56" stroke-width="2" d="M238.5,-972C238.5,-972 161.5,-972 161.5,-972 155.5,-972 149.5,-966 149.5,-960 149.5,-960 149.5,-948 149.5,-948 149.5,-942 155.5,-936 161.5,-936 161.5,-936 238.5,-936 238.5,-936 244.5,-936 250.5,-942 250.5,-948 250.5,-948 250.5,-960 250.5,-960 250.5,-966 244.5,-972 238.5,-972"/>
<text text-anchor="middle" x="200" y="-951.5" font-family="sans" font-size="10.00" fill="#000000">tree_supermatrix</text>
</g>
<!-- 9&#45;&gt;6 -->
<g id="edge10" class="edge">
<title>9&#45;&gt;6</title>
<path fill="none" stroke="#c0c0c0" stroke-width="2" d="M187.8876,-935.8314C182.4719,-927.7079 175.9758,-917.9637 170.0079,-909.0118"/>
<polygon fill="#c0c0c0" stroke="#c0c0c0" stroke-width="2" points="172.7347,-906.7923 164.2755,-900.4133 166.9104,-910.6753 172.7347,-906.7923"/>
</g>
<!-- 10&#45;&gt;7 -->
<g id="edge11" class="edge">
<title>10&#45;&gt;7</title>
<path fill="none" stroke="#c0c0c0" stroke-width="2" d="M182.5978,-791.8314C174.9585,-783.3694 165.7317,-773.1489 157.3793,-763.8971"/>
<polygon fill="#c0c0c0" stroke="#c0c0c0" stroke-width="2" points="159.9221,-761.4906 150.6231,-756.4133 154.7262,-766.1813 159.9221,-761.4906"/>
</g>
<!-- 11 -->
<g id="node12" class="node">
<title>11</title>
<path fill="none" stroke="#56c9d8" stroke-width="2" d="M390.5,-324C390.5,-324 271.5,-324 271.5,-324 265.5,-324 259.5,-318 259.5,-312 259.5,-312 259.5,-300 259.5,-300 259.5,-294 265.5,-288 271.5,-288 271.5,-288 390.5,-288 390.5,-288 396.5,-288 402.5,-294 402.5,-300 402.5,-300 402.5,-312 402.5,-312 402.5,-318 396.5,-324 390.5,-324"/>
<text text-anchor="middle" x="331" y="-303.5" font-family="sans" font-size="10.00" fill="#000000">selection_guidance_group</text>
</g>
<!-- 11&#45;&gt;8 -->
<g id="edge13" class="edge">
<title>11&#45;&gt;8</title>
<path fill="none" stroke="#c0c0c0" stroke-width="2" d="M330.4953,-287.8314C330.2814,-280.131 330.0271,-270.9743 329.7894,-262.4166"/>
<polygon fill="#c0c0c0" stroke="#c0c0c0" stroke-width="2" points="333.2879,-262.3122 329.5115,-252.4133 326.2906,-262.5066 333.2879,-262.3122"/>
</g>
<!-- 12 -->
<g id="node13" class="node">
<title>12</title>
<path fill="none" stroke="#68d856" stroke-width="2" d="M299.5,-1044C299.5,-1044 244.5,-1044 244.5,-1044 238.5,-1044 232.5,-1038 232.5,-1032 232.5,-1032 232.5,-1020 232.5,-1020 232.5,-1014 238.5,-1008 244.5,-1008 244.5,-1008 299.5,-1008 299.5,-1008 305.5,-1008 311.5,-1014 311.5,-1020 311.5,-1020 311.5,-1032 311.5,-1032 311.5,-1038 305.5,-1044 299.5,-1044"/>
<text text-anchor="middle" x="272" y="-1023.5" font-family="sans" font-size="10.00" fill="#000000">tree_prepare</text>
</g>
<!-- 12&#45;&gt;9 -->
<g id="edge14" class="edge">
<title>12&#45;&gt;9</title>
<path fill="none" stroke="#c0c0c0" stroke-width="2" d="M253.8314,-1007.8314C245.2848,-999.2848 234.9443,-988.9443 225.6198,-979.6198"/>
<polygon fill="#c0c0c0" stroke="#c0c0c0" stroke-width="2" points="227.9592,-977.0095 218.4133,-972.4133 223.0095,-981.9592 227.9592,-977.0095"/>
</g>
<!-- 13 -->
<g id="node14" class="node">
<title>13</title>
<path fill="none" stroke="#56b1d8" stroke-width="2" d="M415.5,-396C415.5,-396 284.5,-396 284.5,-396 278.5,-396 272.5,-390 272.5,-384 272.5,-384 272.5,-372 272.5,-372 272.5,-366 278.5,-360 284.5,-360 284.5,-360 415.5,-360 415.5,-360 421.5,-360 427.5,-366 427.5,-372 427.5,-372 427.5,-384 427.5,-384 427.5,-390 421.5,-396 415.5,-396"/>
<text text-anchor="middle" x="350" y="-375.5" font-family="sans" font-size="10.00" fill="#000000">selection_cds_filtered_group</text>
</g>
<!-- 13&#45;&gt;11 -->
<g id="edge16" class="edge">
<title>13&#45;&gt;11</title>
<path fill="none" stroke="#c0c0c0" stroke-width="2" d="M345.2055,-359.8314C343.1511,-352.0463 340.704,-342.7729 338.4244,-334.1347"/>
<polygon fill="#c0c0c0" stroke="#c0c0c0" stroke-width="2" points="341.7948,-333.1892 335.8591,-324.4133 335.0265,-334.9753 341.7948,-333.1892"/>
</g>
<!-- 14 -->
<g id="node15" class="node">
<title>14</title>
<path fill="none" stroke="#567bd8" stroke-width="2" d="M299.5,-1116C299.5,-1116 264.5,-1116 264.5,-1116 258.5,-1116 252.5,-1110 252.5,-1104 252.5,-1104 252.5,-1092 252.5,-1092 252.5,-1086 258.5,-1080 264.5,-1080 264.5,-1080 299.5,-1080 299.5,-1080 305.5,-1080 311.5,-1086 311.5,-1092 311.5,-1092 311.5,-1104 311.5,-1104 311.5,-1110 305.5,-1116 299.5,-1116"/>
<text text-anchor="middle" x="282" y="-1095.5" font-family="sans" font-size="10.00" fill="#000000">tree_4ds</text>
</g>
<!-- 14&#45;&gt;12 -->
<g id="edge17" class="edge">
<title>14&#45;&gt;12</title>
<path fill="none" stroke="#c0c0c0" stroke-width="2" d="M279.4766,-1079.8314C278.4071,-1072.131 277.1353,-1062.9743 275.9468,-1054.4166"/>
<polygon fill="#c0c0c0" stroke="#c0c0c0" stroke-width="2" points="279.3999,-1053.8367 274.5574,-1044.4133 272.4664,-1054.7997 279.3999,-1053.8367"/>
</g>
<!-- 15 -->
<g id="node16" class="node">
<title>15</title>
<path fill="none" stroke="#d86656" stroke-width="2" d="M521,-2196C521,-2196 435,-2196 435,-2196 429,-2196 423,-2190 423,-2184 423,-2184 423,-2172 423,-2172 423,-2166 429,-2160 435,-2160 435,-2160 521,-2160 521,-2160 527,-2160 533,-2166 533,-2172 533,-2172 533,-2184 533,-2184 533,-2190 527,-2196 521,-2196"/>
<text text-anchor="middle" x="478" y="-2175.5" font-family="sans" font-size="10.00" fill="#000000">homologs_join_cds</text>
</g>
<!-- 15&#45;&gt;13 -->
<g id="edge19" class="edge">
<title>15&#45;&gt;13</title>
<path fill="none" stroke="#c0c0c0" stroke-width="2" d="M478,-2159.8146C478,-2132.4983 478,-2079.25 478,-2034 478,-2034 478,-2034 478,-522 478,-478.7517 469.2773,-464.7233 441,-432 430.3586,-419.6855 416.1839,-409.427 402.1961,-401.2764"/>
<polygon fill="#c0c0c0" stroke="#c0c0c0" stroke-width="2" points="403.5141,-398.0056 393.07,-396.2243 400.1237,-404.1298 403.5141,-398.0056"/>
</g>
<!-- 34 -->
<g id="node35" class="node">
<title>34</title>
<path fill="none" stroke="#56d8a2" stroke-width="2" d="M363,-2124C363,-2124 253,-2124 253,-2124 247,-2124 241,-2118 241,-2112 241,-2112 241,-2100 241,-2100 241,-2094 247,-2088 253,-2088 253,-2088 363,-2088 363,-2088 369,-2088 375,-2094 375,-2100 375,-2100 375,-2112 375,-2112 375,-2118 369,-2124 363,-2124"/>
<text text-anchor="middle" x="308" y="-2103.5" font-family="sans" font-size="10.00" fill="#000000">homologs_refine1_fasta</text>
</g>
<!-- 15&#45;&gt;34 -->
<g id="edge47" class="edge">
<title>15&#45;&gt;34</title>
<path fill="none" stroke="#c0c0c0" stroke-width="2" d="M435.1018,-2159.8314C412.2643,-2150.159 384.002,-2138.1891 359.9313,-2127.9944"/>
<polygon fill="#c0c0c0" stroke="#c0c0c0" stroke-width="2" points="361.1629,-2124.7151 350.5897,-2124.038 358.4329,-2131.1608 361.1629,-2124.7151"/>
</g>
<!-- 16 -->
<g id="node17" class="node">
<title>16</title>
<path fill="none" stroke="#56a9d8" stroke-width="2" d="M420,-468C420,-468 280,-468 280,-468 274,-468 268,-462 268,-456 268,-456 268,-444 268,-444 268,-438 274,-432 280,-432 280,-432 420,-432 420,-432 426,-432 432,-438 432,-444 432,-444 432,-456 432,-456 432,-462 426,-468 420,-468"/>
<text text-anchor="middle" x="350" y="-447.5" font-family="sans" font-size="10.00" fill="#000000">selection_trees_filtered_group</text>
</g>
<!-- 16&#45;&gt;13 -->
<g id="edge18" class="edge">
<title>16&#45;&gt;13</title>
<path fill="none" stroke="#c0c0c0" stroke-width="2" d="M350,-431.8314C350,-424.131 350,-414.9743 350,-406.4166"/>
<polygon fill="#c0c0c0" stroke="#c0c0c0" stroke-width="2" points="353.5001,-406.4132 350,-396.4133 346.5001,-406.4133 353.5001,-406.4132"/>
</g>
<!-- 17 -->
<g id="node18" class="node">
<title>17</title>
<path fill="none" stroke="#78d856" stroke-width="2" d="M376.5,-1188C376.5,-1188 245.5,-1188 245.5,-1188 239.5,-1188 233.5,-1182 233.5,-1176 233.5,-1176 233.5,-1164 233.5,-1164 233.5,-1158 239.5,-1152 245.5,-1152 245.5,-1152 376.5,-1152 376.5,-1152 382.5,-1152 388.5,-1158 388.5,-1164 388.5,-1164 388.5,-1176 388.5,-1176 388.5,-1182 382.5,-1188 376.5,-1188"/>
<text text-anchor="middle" x="311" y="-1167.5" font-family="sans" font-size="10.00" fill="#000000">homologs_refine2_maxalign</text>
</g>
<!-- 17&#45;&gt;14 -->
<g id="edge20" class="edge">
<title>17&#45;&gt;14</title>
<path fill="none" stroke="#c0c0c0" stroke-width="2" d="M303.6821,-1151.8314C300.5124,-1143.9617 296.73,-1134.5712 293.2187,-1125.8533"/>
<polygon fill="#c0c0c0" stroke="#c0c0c0" stroke-width="2" points="296.3992,-1124.3815 289.4165,-1116.4133 289.9061,-1126.9968 296.3992,-1124.3815"/>
</g>
<!-- 19 -->
<g id="node20" class="node">
<title>19</title>
<path fill="none" stroke="#56d86b" stroke-width="2" d="M433.5,-540C433.5,-540 336.5,-540 336.5,-540 330.5,-540 324.5,-534 324.5,-528 324.5,-528 324.5,-516 324.5,-516 324.5,-510 330.5,-504 336.5,-504 336.5,-504 433.5,-504 433.5,-504 439.5,-504 445.5,-510 445.5,-516 445.5,-516 445.5,-528 445.5,-528 445.5,-534 439.5,-540 433.5,-540"/>
<text text-anchor="middle" x="385" y="-519.5" font-family="sans" font-size="10.00" fill="#000000">selection_ete3_group</text>
</g>
<!-- 17&#45;&gt;19 -->
<g id="edge27" class="edge">
<title>17&#45;&gt;19</title>
<path fill="none" stroke="#c0c0c0" stroke-width="2" d="M328.0187,-1151.5779C350.1468,-1125.6309 386,-1075.8921 386,-1026 386,-1026 386,-1026 386,-666 386,-625.875 385.6069,-579.4624 385.3137,-550.4173"/>
<polygon fill="#c0c0c0" stroke="#c0c0c0" stroke-width="2" points="388.8112,-550.1481 385.2072,-540.1851 381.8115,-550.221 388.8112,-550.1481"/>
</g>
<!-- 17&#45;&gt;20 -->
<g id="edge29" class="edge">
<title>17&#45;&gt;20</title>
<path fill="none" stroke="#c0c0c0" stroke-width="2" d="M318.2105,-1151.6867C328.1909,-1124.6448 345,-1072.2373 345,-1026 345,-1026 345,-1026 345,-738 345,-695.531 325.6626,-649.5922 311.2835,-621.303"/>
<polygon fill="#c0c0c0" stroke="#c0c0c0" stroke-width="2" points="314.3705,-619.6532 306.6323,-612.4164 308.1686,-622.8993 314.3705,-619.6532"/>
</g>
<!-- 18 -->
<g id="node19" class="node">
<title>18</title>
<path fill="none" stroke="#56d0d8" stroke-width="2" d="M514,-2268C514,-2268 448,-2268 448,-2268 442,-2268 436,-2262 436,-2256 436,-2256 436,-2244 436,-2244 436,-2238 442,-2232 448,-2232 448,-2232 514,-2232 514,-2232 520,-2232 526,-2238 526,-2244 526,-2244 526,-2256 526,-2256 526,-2262 520,-2268 514,-2268"/>
<text text-anchor="middle" x="481" y="-2247.5" font-family="sans" font-size="10.00" fill="#000000">cdhit_filter_cds</text>
</g>
<!-- 18&#45;&gt;15 -->
<g id="edge21" class="edge">
<title>18&#45;&gt;15</title>
<path fill="none" stroke="#c0c0c0" stroke-width="2" d="M480.243,-2231.8314C479.9221,-2224.131 479.5406,-2214.9743 479.184,-2206.4166"/>
<polygon fill="#c0c0c0" stroke="#c0c0c0" stroke-width="2" points="482.6806,-2206.2589 478.7672,-2196.4133 475.6867,-2206.5503 482.6806,-2206.2589"/>
</g>
<!-- 19&#45;&gt;16 -->
<g id="edge23" class="edge">
<title>19&#45;&gt;16</title>
<path fill="none" stroke="#c0c0c0" stroke-width="2" d="M376.168,-503.8314C372.3014,-495.8771 367.6794,-486.369 363.4032,-477.5723"/>
<polygon fill="#c0c0c0" stroke="#c0c0c0" stroke-width="2" points="366.4707,-475.8768 358.9509,-468.4133 360.1751,-478.9371 366.4707,-475.8768"/>
</g>
<!-- 20&#45;&gt;16 -->
<g id="edge22" class="edge">
<title>20&#45;&gt;16</title>
<path fill="none" stroke="#c0c0c0" stroke-width="2" d="M298.168,-575.8625C300.8128,-557.2848 306.1955,-527.8319 316,-504 319.8791,-494.5711 325.3632,-484.9426 330.7971,-476.4767"/>
<polygon fill="#c0c0c0" stroke="#c0c0c0" stroke-width="2" points="333.727,-478.3915 336.3721,-468.1322 327.9065,-474.5028 333.727,-478.3915"/>
</g>
<!-- 20&#45;&gt;19 -->
<g id="edge28" class="edge">
<title>20&#45;&gt;19</title>
<path fill="none" stroke="#c0c0c0" stroke-width="2" d="M318.4585,-575.8314C329.4205,-566.9632 342.7699,-556.1637 354.6265,-546.5718"/>
<polygon fill="#c0c0c0" stroke="#c0c0c0" stroke-width="2" points="356.9755,-549.1734 362.5487,-540.1628 352.5729,-543.7313 356.9755,-549.1734"/>
</g>
<!-- 21 -->
<g id="node22" class="node">
<title>21</title>
<path fill="none" stroke="#c6d856" stroke-width="2" d="M317.5,-1260C317.5,-1260 212.5,-1260 212.5,-1260 206.5,-1260 200.5,-1254 200.5,-1248 200.5,-1248 200.5,-1236 200.5,-1236 200.5,-1230 206.5,-1224 212.5,-1224 212.5,-1224 317.5,-1224 317.5,-1224 323.5,-1224 329.5,-1230 329.5,-1236 329.5,-1236 329.5,-1248 329.5,-1248 329.5,-1254 323.5,-1260 317.5,-1260"/>
<text text-anchor="middle" x="265" y="-1239.5" font-family="sans" font-size="10.00" fill="#000000">homologs_refine2_trim</text>
</g>
<!-- 21&#45;&gt;17 -->
<g id="edge24" class="edge">
<title>21&#45;&gt;17</title>
<path fill="none" stroke="#c0c0c0" stroke-width="2" d="M276.6077,-1223.8314C281.7978,-1215.7079 288.0232,-1205.9637 293.7425,-1197.0118"/>
<polygon fill="#c0c0c0" stroke="#c0c0c0" stroke-width="2" points="296.8015,-1198.7246 299.236,-1188.4133 290.9026,-1194.9559 296.8015,-1198.7246"/>
</g>
<!-- 22 -->
<g id="node23" class="node">
<title>22</title>
<path fill="none" stroke="#c6d856" stroke-width="2" d="M534,-2340C534,-2340 478,-2340 478,-2340 472,-2340 466,-2334 466,-2328 466,-2328 466,-2316 466,-2316 466,-2310 472,-2304 478,-2304 478,-2304 534,-2304 534,-2304 540,-2304 546,-2310 546,-2316 546,-2316 546,-2328 546,-2328 546,-2334 540,-2340 534,-2340"/>
<text text-anchor="middle" x="506" y="-2319.5" font-family="sans" font-size="10.00" fill="#000000">raw_link_cds</text>
</g>
<!-- 22&#45;&gt;18 -->
<g id="edge25" class="edge">
<title>22&#45;&gt;18</title>
<path fill="none" stroke="#c0c0c0" stroke-width="2" d="M499.6914,-2303.8314C496.9883,-2296.0463 493.7684,-2286.7729 490.769,-2278.1347"/>
<polygon fill="#c0c0c0" stroke="#c0c0c0" stroke-width="2" points="493.98,-2276.7119 487.3935,-2268.4133 487.3673,-2279.0081 493.98,-2276.7119"/>
</g>
<!-- 23 -->
<g id="node24" class="node">
<title>23</title>
<path fill="none" stroke="#d8ac56" stroke-width="2" d="M462.5,-3708C462.5,-3708 401.5,-3708 401.5,-3708 395.5,-3708 389.5,-3702 389.5,-3696 389.5,-3696 389.5,-3684 389.5,-3684 389.5,-3678 395.5,-3672 401.5,-3672 401.5,-3672 462.5,-3672 462.5,-3672 468.5,-3672 474.5,-3678 474.5,-3684 474.5,-3684 474.5,-3696 474.5,-3696 474.5,-3702 468.5,-3708 462.5,-3708"/>
<text text-anchor="middle" x="432" y="-3687.5" font-family="sans" font-size="10.00" fill="#000000">generic_index</text>
</g>
<!-- 23&#45;&gt;18 -->
<g id="edge26" class="edge">
<title>23&#45;&gt;18</title>
<path fill="none" stroke="#c0c0c0" stroke-width="2" d="M433.2432,-3671.8247C435.0006,-3644.5213 438,-3591.2893 438,-3546 438,-3546 438,-3546 438,-2394 438,-2351.9897 455.0108,-2305.8592 467.6339,-2277.4108"/>
<polygon fill="#c0c0c0" stroke="#c0c0c0" stroke-width="2" points="470.906,-2278.6713 471.8808,-2268.1214 464.5398,-2275.7607 470.906,-2278.6713"/>
</g>
<!-- 24 -->
<g id="node25" class="node">
<title>24</title>
<path fill="none" stroke="#56a2d8" stroke-width="2" d="M337.5,-1332C337.5,-1332 146.5,-1332 146.5,-1332 140.5,-1332 134.5,-1326 134.5,-1320 134.5,-1320 134.5,-1308 134.5,-1308 134.5,-1302 140.5,-1296 146.5,-1296 146.5,-1296 337.5,-1296 337.5,-1296 343.5,-1296 349.5,-1302 349.5,-1308 349.5,-1308 349.5,-1320 349.5,-1320 349.5,-1326 343.5,-1332 337.5,-1332"/>
<text text-anchor="middle" x="242" y="-1311.5" font-family="sans" font-size="10.00" fill="#000000">homologs_refine2_tcoffee_backtranslate</text>
</g>
<!-- 24&#45;&gt;21 -->
<g id="edge31" class="edge">
<title>24&#45;&gt;21</title>
<path fill="none" stroke="#c0c0c0" stroke-width="2" d="M247.8039,-1295.8314C250.2908,-1288.0463 253.2531,-1278.7729 256.0125,-1270.1347"/>
<polygon fill="#c0c0c0" stroke="#c0c0c0" stroke-width="2" points="259.409,-1271.0041 259.118,-1260.4133 252.7409,-1268.874 259.409,-1271.0041"/>
</g>
<!-- 25 -->
<g id="node26" class="node">
<title>25</title>
<path fill="none" stroke="#d88d56" stroke-width="2" d="M319,-3780C319,-3780 279,-3780 279,-3780 273,-3780 267,-3774 267,-3768 267,-3768 267,-3756 267,-3756 267,-3750 273,-3744 279,-3744 279,-3744 319,-3744 319,-3744 325,-3744 331,-3750 331,-3756 331,-3756 331,-3768 331,-3768 331,-3774 325,-3780 319,-3780"/>
<text text-anchor="middle" x="299" y="-3759.5" font-family="sans" font-size="10.00" fill="#000000">cdhit_pep</text>
</g>
<!-- 25&#45;&gt;23 -->
<g id="edge32" class="edge">
<title>25&#45;&gt;23</title>
<path fill="none" stroke="#c0c0c0" stroke-width="2" d="M331.1956,-3744.5708C348.7695,-3735.0571 370.745,-3723.1606 389.6885,-3712.9055"/>
<polygon fill="#c0c0c0" stroke="#c0c0c0" stroke-width="2" points="391.5841,-3715.8593 398.712,-3708.0206 388.2516,-3709.7034 391.5841,-3715.8593"/>
</g>
<!-- 48 -->
<g id="node49" class="node">
<title>48</title>
<path fill="none" stroke="#56d8d8" stroke-width="2" d="M202.5,-3420C202.5,-3420 115.5,-3420 115.5,-3420 109.5,-3420 103.5,-3414 103.5,-3408 103.5,-3408 103.5,-3396 103.5,-3396 103.5,-3390 109.5,-3384 115.5,-3384 115.5,-3384 202.5,-3384 202.5,-3384 208.5,-3384 214.5,-3390 214.5,-3396 214.5,-3396 214.5,-3408 214.5,-3408 214.5,-3414 208.5,-3420 202.5,-3420"/>
<text text-anchor="middle" x="159" y="-3399.5" font-family="sans" font-size="10.00" fill="#000000">homologs_join_pep</text>
</g>
<!-- 25&#45;&gt;48 -->
<g id="edge63" class="edge">
<title>25&#45;&gt;48</title>
<path fill="none" stroke="#c0c0c0" stroke-width="2" d="M270.0786,-3743.978C235.4316,-3719.897 182,-3673.7263 182,-3618 182,-3618 182,-3618 182,-3546 182,-3505.1884 172.88,-3458.6758 166.1257,-3429.8247"/>
<polygon fill="#c0c0c0" stroke="#c0c0c0" stroke-width="2" points="169.5124,-3428.9385 163.7656,-3420.0377 162.7075,-3430.5796 169.5124,-3428.9385"/>
</g>
<!-- 61 -->
<g id="node62" class="node">
<title>61</title>
<path fill="none" stroke="#567bd8" stroke-width="2" d="M348,-3708C348,-3708 250,-3708 250,-3708 244,-3708 238,-3702 238,-3696 238,-3696 238,-3684 238,-3684 238,-3678 244,-3672 250,-3672 250,-3672 348,-3672 348,-3672 354,-3672 360,-3678 360,-3684 360,-3684 360,-3696 360,-3696 360,-3702 354,-3708 348,-3708"/>
<text text-anchor="middle" x="299" y="-3687.5" font-family="sans" font-size="10.00" fill="#000000">orthofinder_parse_ids</text>
</g>
<!-- 25&#45;&gt;61 -->
<g id="edge78" class="edge">
<title>25&#45;&gt;61</title>
<path fill="none" stroke="#c0c0c0" stroke-width="2" d="M299,-3743.8314C299,-3736.131 299,-3726.9743 299,-3718.4166"/>
<polygon fill="#c0c0c0" stroke="#c0c0c0" stroke-width="2" points="302.5001,-3718.4132 299,-3708.4133 295.5001,-3718.4133 302.5001,-3718.4132"/>
</g>
<!-- 26 -->
<g id="node27" class="node">
<title>26</title>
<path fill="none" stroke="#d87556" stroke-width="2" d="M282,-1620C282,-1620 172,-1620 172,-1620 166,-1620 160,-1614 160,-1608 160,-1608 160,-1596 160,-1596 160,-1590 166,-1584 172,-1584 172,-1584 282,-1584 282,-1584 288,-1584 294,-1590 294,-1596 294,-1596 294,-1608 294,-1608 294,-1614 288,-1620 282,-1620"/>
<text text-anchor="middle" x="227" y="-1599.5" font-family="sans" font-size="10.00" fill="#000000">homologs_refine2_fasta</text>
</g>
<!-- 26&#45;&gt;24 -->
<g id="edge33" class="edge">
<title>26&#45;&gt;24</title>
<path fill="none" stroke="#c0c0c0" stroke-width="2" d="M220.1805,-1583.7996C216.6719,-1573.4645 212.7683,-1560.1925 211,-1548 200.2183,-1473.6596 220.7706,-1385.8068 233.3123,-1341.907"/>
<polygon fill="#c0c0c0" stroke="#c0c0c0" stroke-width="2" points="236.6957,-1342.8068 236.1539,-1332.2259 229.9791,-1340.8353 236.6957,-1342.8068"/>
</g>
<!-- 31 -->
<g id="node32" class="node">
<title>31</title>
<path fill="none" stroke="#56d89a" stroke-width="2" d="M399.5,-1548C399.5,-1548 232.5,-1548 232.5,-1548 226.5,-1548 220.5,-1542 220.5,-1536 220.5,-1536 220.5,-1524 220.5,-1524 220.5,-1518 226.5,-1512 232.5,-1512 232.5,-1512 399.5,-1512 399.5,-1512 405.5,-1512 411.5,-1518 411.5,-1524 411.5,-1524 411.5,-1536 411.5,-1536 411.5,-1542 405.5,-1548 399.5,-1548"/>
<text text-anchor="middle" x="316" y="-1527.5" font-family="sans" font-size="10.00" fill="#000000">homologs_refine2_tcoffee_translate</text>
</g>
<!-- 26&#45;&gt;31 -->
<g id="edge41" class="edge">
<title>26&#45;&gt;31</title>
<path fill="none" stroke="#c0c0c0" stroke-width="2" d="M249.4585,-1583.8314C260.4205,-1574.9632 273.7699,-1564.1637 285.6265,-1554.5718"/>
<polygon fill="#c0c0c0" stroke="#c0c0c0" stroke-width="2" points="287.9755,-1557.1734 293.5487,-1548.1628 283.5729,-1551.7313 287.9755,-1557.1734"/>
</g>
<!-- 27 -->
<g id="node28" class="node">
<title>27</title>
<path fill="none" stroke="#97d856" stroke-width="2" d="M390,-1476C390,-1476 242,-1476 242,-1476 236,-1476 230,-1470 230,-1464 230,-1464 230,-1452 230,-1452 230,-1446 236,-1440 242,-1440 242,-1440 390,-1440 390,-1440 396,-1440 402,-1446 402,-1452 402,-1452 402,-1464 402,-1464 402,-1470 396,-1476 390,-1476"/>
<text text-anchor="middle" x="316" y="-1455.5" font-family="sans" font-size="10.00" fill="#000000">homologs_refine2_tcoffee_align</text>
</g>
<!-- 27&#45;&gt;24 -->
<g id="edge35" class="edge">
<title>27&#45;&gt;24</title>
<path fill="none" stroke="#c0c0c0" stroke-width="2" d="M283.3066,-1439.7722C270.3546,-1430.771 256.7315,-1418.6704 249,-1404 239.0439,-1385.1084 237.7031,-1360.8304 238.6271,-1342.2518"/>
<polygon fill="#c0c0c0" stroke="#c0c0c0" stroke-width="2" points="242.134,-1342.2874 239.3848,-1332.0554 235.1532,-1341.7685 242.134,-1342.2874"/>
</g>
<!-- 28 -->
<g id="node29" class="node">
<title>28</title>
<path fill="none" stroke="#a7d856" stroke-width="2" d="M437.5,-1404C437.5,-1404 270.5,-1404 270.5,-1404 264.5,-1404 258.5,-1398 258.5,-1392 258.5,-1392 258.5,-1380 258.5,-1380 258.5,-1374 264.5,-1368 270.5,-1368 270.5,-1368 437.5,-1368 437.5,-1368 443.5,-1368 449.5,-1374 449.5,-1380 449.5,-1380 449.5,-1392 449.5,-1392 449.5,-1398 443.5,-1404 437.5,-1404"/>
<text text-anchor="middle" x="354" y="-1383.5" font-family="sans" font-size="10.00" fill="#000000">homologs_refine2_tcoffee_evaluate</text>
</g>
<!-- 27&#45;&gt;28 -->
<g id="edge39" class="edge">
<title>27&#45;&gt;28</title>
<path fill="none" stroke="#c0c0c0" stroke-width="2" d="M325.589,-1439.8314C329.8317,-1431.7925 334.9121,-1422.1666 339.596,-1413.2918"/>
<polygon fill="#c0c0c0" stroke="#c0c0c0" stroke-width="2" points="342.7096,-1414.8908 344.2819,-1404.4133 336.5189,-1411.6235 342.7096,-1414.8908"/>
</g>
<!-- 28&#45;&gt;24 -->
<g id="edge34" class="edge">
<title>28&#45;&gt;24</title>
<path fill="none" stroke="#c0c0c0" stroke-width="2" d="M325.7377,-1367.8314C311.5448,-1358.7074 294.1718,-1347.539 278.9364,-1337.7449"/>
<polygon fill="#c0c0c0" stroke="#c0c0c0" stroke-width="2" points="280.5578,-1334.6263 270.2533,-1332.1628 276.7724,-1340.5146 280.5578,-1334.6263"/>
</g>
<!-- 29 -->
<g id="node30" class="node">
<title>29</title>
<path fill="none" stroke="#61d856" stroke-width="2" d="M327.5,-3852C327.5,-3852 270.5,-3852 270.5,-3852 264.5,-3852 258.5,-3846 258.5,-3840 258.5,-3840 258.5,-3828 258.5,-3828 258.5,-3822 264.5,-3816 270.5,-3816 270.5,-3816 327.5,-3816 327.5,-3816 333.5,-3816 339.5,-3822 339.5,-3828 339.5,-3828 339.5,-3840 339.5,-3840 339.5,-3846 333.5,-3852 327.5,-3852"/>
<text text-anchor="middle" x="299" y="-3831.5" font-family="sans" font-size="10.00" fill="#000000">raw_link_pep</text>
</g>
<!-- 29&#45;&gt;25 -->
<g id="edge36" class="edge">
<title>29&#45;&gt;25</title>
<path fill="none" stroke="#c0c0c0" stroke-width="2" d="M299,-3815.8314C299,-3808.131 299,-3798.9743 299,-3790.4166"/>
<polygon fill="#c0c0c0" stroke="#c0c0c0" stroke-width="2" points="302.5001,-3790.4132 299,-3780.4133 295.5001,-3790.4133 302.5001,-3790.4132"/>
</g>
<!-- 30 -->
<g id="node31" class="node">
<title>30</title>
<path fill="none" stroke="#56d863" stroke-width="2" d="M292.5,-1692C292.5,-1692 161.5,-1692 161.5,-1692 155.5,-1692 149.5,-1686 149.5,-1680 149.5,-1680 149.5,-1668 149.5,-1668 149.5,-1662 155.5,-1656 161.5,-1656 161.5,-1656 292.5,-1656 292.5,-1656 298.5,-1656 304.5,-1662 304.5,-1668 304.5,-1668 304.5,-1680 304.5,-1680 304.5,-1686 298.5,-1692 292.5,-1692"/>
<text text-anchor="middle" x="227" y="-1671.5" font-family="sans" font-size="10.00" fill="#000000">homologs_refine1_maxalign</text>
</g>
<!-- 30&#45;&gt;26 -->
<g id="edge37" class="edge">
<title>30&#45;&gt;26</title>
<path fill="none" stroke="#c0c0c0" stroke-width="2" d="M227,-1655.8314C227,-1648.131 227,-1638.9743 227,-1630.4166"/>
<polygon fill="#c0c0c0" stroke="#c0c0c0" stroke-width="2" points="230.5001,-1630.4132 227,-1620.4133 223.5001,-1630.4133 230.5001,-1630.4132"/>
</g>
<!-- 31&#45;&gt;27 -->
<g id="edge38" class="edge">
<title>31&#45;&gt;27</title>
<path fill="none" stroke="#c0c0c0" stroke-width="2" d="M316,-1511.8314C316,-1504.131 316,-1494.9743 316,-1486.4166"/>
<polygon fill="#c0c0c0" stroke="#c0c0c0" stroke-width="2" points="319.5001,-1486.4132 316,-1476.4133 312.5001,-1486.4133 319.5001,-1486.4132"/>
</g>
<!-- 32 -->
<g id="node33" class="node">
<title>32</title>
<path fill="none" stroke="#59d856" stroke-width="2" d="M279.5,-1764C279.5,-1764 174.5,-1764 174.5,-1764 168.5,-1764 162.5,-1758 162.5,-1752 162.5,-1752 162.5,-1740 162.5,-1740 162.5,-1734 168.5,-1728 174.5,-1728 174.5,-1728 279.5,-1728 279.5,-1728 285.5,-1728 291.5,-1734 291.5,-1740 291.5,-1740 291.5,-1752 291.5,-1752 291.5,-1758 285.5,-1764 279.5,-1764"/>
<text text-anchor="middle" x="227" y="-1743.5" font-family="sans" font-size="10.00" fill="#000000">homologs_refine1_trim</text>
</g>
<!-- 32&#45;&gt;30 -->
<g id="edge40" class="edge">
<title>32&#45;&gt;30</title>
<path fill="none" stroke="#c0c0c0" stroke-width="2" d="M227,-1727.8314C227,-1720.131 227,-1710.9743 227,-1702.4166"/>
<polygon fill="#c0c0c0" stroke="#c0c0c0" stroke-width="2" points="230.5001,-1702.4132 227,-1692.4133 223.5001,-1702.4133 230.5001,-1702.4132"/>
</g>
<!-- 33 -->
<g id="node34" class="node">
<title>33</title>
<path fill="none" stroke="#d88d56" stroke-width="2" d="M322.5,-1836C322.5,-1836 131.5,-1836 131.5,-1836 125.5,-1836 119.5,-1830 119.5,-1824 119.5,-1824 119.5,-1812 119.5,-1812 119.5,-1806 125.5,-1800 131.5,-1800 131.5,-1800 322.5,-1800 322.5,-1800 328.5,-1800 334.5,-1806 334.5,-1812 334.5,-1812 334.5,-1824 334.5,-1824 334.5,-1830 328.5,-1836 322.5,-1836"/>
<text text-anchor="middle" x="227" y="-1815.5" font-family="sans" font-size="10.00" fill="#000000">homologs_refine1_tcoffee_backtranslate</text>
</g>
<!-- 33&#45;&gt;32 -->
<g id="edge42" class="edge">
<title>33&#45;&gt;32</title>
<path fill="none" stroke="#c0c0c0" stroke-width="2" d="M227,-1799.8314C227,-1792.131 227,-1782.9743 227,-1774.4166"/>
<polygon fill="#c0c0c0" stroke="#c0c0c0" stroke-width="2" points="230.5001,-1774.4132 227,-1764.4133 223.5001,-1774.4133 230.5001,-1774.4132"/>
</g>
<!-- 34&#45;&gt;33 -->
<g id="edge45" class="edge">
<title>34&#45;&gt;33</title>
<path fill="none" stroke="#c0c0c0" stroke-width="2" d="M250.4861,-2087.8912C233.8488,-2079.6845 217.6021,-2068.0979 208,-2052 168.9008,-1986.4508 197.1687,-1891.592 215.1686,-1845.3758"/>
<polygon fill="#c0c0c0" stroke="#c0c0c0" stroke-width="2" points="218.4477,-1846.6026 218.9344,-1836.0189 211.9539,-1843.9891 218.4477,-1846.6026"/>
</g>
<!-- 38 -->
<g id="node39" class="node">
<title>38</title>
<path fill="none" stroke="#56b1d8" stroke-width="2" d="M396.5,-2052C396.5,-2052 229.5,-2052 229.5,-2052 223.5,-2052 217.5,-2046 217.5,-2040 217.5,-2040 217.5,-2028 217.5,-2028 217.5,-2022 223.5,-2016 229.5,-2016 229.5,-2016 396.5,-2016 396.5,-2016 402.5,-2016 408.5,-2022 408.5,-2028 408.5,-2028 408.5,-2040 408.5,-2040 408.5,-2046 402.5,-2052 396.5,-2052"/>
<text text-anchor="middle" x="313" y="-2031.5" font-family="sans" font-size="10.00" fill="#000000">homologs_refine1_tcoffee_translate</text>
</g>
<!-- 34&#45;&gt;38 -->
<g id="edge52" class="edge">
<title>34&#45;&gt;38</title>
<path fill="none" stroke="#c0c0c0" stroke-width="2" d="M309.2617,-2087.8314C309.7965,-2080.131 310.4323,-2070.9743 311.0266,-2062.4166"/>
<polygon fill="#c0c0c0" stroke="#c0c0c0" stroke-width="2" points="314.52,-2062.6317 311.7213,-2052.4133 307.5368,-2062.1467 314.52,-2062.6317"/>
</g>
<!-- 35 -->
<g id="node36" class="node">
<title>35</title>
<path fill="none" stroke="#56d892" stroke-width="2" d="M387,-1980C387,-1980 239,-1980 239,-1980 233,-1980 227,-1974 227,-1968 227,-1968 227,-1956 227,-1956 227,-1950 233,-1944 239,-1944 239,-1944 387,-1944 387,-1944 393,-1944 399,-1950 399,-1956 399,-1956 399,-1968 399,-1968 399,-1974 393,-1980 387,-1980"/>
<text text-anchor="middle" x="313" y="-1959.5" font-family="sans" font-size="10.00" fill="#000000">homologs_refine1_tcoffee_align</text>
</g>
<!-- 35&#45;&gt;33 -->
<g id="edge43" class="edge">
<title>35&#45;&gt;33</title>
<path fill="none" stroke="#c0c0c0" stroke-width="2" d="M282.2459,-1943.988C269.1658,-1934.8136 254.9055,-1922.5174 246,-1908 234.5689,-1889.3655 229.9302,-1864.9248 228.0882,-1846.2161"/>
<polygon fill="#c0c0c0" stroke="#c0c0c0" stroke-width="2" points="231.5756,-1845.9173 227.3118,-1836.2183 224.5966,-1846.4593 231.5756,-1845.9173"/>
</g>
<!-- 36 -->
<g id="node37" class="node">
<title>36</title>
<path fill="none" stroke="#d8cb56" stroke-width="2" d="M434.5,-1908C434.5,-1908 267.5,-1908 267.5,-1908 261.5,-1908 255.5,-1902 255.5,-1896 255.5,-1896 255.5,-1884 255.5,-1884 255.5,-1878 261.5,-1872 267.5,-1872 267.5,-1872 434.5,-1872 434.5,-1872 440.5,-1872 446.5,-1878 446.5,-1884 446.5,-1884 446.5,-1896 446.5,-1896 446.5,-1902 440.5,-1908 434.5,-1908"/>
<text text-anchor="middle" x="351" y="-1887.5" font-family="sans" font-size="10.00" fill="#000000">homologs_refine1_tcoffee_evaluate</text>
</g>
<!-- 35&#45;&gt;36 -->
<g id="edge49" class="edge">
<title>35&#45;&gt;36</title>
<path fill="none" stroke="#c0c0c0" stroke-width="2" d="M322.589,-1943.8314C326.8317,-1935.7925 331.9121,-1926.1666 336.596,-1917.2918"/>
<polygon fill="#c0c0c0" stroke="#c0c0c0" stroke-width="2" points="339.7096,-1918.8908 341.2819,-1908.4133 333.5189,-1915.6235 339.7096,-1918.8908"/>
</g>
<!-- 36&#45;&gt;33 -->
<g id="edge44" class="edge">
<title>36&#45;&gt;33</title>
<path fill="none" stroke="#c0c0c0" stroke-width="2" d="M319.7096,-1871.8314C303.7023,-1862.5368 284.0414,-1851.1208 266.9506,-1841.1971"/>
<polygon fill="#c0c0c0" stroke="#c0c0c0" stroke-width="2" points="268.6858,-1838.1575 258.2804,-1836.1628 265.1708,-1844.211 268.6858,-1838.1575"/>
</g>
<!-- 37 -->
<g id="node38" class="node">
<title>37</title>
<path fill="none" stroke="#8fd856" stroke-width="2" d="M364,-2196C364,-2196 230,-2196 230,-2196 224,-2196 218,-2190 218,-2184 218,-2184 218,-2172 218,-2172 218,-2166 224,-2160 230,-2160 230,-2160 364,-2160 364,-2160 370,-2160 376,-2166 376,-2172 376,-2172 376,-2184 376,-2184 376,-2190 370,-2196 364,-2196"/>
<text text-anchor="middle" x="297" y="-2175.5" font-family="sans" font-size="10.00" fill="#000000">homologs_rt_prune_paralogs</text>
</g>
<!-- 37&#45;&gt;34 -->
<g id="edge46" class="edge">
<title>37&#45;&gt;34</title>
<path fill="none" stroke="#c0c0c0" stroke-width="2" d="M299.7758,-2159.8314C300.9522,-2152.131 302.3511,-2142.9743 303.6586,-2134.4166"/>
<polygon fill="#c0c0c0" stroke="#c0c0c0" stroke-width="2" points="307.1364,-2134.8272 305.1869,-2124.4133 300.2167,-2133.7699 307.1364,-2134.8272"/>
</g>
<!-- 38&#45;&gt;35 -->
<g id="edge48" class="edge">
<title>38&#45;&gt;35</title>
<path fill="none" stroke="#c0c0c0" stroke-width="2" d="M313,-2015.8314C313,-2008.131 313,-1998.9743 313,-1990.4166"/>
<polygon fill="#c0c0c0" stroke="#c0c0c0" stroke-width="2" points="316.5001,-1990.4132 313,-1980.4133 309.5001,-1990.4133 316.5001,-1990.4132"/>
</g>
<!-- 39 -->
<g id="node40" class="node">
<title>39</title>
<path fill="none" stroke="#56c9d8" stroke-width="2" d="M146,-2268C146,-2268 12,-2268 12,-2268 6,-2268 0,-2262 0,-2256 0,-2256 0,-2244 0,-2244 0,-2238 6,-2232 12,-2232 12,-2232 146,-2232 146,-2232 152,-2232 158,-2238 158,-2244 158,-2244 158,-2256 158,-2256 158,-2262 152,-2268 146,-2268"/>
<text text-anchor="middle" x="79" y="-2247.5" font-family="sans" font-size="10.00" fill="#000000">homologs_create_taxa_inout</text>
</g>
<!-- 39&#45;&gt;37 -->
<g id="edge51" class="edge">
<title>39&#45;&gt;37</title>
<path fill="none" stroke="#c0c0c0" stroke-width="2" d="M133.7292,-2231.9243C163.7902,-2221.9959 201.245,-2209.6255 232.6954,-2199.2382"/>
<polygon fill="#c0c0c0" stroke="#c0c0c0" stroke-width="2" points="233.8504,-2202.5428 242.2483,-2196.0831 231.6551,-2195.8959 233.8504,-2202.5428"/>
</g>
<!-- 40 -->
<g id="node41" class="node">
<title>40</title>
<path fill="none" stroke="#56d8b1" stroke-width="2" d="M406,-2268C406,-2268 188,-2268 188,-2268 182,-2268 176,-2262 176,-2256 176,-2256 176,-2244 176,-2244 176,-2238 182,-2232 188,-2232 188,-2232 406,-2232 406,-2232 412,-2232 418,-2238 418,-2244 418,-2244 418,-2256 418,-2256 418,-2262 412,-2268 406,-2268"/>
<text text-anchor="middle" x="297" y="-2247.5" font-family="sans" font-size="10.00" fill="#000000">homologs_round2_cut_internal_long_branches</text>
</g>
<!-- 40&#45;&gt;37 -->
<g id="edge50" class="edge">
<title>40&#45;&gt;37</title>
<path fill="none" stroke="#c0c0c0" stroke-width="2" d="M297,-2231.8314C297,-2224.131 297,-2214.9743 297,-2206.4166"/>
<polygon fill="#c0c0c0" stroke="#c0c0c0" stroke-width="2" points="300.5001,-2206.4132 297,-2196.4133 293.5001,-2206.4133 300.5001,-2206.4132"/>
</g>
<!-- 41 -->
<g id="node42" class="node">
<title>41</title>
<path fill="none" stroke="#d89c56" stroke-width="2" d="M397,-2340C397,-2340 197,-2340 197,-2340 191,-2340 185,-2334 185,-2328 185,-2328 185,-2316 185,-2316 185,-2310 191,-2304 197,-2304 197,-2304 397,-2304 397,-2304 403,-2304 409,-2310 409,-2316 409,-2316 409,-2328 409,-2328 409,-2334 403,-2340 397,-2340"/>
<text text-anchor="middle" x="297" y="-2319.5" font-family="sans" font-size="10.00" fill="#000000">homologs_round2_mask_tips_by_taxon_id</text>
</g>
<!-- 41&#45;&gt;40 -->
<g id="edge53" class="edge">
<title>41&#45;&gt;40</title>
<path fill="none" stroke="#c0c0c0" stroke-width="2" d="M297,-2303.8314C297,-2296.131 297,-2286.9743 297,-2278.4166"/>
<polygon fill="#c0c0c0" stroke="#c0c0c0" stroke-width="2" points="300.5001,-2278.4132 297,-2268.4133 293.5001,-2278.4133 300.5001,-2278.4132"/>
</g>
<!-- 42 -->
<g id="node43" class="node">
<title>42</title>
<path fill="none" stroke="#d8c356" stroke-width="2" d="M304,-2412C304,-2412 176,-2412 176,-2412 170,-2412 164,-2406 164,-2400 164,-2400 164,-2388 164,-2388 164,-2382 170,-2376 176,-2376 176,-2376 304,-2376 304,-2376 310,-2376 316,-2382 316,-2388 316,-2388 316,-2400 316,-2400 316,-2406 310,-2412 304,-2412"/>
<text text-anchor="middle" x="240" y="-2391.5" font-family="sans" font-size="10.00" fill="#000000">homologs_round2_trim_tips</text>
</g>
<!-- 42&#45;&gt;41 -->
<g id="edge54" class="edge">
<title>42&#45;&gt;41</title>
<path fill="none" stroke="#c0c0c0" stroke-width="2" d="M254.3835,-2375.8314C260.9486,-2367.5386 268.8507,-2357.557 276.0578,-2348.4533"/>
<polygon fill="#c0c0c0" stroke="#c0c0c0" stroke-width="2" points="278.9599,-2350.4262 282.4228,-2340.4133 273.4716,-2346.0813 278.9599,-2350.4262"/>
</g>
<!-- 43 -->
<g id="node44" class="node">
<title>43</title>
<path fill="none" stroke="#56d87b" stroke-width="2" d="M289,-2628C289,-2628 173,-2628 173,-2628 167,-2628 161,-2622 161,-2616 161,-2616 161,-2604 161,-2604 161,-2598 167,-2592 173,-2592 173,-2592 289,-2592 289,-2592 295,-2592 301,-2598 301,-2604 301,-2604 301,-2616 301,-2616 301,-2622 295,-2628 289,-2628"/>
<text text-anchor="middle" x="231" y="-2607.5" font-family="sans" font-size="10.00" fill="#000000">homologs_round2_pxclsq</text>
</g>
<!-- 43&#45;&gt;41 -->
<g id="edge55" class="edge">
<title>43&#45;&gt;41</title>
<path fill="none" stroke="#c0c0c0" stroke-width="2" d="M287.6928,-2591.8966C304.2553,-2583.6746 320.4558,-2572.0776 330,-2556 342.18,-2535.4824 366.5273,-2534.3139 325,-2376 322.586,-2366.7971 318.4032,-2357.3837 313.9956,-2349.0476"/>
<polygon fill="#c0c0c0" stroke="#c0c0c0" stroke-width="2" points="316.9542,-2347.168 309.006,-2340.1625 310.8507,-2350.5955 316.9542,-2347.168"/>
</g>
<!-- 46 -->
<g id="node47" class="node">
<title>46</title>
<path fill="none" stroke="#56d8b1" stroke-width="2" d="M309,-2556C309,-2556 139,-2556 139,-2556 133,-2556 127,-2550 127,-2544 127,-2544 127,-2532 127,-2532 127,-2526 133,-2520 139,-2520 139,-2520 309,-2520 309,-2520 315,-2520 321,-2526 321,-2532 321,-2532 321,-2544 321,-2544 321,-2550 315,-2556 309,-2556"/>
<text text-anchor="middle" x="224" y="-2535.5" font-family="sans" font-size="10.00" fill="#000000">homologs_round2_raxmlng_reduced</text>
</g>
<!-- 43&#45;&gt;46 -->
<g id="edge60" class="edge">
<title>43&#45;&gt;46</title>
<path fill="none" stroke="#c0c0c0" stroke-width="2" d="M229.2336,-2591.8314C228.485,-2584.131 227.5947,-2574.9743 226.7627,-2566.4166"/>
<polygon fill="#c0c0c0" stroke="#c0c0c0" stroke-width="2" points="230.2415,-2566.0276 225.7902,-2556.4133 223.2744,-2566.7051 230.2415,-2566.0276"/>
</g>
<!-- 44 -->
<g id="node45" class="node">
<title>44</title>
<path fill="none" stroke="#569ad8" stroke-width="2" d="M292.5,-2484C292.5,-2484 167.5,-2484 167.5,-2484 161.5,-2484 155.5,-2478 155.5,-2472 155.5,-2472 155.5,-2460 155.5,-2460 155.5,-2454 161.5,-2448 167.5,-2448 167.5,-2448 292.5,-2448 292.5,-2448 298.5,-2448 304.5,-2454 304.5,-2460 304.5,-2460 304.5,-2472 304.5,-2472 304.5,-2478 298.5,-2484 292.5,-2484"/>
<text text-anchor="middle" x="230" y="-2463.5" font-family="sans" font-size="10.00" fill="#000000">homologs_round2_raxmlng</text>
</g>
<!-- 44&#45;&gt;42 -->
<g id="edge56" class="edge">
<title>44&#45;&gt;42</title>
<path fill="none" stroke="#c0c0c0" stroke-width="2" d="M232.5234,-2447.8314C233.5929,-2440.131 234.8647,-2430.9743 236.0532,-2422.4166"/>
<polygon fill="#c0c0c0" stroke="#c0c0c0" stroke-width="2" points="239.5336,-2422.7997 237.4426,-2412.4133 232.6001,-2421.8367 239.5336,-2422.7997"/>
</g>
<!-- 45 -->
<g id="node46" class="node">
<title>45</title>
<path fill="none" stroke="#565bd8" stroke-width="2" d="M286.5,-2700C286.5,-2700 175.5,-2700 175.5,-2700 169.5,-2700 163.5,-2694 163.5,-2688 163.5,-2688 163.5,-2676 163.5,-2676 163.5,-2670 169.5,-2664 175.5,-2664 175.5,-2664 286.5,-2664 286.5,-2664 292.5,-2664 298.5,-2670 298.5,-2676 298.5,-2676 298.5,-2688 298.5,-2688 298.5,-2694 292.5,-2700 286.5,-2700"/>
<text text-anchor="middle" x="231" y="-2679.5" font-family="sans" font-size="10.00" fill="#000000">homologs_round2_mafft</text>
</g>
<!-- 45&#45;&gt;43 -->
<g id="edge57" class="edge">
<title>45&#45;&gt;43</title>
<path fill="none" stroke="#c0c0c0" stroke-width="2" d="M231,-2663.8314C231,-2656.131 231,-2646.9743 231,-2638.4166"/>
<polygon fill="#c0c0c0" stroke="#c0c0c0" stroke-width="2" points="234.5001,-2638.4132 231,-2628.4133 227.5001,-2638.4133 234.5001,-2638.4132"/>
</g>
<!-- 46&#45;&gt;44 -->
<g id="edge58" class="edge">
<title>46&#45;&gt;44</title>
<path fill="none" stroke="#c0c0c0" stroke-width="2" d="M225.5141,-2519.8314C226.1558,-2512.131 226.9188,-2502.9743 227.6319,-2494.4166"/>
<polygon fill="#c0c0c0" stroke="#c0c0c0" stroke-width="2" points="231.1229,-2494.6694 228.4656,-2484.4133 224.1471,-2494.088 231.1229,-2494.6694"/>
</g>
<!-- 47 -->
<g id="node48" class="node">
<title>47</title>
<path fill="none" stroke="#56a9d8" stroke-width="2" d="M305.5,-2772C305.5,-2772 156.5,-2772 156.5,-2772 150.5,-2772 144.5,-2766 144.5,-2760 144.5,-2760 144.5,-2748 144.5,-2748 144.5,-2742 150.5,-2736 156.5,-2736 156.5,-2736 305.5,-2736 305.5,-2736 311.5,-2736 317.5,-2742 317.5,-2748 317.5,-2748 317.5,-2760 317.5,-2760 317.5,-2766 311.5,-2772 305.5,-2772"/>
<text text-anchor="middle" x="231" y="-2751.5" font-family="sans" font-size="10.00" fill="#000000">homologs_round2_tree_to_fasta</text>
</g>
<!-- 47&#45;&gt;45 -->
<g id="edge59" class="edge">
<title>47&#45;&gt;45</title>
<path fill="none" stroke="#c0c0c0" stroke-width="2" d="M231,-2735.8314C231,-2728.131 231,-2718.9743 231,-2710.4166"/>
<polygon fill="#c0c0c0" stroke="#c0c0c0" stroke-width="2" points="234.5001,-2710.4132 231,-2700.4133 227.5001,-2710.4133 234.5001,-2710.4132"/>
</g>
<!-- 48&#45;&gt;47 -->
<g id="edge62" class="edge">
<title>48&#45;&gt;47</title>
<path fill="none" stroke="#c0c0c0" stroke-width="2" d="M155.0632,-3383.9156C149.498,-3356.7281 140,-3303.6422 140,-3258 140,-3258 140,-3258 140,-2898 140,-2857.1184 137.019,-2842.4695 159,-2808 166.498,-2796.242 177.5192,-2786.119 188.6955,-2777.9201"/>
<polygon fill="#c0c0c0" stroke="#c0c0c0" stroke-width="2" points="190.9806,-2780.5954 197.2166,-2772.0302 187.0004,-2774.8371 190.9806,-2780.5954"/>
</g>
<!-- 56 -->
<g id="node57" class="node">
<title>56</title>
<path fill="none" stroke="#8fd856" stroke-width="2" d="M350.5,-3348C350.5,-3348 201.5,-3348 201.5,-3348 195.5,-3348 189.5,-3342 189.5,-3336 189.5,-3336 189.5,-3324 189.5,-3324 189.5,-3318 195.5,-3312 201.5,-3312 201.5,-3312 350.5,-3312 350.5,-3312 356.5,-3312 362.5,-3318 362.5,-3324 362.5,-3324 362.5,-3336 362.5,-3336 362.5,-3342 356.5,-3348 350.5,-3348"/>
<text text-anchor="middle" x="276" y="-3327.5" font-family="sans" font-size="10.00" fill="#000000">homologs_round1_tree_to_fasta</text>
</g>
<!-- 48&#45;&gt;56 -->
<g id="edge73" class="edge">
<title>48&#45;&gt;56</title>
<path fill="none" stroke="#c0c0c0" stroke-width="2" d="M188.524,-3383.8314C203.4891,-3374.6221 221.8386,-3363.3301 237.8603,-3353.4706"/>
<polygon fill="#c0c0c0" stroke="#c0c0c0" stroke-width="2" points="239.8032,-3356.3847 246.4854,-3348.1628 236.1345,-3350.423 239.8032,-3356.3847"/>
</g>
<!-- 49 -->
<g id="node50" class="node">
<title>49</title>
<path fill="none" stroke="#d8a456" stroke-width="2" d="M398,-2844C398,-2844 180,-2844 180,-2844 174,-2844 168,-2838 168,-2832 168,-2832 168,-2820 168,-2820 168,-2814 174,-2808 180,-2808 180,-2808 398,-2808 398,-2808 404,-2808 410,-2814 410,-2820 410,-2820 410,-2832 410,-2832 410,-2838 404,-2844 398,-2844"/>
<text text-anchor="middle" x="289" y="-2823.5" font-family="sans" font-size="10.00" fill="#000000">homologs_round1_cut_internal_long_branches</text>
</g>
<!-- 49&#45;&gt;47 -->
<g id="edge61" class="edge">
<title>49&#45;&gt;47</title>
<path fill="none" stroke="#c0c0c0" stroke-width="2" d="M274.3642,-2807.8314C267.6839,-2799.5386 259.6432,-2789.557 252.3096,-2780.4533"/>
<polygon fill="#c0c0c0" stroke="#c0c0c0" stroke-width="2" points="254.8319,-2778.0052 245.8329,-2772.4133 249.3806,-2782.3965 254.8319,-2778.0052"/>
</g>
<!-- 50 -->
<g id="node51" class="node">
<title>50</title>
<path fill="none" stroke="#56d87b" stroke-width="2" d="M389,-2916C389,-2916 189,-2916 189,-2916 183,-2916 177,-2910 177,-2904 177,-2904 177,-2892 177,-2892 177,-2886 183,-2880 189,-2880 189,-2880 389,-2880 389,-2880 395,-2880 401,-2886 401,-2892 401,-2892 401,-2904 401,-2904 401,-2910 395,-2916 389,-2916"/>
<text text-anchor="middle" x="289" y="-2895.5" font-family="sans" font-size="10.00" fill="#000000">homologs_round1_mask_tips_by_taxon_id</text>
</g>
<!-- 50&#45;&gt;49 -->
<g id="edge64" class="edge">
<title>50&#45;&gt;49</title>
<path fill="none" stroke="#c0c0c0" stroke-width="2" d="M289,-2879.8314C289,-2872.131 289,-2862.9743 289,-2854.4166"/>
<polygon fill="#c0c0c0" stroke="#c0c0c0" stroke-width="2" points="292.5001,-2854.4132 289,-2844.4133 285.5001,-2854.4133 292.5001,-2854.4132"/>
</g>
<!-- 51 -->
<g id="node52" class="node">
<title>51</title>
<path fill="none" stroke="#d89556" stroke-width="2" d="M347,-2988C347,-2988 219,-2988 219,-2988 213,-2988 207,-2982 207,-2976 207,-2976 207,-2964 207,-2964 207,-2958 213,-2952 219,-2952 219,-2952 347,-2952 347,-2952 353,-2952 359,-2958 359,-2964 359,-2964 359,-2976 359,-2976 359,-2982 353,-2988 347,-2988"/>
<text text-anchor="middle" x="283" y="-2967.5" font-family="sans" font-size="10.00" fill="#000000">homologs_round1_trim_tips</text>
</g>
<!-- 51&#45;&gt;50 -->
<g id="edge66" class="edge">
<title>51&#45;&gt;50</title>
<path fill="none" stroke="#c0c0c0" stroke-width="2" d="M284.5141,-2951.8314C285.1558,-2944.131 285.9188,-2934.9743 286.6319,-2926.4166"/>
<polygon fill="#c0c0c0" stroke="#c0c0c0" stroke-width="2" points="290.1229,-2926.6694 287.4656,-2916.4133 283.1471,-2926.088 290.1229,-2926.6694"/>
</g>
<!-- 52 -->
<g id="node53" class="node">
<title>52</title>
<path fill="none" stroke="#80d856" stroke-width="2" d="M334,-3204C334,-3204 218,-3204 218,-3204 212,-3204 206,-3198 206,-3192 206,-3192 206,-3180 206,-3180 206,-3174 212,-3168 218,-3168 218,-3168 334,-3168 334,-3168 340,-3168 346,-3174 346,-3180 346,-3180 346,-3192 346,-3192 346,-3198 340,-3204 334,-3204"/>
<text text-anchor="middle" x="276" y="-3183.5" font-family="sans" font-size="10.00" fill="#000000">homologs_round1_pxclsq</text>
</g>
<!-- 52&#45;&gt;50 -->
<g id="edge65" class="edge">
<title>52&#45;&gt;50</title>
<path fill="none" stroke="#c0c0c0" stroke-width="2" d="M333.5139,-3167.8912C350.1512,-3159.6845 366.3979,-3148.0979 376,-3132 394.9262,-3100.2705 432.2674,-3065.997 368,-2952 361.0409,-2939.656 349.9489,-2929.5429 338.2507,-2921.5445"/>
<polygon fill="#c0c0c0" stroke="#c0c0c0" stroke-width="2" points="339.9926,-2918.5045 329.6759,-2916.0925 336.2367,-2924.4116 339.9926,-2918.5045"/>
</g>
<!-- 55 -->
<g id="node56" class="node">
<title>55</title>
<path fill="none" stroke="#d6d856" stroke-width="2" d="M355,-3132C355,-3132 185,-3132 185,-3132 179,-3132 173,-3126 173,-3120 173,-3120 173,-3108 173,-3108 173,-3102 179,-3096 185,-3096 185,-3096 355,-3096 355,-3096 361,-3096 367,-3102 367,-3108 367,-3108 367,-3120 367,-3120 367,-3126 361,-3132 355,-3132"/>
<text text-anchor="middle" x="270" y="-3111.5" font-family="sans" font-size="10.00" fill="#000000">homologs_round1_raxmlng_reduced</text>
</g>
<!-- 52&#45;&gt;55 -->
<g id="edge71" class="edge">
<title>52&#45;&gt;55</title>
<path fill="none" stroke="#c0c0c0" stroke-width="2" d="M274.4859,-3167.8314C273.8442,-3160.131 273.0812,-3150.9743 272.3681,-3142.4166"/>
<polygon fill="#c0c0c0" stroke="#c0c0c0" stroke-width="2" points="275.8529,-3142.088 271.5344,-3132.4133 268.8771,-3142.6694 275.8529,-3142.088"/>
</g>
<!-- 53 -->
<g id="node54" class="node">
<title>53</title>
<path fill="none" stroke="#56d873" stroke-width="2" d="M338.5,-3060C338.5,-3060 213.5,-3060 213.5,-3060 207.5,-3060 201.5,-3054 201.5,-3048 201.5,-3048 201.5,-3036 201.5,-3036 201.5,-3030 207.5,-3024 213.5,-3024 213.5,-3024 338.5,-3024 338.5,-3024 344.5,-3024 350.5,-3030 350.5,-3036 350.5,-3036 350.5,-3048 350.5,-3048 350.5,-3054 344.5,-3060 338.5,-3060"/>
<text text-anchor="middle" x="276" y="-3039.5" font-family="sans" font-size="10.00" fill="#000000">homologs_round1_raxmlng</text>
</g>
<!-- 53&#45;&gt;51 -->
<g id="edge67" class="edge">
<title>53&#45;&gt;51</title>
<path fill="none" stroke="#c0c0c0" stroke-width="2" d="M277.7664,-3023.8314C278.515,-3016.131 279.4053,-3006.9743 280.2373,-2998.4166"/>
<polygon fill="#c0c0c0" stroke="#c0c0c0" stroke-width="2" points="283.7256,-2998.7051 281.2098,-2988.4133 276.7585,-2998.0276 283.7256,-2998.7051"/>
</g>
<!-- 54 -->
<g id="node55" class="node">
<title>54</title>
<path fill="none" stroke="#59d856" stroke-width="2" d="M331.5,-3276C331.5,-3276 220.5,-3276 220.5,-3276 214.5,-3276 208.5,-3270 208.5,-3264 208.5,-3264 208.5,-3252 208.5,-3252 208.5,-3246 214.5,-3240 220.5,-3240 220.5,-3240 331.5,-3240 331.5,-3240 337.5,-3240 343.5,-3246 343.5,-3252 343.5,-3252 343.5,-3264 343.5,-3264 343.5,-3270 337.5,-3276 331.5,-3276"/>
<text text-anchor="middle" x="276" y="-3255.5" font-family="sans" font-size="10.00" fill="#000000">homologs_round1_mafft</text>
</g>
<!-- 54&#45;&gt;52 -->
<g id="edge68" class="edge">
<title>54&#45;&gt;52</title>
<path fill="none" stroke="#c0c0c0" stroke-width="2" d="M276,-3239.8314C276,-3232.131 276,-3222.9743 276,-3214.4166"/>
<polygon fill="#c0c0c0" stroke="#c0c0c0" stroke-width="2" points="279.5001,-3214.4132 276,-3204.4133 272.5001,-3214.4133 279.5001,-3214.4132"/>
</g>
<!-- 55&#45;&gt;53 -->
<g id="edge69" class="edge">
<title>55&#45;&gt;53</title>
<path fill="none" stroke="#c0c0c0" stroke-width="2" d="M271.5141,-3095.8314C272.1558,-3088.131 272.9188,-3078.9743 273.6319,-3070.4166"/>
<polygon fill="#c0c0c0" stroke="#c0c0c0" stroke-width="2" points="277.1229,-3070.6694 274.4656,-3060.4133 270.1471,-3070.088 277.1229,-3070.6694"/>
</g>
<!-- 56&#45;&gt;54 -->
<g id="edge70" class="edge">
<title>56&#45;&gt;54</title>
<path fill="none" stroke="#c0c0c0" stroke-width="2" d="M276,-3311.8314C276,-3304.131 276,-3294.9743 276,-3286.4166"/>
<polygon fill="#c0c0c0" stroke="#c0c0c0" stroke-width="2" points="279.5001,-3286.4132 276,-3276.4133 272.5001,-3286.4133 279.5001,-3286.4132"/>
</g>
<!-- 57 -->
<g id="node58" class="node">
<title>57</title>
<path fill="none" stroke="#56d8c9" stroke-width="2" d="M353.5,-3420C353.5,-3420 244.5,-3420 244.5,-3420 238.5,-3420 232.5,-3414 232.5,-3408 232.5,-3408 232.5,-3396 232.5,-3396 232.5,-3390 238.5,-3384 244.5,-3384 244.5,-3384 353.5,-3384 353.5,-3384 359.5,-3384 365.5,-3390 365.5,-3396 365.5,-3396 365.5,-3408 365.5,-3408 365.5,-3414 359.5,-3420 353.5,-3420"/>
<text text-anchor="middle" x="299" y="-3399.5" font-family="sans" font-size="10.00" fill="#000000">homologs_correct_leafs</text>
</g>
<!-- 57&#45;&gt;56 -->
<g id="edge72" class="edge">
<title>57&#45;&gt;56</title>
<path fill="none" stroke="#c0c0c0" stroke-width="2" d="M293.1961,-3383.8314C290.7092,-3376.0463 287.7469,-3366.7729 284.9875,-3358.1347"/>
<polygon fill="#c0c0c0" stroke="#c0c0c0" stroke-width="2" points="288.2591,-3356.874 281.882,-3348.4133 281.591,-3359.0041 288.2591,-3356.874"/>
</g>
<!-- 58 -->
<g id="node59" class="node">
<title>58</title>
<path fill="none" stroke="#d86656" stroke-width="2" d="M353.5,-3492C353.5,-3492 244.5,-3492 244.5,-3492 238.5,-3492 232.5,-3486 232.5,-3480 232.5,-3480 232.5,-3468 232.5,-3468 232.5,-3462 238.5,-3456 244.5,-3456 244.5,-3456 353.5,-3456 353.5,-3456 359.5,-3456 365.5,-3462 365.5,-3468 365.5,-3468 365.5,-3480 365.5,-3480 365.5,-3486 359.5,-3492 353.5,-3492"/>
<text text-anchor="middle" x="299" y="-3471.5" font-family="sans" font-size="10.00" fill="#000000">orthofinder_orthologues</text>
</g>
<!-- 58&#45;&gt;57 -->
<g id="edge74" class="edge">
<title>58&#45;&gt;57</title>
<path fill="none" stroke="#c0c0c0" stroke-width="2" d="M299,-3455.8314C299,-3448.131 299,-3438.9743 299,-3430.4166"/>
<polygon fill="#c0c0c0" stroke="#c0c0c0" stroke-width="2" points="302.5001,-3430.4132 299,-3420.4133 295.5001,-3430.4133 302.5001,-3430.4132"/>
</g>
<!-- 59 -->
<g id="node60" class="node">
<title>59</title>
<path fill="none" stroke="#a7d856" stroke-width="2" d="M337,-3564C337,-3564 261,-3564 261,-3564 255,-3564 249,-3558 249,-3552 249,-3552 249,-3540 249,-3540 249,-3534 255,-3528 261,-3528 261,-3528 337,-3528 337,-3528 343,-3528 349,-3534 349,-3540 349,-3540 349,-3552 349,-3552 349,-3558 343,-3564 337,-3564"/>
<text text-anchor="middle" x="299" y="-3543.5" font-family="sans" font-size="10.00" fill="#000000">orthofinder_trees</text>
</g>
<!-- 59&#45;&gt;58 -->
<g id="edge75" class="edge">
<title>59&#45;&gt;58</title>
<path fill="none" stroke="#c0c0c0" stroke-width="2" d="M299,-3527.8314C299,-3520.131 299,-3510.9743 299,-3502.4166"/>
<polygon fill="#c0c0c0" stroke="#c0c0c0" stroke-width="2" points="302.5001,-3502.4132 299,-3492.4133 295.5001,-3502.4133 302.5001,-3502.4132"/>
</g>
<!-- 60 -->
<g id="node61" class="node">
<title>60</title>
<path fill="none" stroke="#56d8c1" stroke-width="2" d="M341,-3636C341,-3636 257,-3636 257,-3636 251,-3636 245,-3630 245,-3624 245,-3624 245,-3612 245,-3612 245,-3606 251,-3600 257,-3600 257,-3600 341,-3600 341,-3600 347,-3600 353,-3606 353,-3612 353,-3612 353,-3624 353,-3624 353,-3630 347,-3636 341,-3636"/>
<text text-anchor="middle" x="299" y="-3615.5" font-family="sans" font-size="10.00" fill="#000000">orthofinder_groups</text>
</g>
<!-- 60&#45;&gt;59 -->
<g id="edge76" class="edge">
<title>60&#45;&gt;59</title>
<path fill="none" stroke="#c0c0c0" stroke-width="2" d="M299,-3599.8314C299,-3592.131 299,-3582.9743 299,-3574.4166"/>
<polygon fill="#c0c0c0" stroke="#c0c0c0" stroke-width="2" points="302.5001,-3574.4132 299,-3564.4133 295.5001,-3574.4133 302.5001,-3574.4132"/>
</g>
<!-- 61&#45;&gt;60 -->
<g id="edge77" class="edge">
<title>61&#45;&gt;60</title>
<path fill="none" stroke="#c0c0c0" stroke-width="2" d="M299,-3671.8314C299,-3664.131 299,-3654.9743 299,-3646.4166"/>
<polygon fill="#c0c0c0" stroke="#c0c0c0" stroke-width="2" points="302.5001,-3646.4132 299,-3636.4133 295.5001,-3646.4133 302.5001,-3646.4132"/>
</g>
</g>
</svg>
