<?xml version="1.0" encoding="UTF-8" standalone="no"?>
<!DOCTYPE svg PUBLIC "-//W3C//DTD SVG 1.1//EN"
 "http://www.w3.org/Graphics/SVG/1.1/DTD/svg11.dtd">
<!-- Generated by graphviz version 2.40.1 (20161225.0304)
 -->
<!-- Title: snakemake_dag Pages: 1 -->
<svg width="561pt" height="4076pt"
 viewBox="0.00 0.00 560.70 4076.00" xmlns="http://www.w3.org/2000/svg" xmlns:xlink="http://www.w3.org/1999/xlink">
<g id="graph0" class="graph" transform="scale(1 1) rotate(0) translate(4 4072)">
<title>snakemake_dag</title>
<polygon fill="#ffffff" stroke="transparent" points="-4,4 -4,-4072 556.7041,-4072 556.7041,4 -4,4"/>
<!-- 0 -->
<g id="node1" class="node">
<title>0</title>
<path fill="none" stroke="#568ad8" stroke-width="2" d="M419,-36C419,-36 389,-36 389,-36 383,-36 377,-30 377,-24 377,-24 377,-12 377,-12 377,-6 383,0 389,0 389,0 419,0 419,0 425,0 431,-6 431,-12 431,-12 431,-24 431,-24 431,-30 425,-36 419,-36"/>
<text text-anchor="middle" x="404" y="-15.5" font-family="sans" font-size="10.00" fill="#000000">all</text>
</g>
<!-- 1 -->
<g id="node2" class="node">
<title>1</title>
<path fill="none" stroke="#d88556" stroke-width="2" d="M456,-108C456,-108 352,-108 352,-108 346,-108 340,-102 340,-96 340,-96 340,-84 340,-84 340,-78 346,-72 352,-72 352,-72 456,-72 456,-72 462,-72 468,-78 468,-84 468,-84 468,-96 468,-96 468,-102 462,-108 456,-108"/>
<text text-anchor="middle" x="404" y="-87.5" font-family="sans" font-size="10.00" fill="#000000">selection_speed_group</text>
</g>
<!-- 1&#45;&gt;0 -->
<g id="edge1" class="edge">
<title>1&#45;&gt;0</title>
<path fill="none" stroke="#c0c0c0" stroke-width="2" d="M404,-71.8314C404,-64.131 404,-54.9743 404,-46.4166"/>
<polygon fill="#c0c0c0" stroke="#c0c0c0" stroke-width="2" points="407.5001,-46.4132 404,-36.4133 400.5001,-46.4133 407.5001,-46.4132"/>
</g>
<!-- 2 -->
<g id="node3" class="node">
<title>2</title>
<path fill="none" stroke="#56a2d8" stroke-width="2" d="M407,-180C407,-180 259,-180 259,-180 253,-180 247,-174 247,-168 247,-168 247,-156 247,-156 247,-150 253,-144 259,-144 259,-144 407,-144 407,-144 413,-144 419,-150 419,-156 419,-156 419,-168 419,-168 419,-174 413,-180 407,-180"/>
<text text-anchor="middle" x="333" y="-159.5" font-family="sans" font-size="10.00" fill="#000000">selection_selected_msas_group</text>
</g>
<!-- 2&#45;&gt;1 -->
<g id="edge2" class="edge">
<title>2&#45;&gt;1</title>
<path fill="none" stroke="#c0c0c0" stroke-width="2" d="M350.9163,-143.8314C359.3442,-135.2848 369.541,-124.9443 378.736,-115.6198"/>
<polygon fill="#c0c0c0" stroke="#c0c0c0" stroke-width="2" points="381.3131,-117.9912 385.8425,-108.4133 376.3289,-113.0761 381.3131,-117.9912"/>
</g>
<!-- 3 -->
<g id="node4" class="node">
<title>3</title>
<path fill="none" stroke="#56a9d8" stroke-width="2" d="M483.5,-900C483.5,-900 418.5,-900 418.5,-900 412.5,-900 406.5,-894 406.5,-888 406.5,-888 406.5,-876 406.5,-876 406.5,-870 412.5,-864 418.5,-864 418.5,-864 483.5,-864 483.5,-864 489.5,-864 495.5,-870 495.5,-876 495.5,-876 495.5,-888 495.5,-888 495.5,-894 489.5,-900 483.5,-900"/>
<text text-anchor="middle" x="451" y="-879.5" font-family="sans" font-size="10.00" fill="#000000">tree_exabayes</text>
</g>
<!-- 3&#45;&gt;1 -->
<g id="edge3" class="edge">
<title>3&#45;&gt;1</title>
<path fill="none" stroke="#c0c0c0" stroke-width="2" d="M459.9071,-863.8553C472.2358,-837.0234 493,-784.875 493,-738 493,-738 493,-738 493,-234 493,-186.9216 458.1528,-142.3783 432.0685,-115.6306"/>
<polygon fill="#c0c0c0" stroke="#c0c0c0" stroke-width="2" points="434.2005,-112.8147 424.6421,-108.2445 429.2643,-117.7779 434.2005,-112.8147"/>
</g>
<!-- 10 -->
<g id="node11" class="node">
<title>10</title>
<path fill="none" stroke="#56d863" stroke-width="2" d="M453,-324C453,-324 323,-324 323,-324 317,-324 311,-318 311,-312 311,-312 311,-300 311,-300 311,-294 317,-288 323,-288 323,-288 453,-288 453,-288 459,-288 465,-294 465,-300 465,-300 465,-312 465,-312 465,-318 459,-324 453,-324"/>
<text text-anchor="middle" x="388" y="-303.5" font-family="sans" font-size="10.00" fill="#000000">selection_fastcodeml_group</text>
</g>
<!-- 3&#45;&gt;10 -->
<g id="edge18" class="edge">
<title>3&#45;&gt;10</title>
<path fill="none" stroke="#c0c0c0" stroke-width="2" d="M444.6378,-863.615C435.8315,-836.4838 421,-783.9662 421,-738 421,-738 421,-738 421,-450 421,-408.8829 408.059,-362.7926 398.3848,-334.082"/>
<polygon fill="#c0c0c0" stroke="#c0c0c0" stroke-width="2" points="401.5857,-332.6302 394.9985,-324.3321 394.9732,-334.9269 401.5857,-332.6302"/>
</g>
<!-- 15 -->
<g id="node16" class="node">
<title>15</title>
<path fill="none" stroke="#56a9d8" stroke-width="2" d="M241,-828C241,-828 141,-828 141,-828 135,-828 129,-822 129,-816 129,-816 129,-804 129,-804 129,-798 135,-792 141,-792 141,-792 241,-792 241,-792 247,-792 253,-798 253,-804 253,-804 253,-816 253,-816 253,-822 247,-828 241,-828"/>
<text text-anchor="middle" x="191" y="-807.5" font-family="sans" font-size="10.00" fill="#000000">selection_trees_group</text>
</g>
<!-- 3&#45;&gt;15 -->
<g id="edge24" class="edge">
<title>3&#45;&gt;15</title>
<path fill="none" stroke="#c0c0c0" stroke-width="2" d="M406.3044,-869.6228C366.942,-858.7224 308.8985,-842.6488 262.9936,-829.9367"/>
<polygon fill="#c0c0c0" stroke="#c0c0c0" stroke-width="2" points="263.6685,-826.4919 253.0971,-827.1961 261.8003,-833.238 263.6685,-826.4919"/>
</g>
<!-- 4 -->
<g id="node5" class="node">
<title>4</title>
<path fill="none" stroke="#5682d8" stroke-width="2" d="M398,-252C398,-252 268,-252 268,-252 262,-252 256,-246 256,-240 256,-240 256,-228 256,-228 256,-222 262,-216 268,-216 268,-216 398,-216 398,-216 404,-216 410,-222 410,-228 410,-228 410,-240 410,-240 410,-246 404,-252 398,-252"/>
<text text-anchor="middle" x="333" y="-231.5" font-family="sans" font-size="10.00" fill="#000000">selection_pcorrection_group</text>
</g>
<!-- 4&#45;&gt;2 -->
<g id="edge5" class="edge">
<title>4&#45;&gt;2</title>
<path fill="none" stroke="#c0c0c0" stroke-width="2" d="M333,-215.8314C333,-208.131 333,-198.9743 333,-190.4166"/>
<polygon fill="#c0c0c0" stroke="#c0c0c0" stroke-width="2" points="336.5001,-190.4132 333,-180.4133 329.5001,-190.4133 336.5001,-190.4132"/>
</g>
<!-- 5 -->
<g id="node6" class="node">
<title>5</title>
<path fill="none" stroke="#d89556" stroke-width="2" d="M242.5,-396C242.5,-396 121.5,-396 121.5,-396 115.5,-396 109.5,-390 109.5,-384 109.5,-384 109.5,-372 109.5,-372 109.5,-366 115.5,-360 121.5,-360 121.5,-360 242.5,-360 242.5,-360 248.5,-360 254.5,-366 254.5,-372 254.5,-372 254.5,-384 254.5,-384 254.5,-390 248.5,-396 242.5,-396"/>
<text text-anchor="middle" x="182" y="-375.5" font-family="sans" font-size="10.00" fill="#000000">selection_maxalign_group</text>
</g>
<!-- 5&#45;&gt;2 -->
<g id="edge4" class="edge">
<title>5&#45;&gt;2</title>
<path fill="none" stroke="#c0c0c0" stroke-width="2" d="M185.4274,-359.8074C192.2582,-327.6663 210.1876,-260.0761 247,-216 257.1976,-203.7902 270.8911,-193.4788 284.349,-185.2444"/>
<polygon fill="#c0c0c0" stroke="#c0c0c0" stroke-width="2" points="286.2414,-188.1926 293.1197,-180.1341 282.7173,-182.1444 286.2414,-188.1926"/>
</g>
<!-- 5&#45;&gt;10 -->
<g id="edge17" class="edge">
<title>5&#45;&gt;10</title>
<path fill="none" stroke="#c0c0c0" stroke-width="2" d="M233.7166,-359.9243C261.878,-350.0815 296.9062,-337.8386 326.4653,-327.5073"/>
<polygon fill="#c0c0c0" stroke="#c0c0c0" stroke-width="2" points="327.9769,-330.6866 336.2621,-324.0831 325.6673,-324.0786 327.9769,-330.6866"/>
</g>
<!-- 6 -->
<g id="node7" class="node">
<title>6</title>
<path fill="none" stroke="#56d88a" stroke-width="2" d="M525.5,-972C525.5,-972 426.5,-972 426.5,-972 420.5,-972 414.5,-966 414.5,-960 414.5,-960 414.5,-948 414.5,-948 414.5,-942 420.5,-936 426.5,-936 426.5,-936 525.5,-936 525.5,-936 531.5,-936 537.5,-942 537.5,-948 537.5,-948 537.5,-960 537.5,-960 537.5,-966 531.5,-972 525.5,-972"/>
<text text-anchor="middle" x="476" y="-951.5" font-family="sans" font-size="10.00" fill="#000000">tree_exabayes_config</text>
</g>
<!-- 6&#45;&gt;3 -->
<g id="edge8" class="edge">
<title>6&#45;&gt;3</title>
<path fill="none" stroke="#c0c0c0" stroke-width="2" d="M469.6914,-935.8314C466.9883,-928.0463 463.7684,-918.7729 460.769,-910.1347"/>
<polygon fill="#c0c0c0" stroke="#c0c0c0" stroke-width="2" points="463.98,-908.7119 457.3935,-900.4133 457.3673,-911.0081 463.98,-908.7119"/>
</g>
<!-- 7 -->
<g id="node8" class="node">
<title>7</title>
<path fill="none" stroke="#5682d8" stroke-width="2" d="M420,-1116C420,-1116 382,-1116 382,-1116 376,-1116 370,-1110 370,-1104 370,-1104 370,-1092 370,-1092 370,-1086 376,-1080 382,-1080 382,-1080 420,-1080 420,-1080 426,-1080 432,-1086 432,-1092 432,-1092 432,-1104 432,-1104 432,-1110 426,-1116 420,-1116"/>
<text text-anchor="middle" x="401" y="-1095.5" font-family="sans" font-size="10.00" fill="#000000">tree_trim</text>
</g>
<!-- 7&#45;&gt;3 -->
<g id="edge6" class="edge">
<title>7&#45;&gt;3</title>
<path fill="none" stroke="#c0c0c0" stroke-width="2" d="M432.278,-1081.88C467.6925,-1061.6517 523.5127,-1023.2944 547,-972 553.6612,-957.4525 555.0775,-949.8114 547,-936 537.5513,-919.8441 521.295,-908.1485 504.8177,-899.8642"/>
<polygon fill="#c0c0c0" stroke="#c0c0c0" stroke-width="2" points="506.2251,-896.6587 495.6827,-895.6061 503.2677,-903.0033 506.2251,-896.6587"/>
</g>
<!-- 8 -->
<g id="node9" class="node">
<title>8</title>
<path fill="none" stroke="#567bd8" stroke-width="2" d="M384,-972C384,-972 326,-972 326,-972 320,-972 314,-966 314,-960 314,-960 314,-948 314,-948 314,-942 320,-936 326,-936 326,-936 384,-936 384,-936 390,-936 396,-942 396,-948 396,-948 396,-960 396,-960 396,-966 390,-972 384,-972"/>
<text text-anchor="middle" x="355" y="-951.5" font-family="sans" font-size="10.00" fill="#000000">tree_raxmlng</text>
</g>
<!-- 7&#45;&gt;8 -->
<g id="edge13" class="edge">
<title>7&#45;&gt;8</title>
<path fill="none" stroke="#c0c0c0" stroke-width="2" d="M411.9519,-1079.992C421.8281,-1061.2599 433.2171,-1031.4475 422,-1008 416.404,-996.3025 406.9007,-986.3295 396.7828,-978.2563"/>
<polygon fill="#c0c0c0" stroke="#c0c0c0" stroke-width="2" points="398.718,-975.3341 388.5997,-972.1924 394.5504,-980.9583 398.718,-975.3341"/>
</g>
<!-- 13 -->
<g id="node14" class="node">
<title>13</title>
<path fill="none" stroke="#d8bc56" stroke-width="2" d="M400.5,-1044C400.5,-1044 321.5,-1044 321.5,-1044 315.5,-1044 309.5,-1038 309.5,-1032 309.5,-1032 309.5,-1020 309.5,-1020 309.5,-1014 315.5,-1008 321.5,-1008 321.5,-1008 400.5,-1008 400.5,-1008 406.5,-1008 412.5,-1014 412.5,-1020 412.5,-1020 412.5,-1032 412.5,-1032 412.5,-1038 406.5,-1044 400.5,-1044"/>
<text text-anchor="middle" x="361" y="-1023.5" font-family="sans" font-size="10.00" fill="#000000">tree_modeltestng</text>
</g>
<!-- 7&#45;&gt;13 -->
<g id="edge21" class="edge">
<title>7&#45;&gt;13</title>
<path fill="none" stroke="#c0c0c0" stroke-width="2" d="M390.9063,-1079.8314C386.4403,-1071.7925 381.0925,-1062.1666 376.1621,-1053.2918"/>
<polygon fill="#c0c0c0" stroke="#c0c0c0" stroke-width="2" points="379.1456,-1051.4551 371.2296,-1044.4133 373.0265,-1054.8546 379.1456,-1051.4551"/>
</g>
<!-- 8&#45;&gt;3 -->
<g id="edge7" class="edge">
<title>8&#45;&gt;3</title>
<path fill="none" stroke="#c0c0c0" stroke-width="2" d="M379.2249,-935.8314C391.1628,-926.8779 405.7256,-915.9558 418.606,-906.2955"/>
<polygon fill="#c0c0c0" stroke="#c0c0c0" stroke-width="2" points="420.8829,-908.9629 426.7829,-900.1628 416.6829,-903.3629 420.8829,-908.9629"/>
</g>
<!-- 9 -->
<g id="node10" class="node">
<title>9</title>
<path fill="none" stroke="#d8d356" stroke-width="2" d="M326.5,-756C326.5,-756 229.5,-756 229.5,-756 223.5,-756 217.5,-750 217.5,-744 217.5,-744 217.5,-732 217.5,-732 217.5,-726 223.5,-720 229.5,-720 229.5,-720 326.5,-720 326.5,-720 332.5,-720 338.5,-726 338.5,-732 338.5,-732 338.5,-744 338.5,-744 338.5,-750 332.5,-756 326.5,-756"/>
<text text-anchor="middle" x="278" y="-735.5" font-family="sans" font-size="10.00" fill="#000000">selection_ete3_group</text>
</g>
<!-- 9&#45;&gt;4 -->
<g id="edge9" class="edge">
<title>9&#45;&gt;4</title>
<path fill="none" stroke="#c0c0c0" stroke-width="2" d="M279.036,-719.8216C280.5005,-692.5143 283,-639.2773 283,-594 283,-594 283,-594 283,-378 283,-337.1184 287.4227,-326.1944 302,-288 305.5101,-278.8032 310.4454,-269.3165 315.348,-260.9099"/>
<polygon fill="#c0c0c0" stroke="#c0c0c0" stroke-width="2" points="318.3912,-262.6416 320.586,-252.2765 312.4065,-259.0106 318.3912,-262.6416"/>
</g>
<!-- 23 -->
<g id="node24" class="node">
<title>23</title>
<path fill="none" stroke="#59d856" stroke-width="2" d="M243,-684C243,-684 103,-684 103,-684 97,-684 91,-678 91,-672 91,-672 91,-660 91,-660 91,-654 97,-648 103,-648 103,-648 243,-648 243,-648 249,-648 255,-654 255,-660 255,-660 255,-672 255,-672 255,-678 249,-684 243,-684"/>
<text text-anchor="middle" x="173" y="-663.5" font-family="sans" font-size="10.00" fill="#000000">selection_trees_filtered_group</text>
</g>
<!-- 9&#45;&gt;23 -->
<g id="edge35" class="edge">
<title>9&#45;&gt;23</title>
<path fill="none" stroke="#c0c0c0" stroke-width="2" d="M251.5041,-719.8314C238.3226,-710.7927 222.2153,-699.7476 208.0289,-690.0198"/>
<polygon fill="#c0c0c0" stroke="#c0c0c0" stroke-width="2" points="209.7141,-686.9316 199.4875,-684.1628 205.7554,-692.7047 209.7141,-686.9316"/>
</g>
<!-- 10&#45;&gt;4 -->
<g id="edge10" class="edge">
<title>10&#45;&gt;4</title>
<path fill="none" stroke="#c0c0c0" stroke-width="2" d="M374.1212,-287.8314C367.7864,-279.5386 360.1616,-269.557 353.2074,-260.4533"/>
<polygon fill="#c0c0c0" stroke="#c0c0c0" stroke-width="2" points="355.9175,-258.2353 347.0657,-252.4133 350.3548,-262.4847 355.9175,-258.2353"/>
</g>
<!-- 11 -->
<g id="node12" class="node">
<title>11</title>
<path fill="none" stroke="#565bd8" stroke-width="2" d="M232,-468C232,-468 128,-468 128,-468 122,-468 116,-462 116,-456 116,-456 116,-444 116,-444 116,-438 122,-432 128,-432 128,-432 232,-432 232,-432 238,-432 244,-438 244,-444 244,-444 244,-456 244,-456 244,-462 238,-468 232,-468"/>
<text text-anchor="middle" x="180" y="-447.5" font-family="sans" font-size="10.00" fill="#000000">selection_trimal_group</text>
</g>
<!-- 11&#45;&gt;5 -->
<g id="edge11" class="edge">
<title>11&#45;&gt;5</title>
<path fill="none" stroke="#c0c0c0" stroke-width="2" d="M180.5047,-431.8314C180.7186,-424.131 180.9729,-414.9743 181.2106,-406.4166"/>
<polygon fill="#c0c0c0" stroke="#c0c0c0" stroke-width="2" points="184.7094,-406.5066 181.4885,-396.4133 177.7121,-406.3122 184.7094,-406.5066"/>
</g>
<!-- 12 -->
<g id="node13" class="node">
<title>12</title>
<path fill="none" stroke="#56a2d8" stroke-width="2" d="M398.5,-1188C398.5,-1188 321.5,-1188 321.5,-1188 315.5,-1188 309.5,-1182 309.5,-1176 309.5,-1176 309.5,-1164 309.5,-1164 309.5,-1158 315.5,-1152 321.5,-1152 321.5,-1152 398.5,-1152 398.5,-1152 404.5,-1152 410.5,-1158 410.5,-1164 410.5,-1164 410.5,-1176 410.5,-1176 410.5,-1182 404.5,-1188 398.5,-1188"/>
<text text-anchor="middle" x="360" y="-1167.5" font-family="sans" font-size="10.00" fill="#000000">tree_supermatrix</text>
</g>
<!-- 12&#45;&gt;7 -->
<g id="edge12" class="edge">
<title>12&#45;&gt;7</title>
<path fill="none" stroke="#c0c0c0" stroke-width="2" d="M370.346,-1151.8314C374.9237,-1143.7925 380.4052,-1134.1666 385.4588,-1125.2918"/>
<polygon fill="#c0c0c0" stroke="#c0c0c0" stroke-width="2" points="388.6077,-1126.8351 390.5147,-1116.4133 382.5248,-1123.3712 388.6077,-1126.8351"/>
</g>
<!-- 13&#45;&gt;8 -->
<g id="edge14" class="edge">
<title>13&#45;&gt;8</title>
<path fill="none" stroke="#c0c0c0" stroke-width="2" d="M359.4859,-1007.8314C358.8442,-1000.131 358.0812,-990.9743 357.3681,-982.4166"/>
<polygon fill="#c0c0c0" stroke="#c0c0c0" stroke-width="2" points="360.8529,-982.088 356.5344,-972.4133 353.8771,-982.6694 360.8529,-982.088"/>
</g>
<!-- 14 -->
<g id="node15" class="node">
<title>14</title>
<path fill="none" stroke="#d6d856" stroke-width="2" d="M350.5,-1404C350.5,-1404 219.5,-1404 219.5,-1404 213.5,-1404 207.5,-1398 207.5,-1392 207.5,-1392 207.5,-1380 207.5,-1380 207.5,-1374 213.5,-1368 219.5,-1368 219.5,-1368 350.5,-1368 350.5,-1368 356.5,-1368 362.5,-1374 362.5,-1380 362.5,-1380 362.5,-1392 362.5,-1392 362.5,-1398 356.5,-1404 350.5,-1404"/>
<text text-anchor="middle" x="285" y="-1383.5" font-family="sans" font-size="10.00" fill="#000000">homologs_refine2_maxalign</text>
</g>
<!-- 14&#45;&gt;9 -->
<g id="edge16" class="edge">
<title>14&#45;&gt;9</title>
<path fill="none" stroke="#c0c0c0" stroke-width="2" d="M284.1712,-1367.8191C282.9996,-1340.5085 281,-1287.2675 281,-1242 281,-1242 281,-1242 281,-882 281,-841.8673 279.8208,-795.4566 278.9411,-766.414"/>
<polygon fill="#c0c0c0" stroke="#c0c0c0" stroke-width="2" points="282.4321,-766.0687 278.6216,-756.1828 275.4355,-766.2872 282.4321,-766.0687"/>
</g>
<!-- 14&#45;&gt;15 -->
<g id="edge23" class="edge">
<title>14&#45;&gt;15</title>
<path fill="none" stroke="#c0c0c0" stroke-width="2" d="M269.9086,-1367.7475C249.8752,-1341.6068 217,-1291.2121 217,-1242 217,-1242 217,-1242 217,-954 217,-913.2738 206.804,-867.0849 199.182,-838.2458"/>
<polygon fill="#c0c0c0" stroke="#c0c0c0" stroke-width="2" points="202.5185,-837.1771 196.5139,-828.4481 195.7644,-839.0164 202.5185,-837.1771"/>
</g>
<!-- 20 -->
<g id="node21" class="node">
<title>20</title>
<path fill="none" stroke="#56d8d0" stroke-width="2" d="M363.5,-1332C363.5,-1332 328.5,-1332 328.5,-1332 322.5,-1332 316.5,-1326 316.5,-1320 316.5,-1320 316.5,-1308 316.5,-1308 316.5,-1302 322.5,-1296 328.5,-1296 328.5,-1296 363.5,-1296 363.5,-1296 369.5,-1296 375.5,-1302 375.5,-1308 375.5,-1308 375.5,-1320 375.5,-1320 375.5,-1326 369.5,-1332 363.5,-1332"/>
<text text-anchor="middle" x="346" y="-1311.5" font-family="sans" font-size="10.00" fill="#000000">tree_4ds</text>
</g>
<!-- 14&#45;&gt;20 -->
<g id="edge30" class="edge">
<title>14&#45;&gt;20</title>
<path fill="none" stroke="#c0c0c0" stroke-width="2" d="M300.3929,-1367.8314C307.4904,-1359.454 316.048,-1349.3531 323.824,-1340.1749"/>
<polygon fill="#c0c0c0" stroke="#c0c0c0" stroke-width="2" points="326.6061,-1342.3056 330.3999,-1332.4133 321.2652,-1337.7807 326.6061,-1342.3056"/>
</g>
<!-- 15&#45;&gt;9 -->
<g id="edge15" class="edge">
<title>15&#45;&gt;9</title>
<path fill="none" stroke="#c0c0c0" stroke-width="2" d="M212.9538,-791.8314C223.6695,-782.9632 236.7189,-772.1637 248.309,-762.5718"/>
<polygon fill="#c0c0c0" stroke="#c0c0c0" stroke-width="2" points="250.5808,-765.2349 256.0533,-756.1628 246.1178,-759.8422 250.5808,-765.2349"/>
</g>
<!-- 15&#45;&gt;23 -->
<g id="edge36" class="edge">
<title>15&#45;&gt;23</title>
<path fill="none" stroke="#c0c0c0" stroke-width="2" d="M188.7203,-791.7623C185.6501,-767.201 180.1559,-723.2474 176.5443,-694.3541"/>
<polygon fill="#c0c0c0" stroke="#c0c0c0" stroke-width="2" points="179.9746,-693.5782 175.2612,-684.0896 173.0287,-694.4465 179.9746,-693.5782"/>
</g>
<!-- 16 -->
<g id="node17" class="node">
<title>16</title>
<path fill="none" stroke="#88d856" stroke-width="2" d="M235.5,-540C235.5,-540 116.5,-540 116.5,-540 110.5,-540 104.5,-534 104.5,-528 104.5,-528 104.5,-516 104.5,-516 104.5,-510 110.5,-504 116.5,-504 116.5,-504 235.5,-504 235.5,-504 241.5,-504 247.5,-510 247.5,-516 247.5,-516 247.5,-528 247.5,-528 247.5,-534 241.5,-540 235.5,-540"/>
<text text-anchor="middle" x="176" y="-519.5" font-family="sans" font-size="10.00" fill="#000000">selection_guidance_group</text>
</g>
<!-- 16&#45;&gt;11 -->
<g id="edge19" class="edge">
<title>16&#45;&gt;11</title>
<path fill="none" stroke="#c0c0c0" stroke-width="2" d="M177.0094,-503.8314C177.4372,-496.131 177.9459,-486.9743 178.4213,-478.4166"/>
<polygon fill="#c0c0c0" stroke="#c0c0c0" stroke-width="2" points="181.9169,-478.592 178.977,-468.4133 174.9276,-478.2037 181.9169,-478.592"/>
</g>
<!-- 17 -->
<g id="node18" class="node">
<title>17</title>
<path fill="none" stroke="#d88d56" stroke-width="2" d="M381.5,-1260C381.5,-1260 326.5,-1260 326.5,-1260 320.5,-1260 314.5,-1254 314.5,-1248 314.5,-1248 314.5,-1236 314.5,-1236 314.5,-1230 320.5,-1224 326.5,-1224 326.5,-1224 381.5,-1224 381.5,-1224 387.5,-1224 393.5,-1230 393.5,-1236 393.5,-1236 393.5,-1248 393.5,-1248 393.5,-1254 387.5,-1260 381.5,-1260"/>
<text text-anchor="middle" x="354" y="-1239.5" font-family="sans" font-size="10.00" fill="#000000">tree_prepare</text>
</g>
<!-- 17&#45;&gt;12 -->
<g id="edge20" class="edge">
<title>17&#45;&gt;12</title>
<path fill="none" stroke="#c0c0c0" stroke-width="2" d="M355.5141,-1223.8314C356.1558,-1216.131 356.9188,-1206.9743 357.6319,-1198.4166"/>
<polygon fill="#c0c0c0" stroke="#c0c0c0" stroke-width="2" points="361.1229,-1198.6694 358.4656,-1188.4133 354.1471,-1198.088 361.1229,-1198.6694"/>
</g>
<!-- 18 -->
<g id="node19" class="node">
<title>18</title>
<path fill="none" stroke="#5692d8" stroke-width="2" d="M339.5,-1476C339.5,-1476 234.5,-1476 234.5,-1476 228.5,-1476 222.5,-1470 222.5,-1464 222.5,-1464 222.5,-1452 222.5,-1452 222.5,-1446 228.5,-1440 234.5,-1440 234.5,-1440 339.5,-1440 339.5,-1440 345.5,-1440 351.5,-1446 351.5,-1452 351.5,-1452 351.5,-1464 351.5,-1464 351.5,-1470 345.5,-1476 339.5,-1476"/>
<text text-anchor="middle" x="287" y="-1455.5" font-family="sans" font-size="10.00" fill="#000000">homologs_refine2_trim</text>
</g>
<!-- 18&#45;&gt;14 -->
<g id="edge22" class="edge">
<title>18&#45;&gt;14</title>
<path fill="none" stroke="#c0c0c0" stroke-width="2" d="M286.4953,-1439.8314C286.2814,-1432.131 286.0271,-1422.9743 285.7894,-1414.4166"/>
<polygon fill="#c0c0c0" stroke="#c0c0c0" stroke-width="2" points="289.2879,-1414.3122 285.5115,-1404.4133 282.2906,-1414.5066 289.2879,-1414.3122"/>
</g>
<!-- 19 -->
<g id="node20" class="node">
<title>19</title>
<path fill="none" stroke="#56d8d0" stroke-width="2" d="M238.5,-612C238.5,-612 107.5,-612 107.5,-612 101.5,-612 95.5,-606 95.5,-600 95.5,-600 95.5,-588 95.5,-588 95.5,-582 101.5,-576 107.5,-576 107.5,-576 238.5,-576 238.5,-576 244.5,-576 250.5,-582 250.5,-588 250.5,-588 250.5,-600 250.5,-600 250.5,-606 244.5,-612 238.5,-612"/>
<text text-anchor="middle" x="173" y="-591.5" font-family="sans" font-size="10.00" fill="#000000">selection_cds_filtered_group</text>
</g>
<!-- 19&#45;&gt;16 -->
<g id="edge25" class="edge">
<title>19&#45;&gt;16</title>
<path fill="none" stroke="#c0c0c0" stroke-width="2" d="M173.757,-575.8314C174.0779,-568.131 174.4594,-558.9743 174.816,-550.4166"/>
<polygon fill="#c0c0c0" stroke="#c0c0c0" stroke-width="2" points="178.3133,-550.5503 175.2328,-540.4133 171.3194,-550.2589 178.3133,-550.5503"/>
</g>
<!-- 20&#45;&gt;17 -->
<g id="edge26" class="edge">
<title>20&#45;&gt;17</title>
<path fill="none" stroke="#c0c0c0" stroke-width="2" d="M348.0187,-1295.8314C348.8743,-1288.131 349.8917,-1278.9743 350.8426,-1270.4166"/>
<polygon fill="#c0c0c0" stroke="#c0c0c0" stroke-width="2" points="354.3283,-1270.7386 351.9541,-1260.4133 347.3711,-1269.9656 354.3283,-1270.7386"/>
</g>
<!-- 21 -->
<g id="node22" class="node">
<title>21</title>
<path fill="none" stroke="#70d856" stroke-width="2" d="M386.5,-1548C386.5,-1548 195.5,-1548 195.5,-1548 189.5,-1548 183.5,-1542 183.5,-1536 183.5,-1536 183.5,-1524 183.5,-1524 183.5,-1518 189.5,-1512 195.5,-1512 195.5,-1512 386.5,-1512 386.5,-1512 392.5,-1512 398.5,-1518 398.5,-1524 398.5,-1524 398.5,-1536 398.5,-1536 398.5,-1542 392.5,-1548 386.5,-1548"/>
<text text-anchor="middle" x="291" y="-1527.5" font-family="sans" font-size="10.00" fill="#000000">homologs_refine2_tcoffee_backtranslate</text>
</g>
<!-- 21&#45;&gt;18 -->
<g id="edge27" class="edge">
<title>21&#45;&gt;18</title>
<path fill="none" stroke="#c0c0c0" stroke-width="2" d="M289.9906,-1511.8314C289.5628,-1504.131 289.0541,-1494.9743 288.5787,-1486.4166"/>
<polygon fill="#c0c0c0" stroke="#c0c0c0" stroke-width="2" points="292.0724,-1486.2037 288.023,-1476.4133 285.0831,-1486.592 292.0724,-1486.2037"/>
</g>
<!-- 22 -->
<g id="node23" class="node">
<title>22</title>
<path fill="none" stroke="#56d8d8" stroke-width="2" d="M98,-2412C98,-2412 12,-2412 12,-2412 6,-2412 0,-2406 0,-2400 0,-2400 0,-2388 0,-2388 0,-2382 6,-2376 12,-2376 12,-2376 98,-2376 98,-2376 104,-2376 110,-2382 110,-2388 110,-2388 110,-2400 110,-2400 110,-2406 104,-2412 98,-2412"/>
<text text-anchor="middle" x="55" y="-2391.5" font-family="sans" font-size="10.00" fill="#000000">homologs_join_cds</text>
</g>
<!-- 22&#45;&gt;19 -->
<g id="edge28" class="edge">
<title>22&#45;&gt;19</title>
<path fill="none" stroke="#c0c0c0" stroke-width="2" d="M53.964,-2375.8216C52.4995,-2348.5143 50,-2295.2773 50,-2250 50,-2250 50,-2250 50,-738 50,-695.5468 55.0285,-680.7843 82,-648 92.2444,-635.5478 106.1615,-625.2864 120.0286,-617.1773"/>
<polygon fill="#c0c0c0" stroke="#c0c0c0" stroke-width="2" points="122.0415,-620.0636 129.0949,-612.1579 118.6509,-613.9395 122.0415,-620.0636"/>
</g>
<!-- 36 -->
<g id="node37" class="node">
<title>36</title>
<path fill="none" stroke="#56d86b" stroke-width="2" d="M264,-2340C264,-2340 154,-2340 154,-2340 148,-2340 142,-2334 142,-2328 142,-2328 142,-2316 142,-2316 142,-2310 148,-2304 154,-2304 154,-2304 264,-2304 264,-2304 270,-2304 276,-2310 276,-2316 276,-2316 276,-2328 276,-2328 276,-2334 270,-2340 264,-2340"/>
<text text-anchor="middle" x="209" y="-2319.5" font-family="sans" font-size="10.00" fill="#000000">homologs_refine1_fasta</text>
</g>
<!-- 22&#45;&gt;36 -->
<g id="edge50" class="edge">
<title>22&#45;&gt;36</title>
<path fill="none" stroke="#c0c0c0" stroke-width="2" d="M93.8607,-2375.8314C114.2742,-2366.2874 139.4723,-2354.5065 161.086,-2344.4013"/>
<polygon fill="#c0c0c0" stroke="#c0c0c0" stroke-width="2" points="162.8423,-2347.4439 170.4187,-2340.038 159.8775,-2341.1027 162.8423,-2347.4439"/>
</g>
<!-- 23&#45;&gt;19 -->
<g id="edge29" class="edge">
<title>23&#45;&gt;19</title>
<path fill="none" stroke="#c0c0c0" stroke-width="2" d="M173,-647.8314C173,-640.131 173,-630.9743 173,-622.4166"/>
<polygon fill="#c0c0c0" stroke="#c0c0c0" stroke-width="2" points="176.5001,-622.4132 173,-612.4133 169.5001,-622.4133 176.5001,-622.4132"/>
</g>
<!-- 24 -->
<g id="node25" class="node">
<title>24</title>
<path fill="none" stroke="#565bd8" stroke-width="2" d="M353,-1836C353,-1836 243,-1836 243,-1836 237,-1836 231,-1830 231,-1824 231,-1824 231,-1812 231,-1812 231,-1806 237,-1800 243,-1800 243,-1800 353,-1800 353,-1800 359,-1800 365,-1806 365,-1812 365,-1812 365,-1824 365,-1824 365,-1830 359,-1836 353,-1836"/>
<text text-anchor="middle" x="298" y="-1815.5" font-family="sans" font-size="10.00" fill="#000000">homologs_refine2_fasta</text>
</g>
<!-- 24&#45;&gt;21 -->
<g id="edge32" class="edge">
<title>24&#45;&gt;21</title>
<path fill="none" stroke="#c0c0c0" stroke-width="2" d="M305.6679,-1799.8756C309.6139,-1789.5642 314.0055,-1776.2907 316,-1764 327.9963,-1690.0757 309.9954,-1602.0431 298.8049,-1558.0076"/>
<polygon fill="#c0c0c0" stroke="#c0c0c0" stroke-width="2" points="302.181,-1557.0835 296.2637,-1548.2951 295.4089,-1558.8554 302.181,-1557.0835"/>
</g>
<!-- 29 -->
<g id="node30" class="node">
<title>29</title>
<path fill="none" stroke="#56d873" stroke-width="2" d="M295.5,-1764C295.5,-1764 128.5,-1764 128.5,-1764 122.5,-1764 116.5,-1758 116.5,-1752 116.5,-1752 116.5,-1740 116.5,-1740 116.5,-1734 122.5,-1728 128.5,-1728 128.5,-1728 295.5,-1728 295.5,-1728 301.5,-1728 307.5,-1734 307.5,-1740 307.5,-1740 307.5,-1752 307.5,-1752 307.5,-1758 301.5,-1764 295.5,-1764"/>
<text text-anchor="middle" x="212" y="-1743.5" font-family="sans" font-size="10.00" fill="#000000">homologs_refine2_tcoffee_translate</text>
</g>
<!-- 24&#45;&gt;29 -->
<g id="edge43" class="edge">
<title>24&#45;&gt;29</title>
<path fill="none" stroke="#c0c0c0" stroke-width="2" d="M276.2986,-1799.8314C265.8079,-1791.0485 253.0545,-1780.3712 241.6806,-1770.8489"/>
<polygon fill="#c0c0c0" stroke="#c0c0c0" stroke-width="2" points="243.6089,-1767.8986 233.6945,-1764.1628 239.1153,-1773.2659 243.6089,-1767.8986"/>
</g>
<!-- 25 -->
<g id="node26" class="node">
<title>25</title>
<path fill="none" stroke="#56d0d8" stroke-width="2" d="M286,-1692C286,-1692 138,-1692 138,-1692 132,-1692 126,-1686 126,-1680 126,-1680 126,-1668 126,-1668 126,-1662 132,-1656 138,-1656 138,-1656 286,-1656 286,-1656 292,-1656 298,-1662 298,-1668 298,-1668 298,-1680 298,-1680 298,-1686 292,-1692 286,-1692"/>
<text text-anchor="middle" x="212" y="-1671.5" font-family="sans" font-size="10.00" fill="#000000">homologs_refine2_tcoffee_align</text>
</g>
<!-- 25&#45;&gt;21 -->
<g id="edge31" class="edge">
<title>25&#45;&gt;21</title>
<path fill="none" stroke="#c0c0c0" stroke-width="2" d="M243.0711,-1655.9103C255.9472,-1646.7939 269.7709,-1634.5657 278,-1620 288.5812,-1601.2711 291.5814,-1576.9826 292.0731,-1558.3586"/>
<polygon fill="#c0c0c0" stroke="#c0c0c0" stroke-width="2" points="295.5738,-1558.1455 292.1111,-1548.1325 288.5739,-1558.1194 295.5738,-1558.1455"/>
</g>
<!-- 26 -->
<g id="node27" class="node">
<title>26</title>
<path fill="none" stroke="#d87556" stroke-width="2" d="M257.5,-1620C257.5,-1620 90.5,-1620 90.5,-1620 84.5,-1620 78.5,-1614 78.5,-1608 78.5,-1608 78.5,-1596 78.5,-1596 78.5,-1590 84.5,-1584 90.5,-1584 90.5,-1584 257.5,-1584 257.5,-1584 263.5,-1584 269.5,-1590 269.5,-1596 269.5,-1596 269.5,-1608 269.5,-1608 269.5,-1614 263.5,-1620 257.5,-1620"/>
<text text-anchor="middle" x="174" y="-1599.5" font-family="sans" font-size="10.00" fill="#000000">homologs_refine2_tcoffee_evaluate</text>
</g>
<!-- 25&#45;&gt;26 -->
<g id="edge39" class="edge">
<title>25&#45;&gt;26</title>
<path fill="none" stroke="#c0c0c0" stroke-width="2" d="M202.411,-1655.8314C198.1683,-1647.7925 193.0879,-1638.1666 188.404,-1629.2918"/>
<polygon fill="#c0c0c0" stroke="#c0c0c0" stroke-width="2" points="191.4811,-1627.6235 183.7181,-1620.4133 185.2904,-1630.8908 191.4811,-1627.6235"/>
</g>
<!-- 26&#45;&gt;21 -->
<g id="edge33" class="edge">
<title>26&#45;&gt;21</title>
<path fill="none" stroke="#c0c0c0" stroke-width="2" d="M203.524,-1583.8314C218.4891,-1574.6221 236.8386,-1563.3301 252.8603,-1553.4706"/>
<polygon fill="#c0c0c0" stroke="#c0c0c0" stroke-width="2" points="254.8032,-1556.3847 261.4854,-1548.1628 251.1345,-1550.423 254.8032,-1556.3847"/>
</g>
<!-- 27 -->
<g id="node28" class="node">
<title>27</title>
<path fill="none" stroke="#56b1d8" stroke-width="2" d="M88,-2484C88,-2484 22,-2484 22,-2484 16,-2484 10,-2478 10,-2472 10,-2472 10,-2460 10,-2460 10,-2454 16,-2448 22,-2448 22,-2448 88,-2448 88,-2448 94,-2448 100,-2454 100,-2460 100,-2460 100,-2472 100,-2472 100,-2478 94,-2484 88,-2484"/>
<text text-anchor="middle" x="55" y="-2463.5" font-family="sans" font-size="10.00" fill="#000000">cdhit_filter_cds</text>
</g>
<!-- 27&#45;&gt;22 -->
<g id="edge34" class="edge">
<title>27&#45;&gt;22</title>
<path fill="none" stroke="#c0c0c0" stroke-width="2" d="M55,-2447.8314C55,-2440.131 55,-2430.9743 55,-2422.4166"/>
<polygon fill="#c0c0c0" stroke="#c0c0c0" stroke-width="2" points="58.5001,-2422.4132 55,-2412.4133 51.5001,-2422.4133 58.5001,-2422.4132"/>
</g>
<!-- 28 -->
<g id="node29" class="node">
<title>28</title>
<path fill="none" stroke="#56d8a2" stroke-width="2" d="M363.5,-1908C363.5,-1908 232.5,-1908 232.5,-1908 226.5,-1908 220.5,-1902 220.5,-1896 220.5,-1896 220.5,-1884 220.5,-1884 220.5,-1878 226.5,-1872 232.5,-1872 232.5,-1872 363.5,-1872 363.5,-1872 369.5,-1872 375.5,-1878 375.5,-1884 375.5,-1884 375.5,-1896 375.5,-1896 375.5,-1902 369.5,-1908 363.5,-1908"/>
<text text-anchor="middle" x="298" y="-1887.5" font-family="sans" font-size="10.00" fill="#000000">homologs_refine1_maxalign</text>
</g>
<!-- 28&#45;&gt;24 -->
<g id="edge37" class="edge">
<title>28&#45;&gt;24</title>
<path fill="none" stroke="#c0c0c0" stroke-width="2" d="M298,-1871.8314C298,-1864.131 298,-1854.9743 298,-1846.4166"/>
<polygon fill="#c0c0c0" stroke="#c0c0c0" stroke-width="2" points="301.5001,-1846.4132 298,-1836.4133 294.5001,-1846.4133 301.5001,-1846.4132"/>
</g>
<!-- 29&#45;&gt;25 -->
<g id="edge38" class="edge">
<title>29&#45;&gt;25</title>
<path fill="none" stroke="#c0c0c0" stroke-width="2" d="M212,-1727.8314C212,-1720.131 212,-1710.9743 212,-1702.4166"/>
<polygon fill="#c0c0c0" stroke="#c0c0c0" stroke-width="2" points="215.5001,-1702.4132 212,-1692.4133 208.5001,-1702.4133 215.5001,-1702.4132"/>
</g>
<!-- 30 -->
<g id="node31" class="node">
<title>30</title>
<path fill="none" stroke="#56d8c1" stroke-width="2" d="M72,-2556C72,-2556 16,-2556 16,-2556 10,-2556 4,-2550 4,-2544 4,-2544 4,-2532 4,-2532 4,-2526 10,-2520 16,-2520 16,-2520 72,-2520 72,-2520 78,-2520 84,-2526 84,-2532 84,-2532 84,-2544 84,-2544 84,-2550 78,-2556 72,-2556"/>
<text text-anchor="middle" x="44" y="-2535.5" font-family="sans" font-size="10.00" fill="#000000">raw_link_cds</text>
</g>
<!-- 30&#45;&gt;27 -->
<g id="edge40" class="edge">
<title>30&#45;&gt;27</title>
<path fill="none" stroke="#c0c0c0" stroke-width="2" d="M46.7758,-2519.8314C47.9522,-2512.131 49.3511,-2502.9743 50.6586,-2494.4166"/>
<polygon fill="#c0c0c0" stroke="#c0c0c0" stroke-width="2" points="54.1364,-2494.8272 52.1869,-2484.4133 47.2167,-2493.7699 54.1364,-2494.8272"/>
</g>
<!-- 31 -->
<g id="node32" class="node">
<title>31</title>
<path fill="none" stroke="#a7d856" stroke-width="2" d="M149.5,-3924C149.5,-3924 88.5,-3924 88.5,-3924 82.5,-3924 76.5,-3918 76.5,-3912 76.5,-3912 76.5,-3900 76.5,-3900 76.5,-3894 82.5,-3888 88.5,-3888 88.5,-3888 149.5,-3888 149.5,-3888 155.5,-3888 161.5,-3894 161.5,-3900 161.5,-3900 161.5,-3912 161.5,-3912 161.5,-3918 155.5,-3924 149.5,-3924"/>
<text text-anchor="middle" x="119" y="-3903.5" font-family="sans" font-size="10.00" fill="#000000">generic_index</text>
</g>
<!-- 31&#45;&gt;27 -->
<g id="edge41" class="edge">
<title>31&#45;&gt;27</title>
<path fill="none" stroke="#c0c0c0" stroke-width="2" d="M117.5496,-3887.8284C115.4993,-3860.5296 112,-3807.3034 112,-3762 112,-3762 112,-3762 112,-2610 112,-2569.1184 109.3195,-2557.4831 93,-2520 88.8565,-2510.483 82.8901,-2500.9427 76.9088,-2492.5863"/>
<polygon fill="#c0c0c0" stroke="#c0c0c0" stroke-width="2" points="79.5419,-2490.2633 70.746,-2484.3571 73.9389,-2494.4594 79.5419,-2490.2633"/>
</g>
<!-- 32 -->
<g id="node33" class="node">
<title>32</title>
<path fill="none" stroke="#56d8b9" stroke-width="2" d="M350.5,-1980C350.5,-1980 245.5,-1980 245.5,-1980 239.5,-1980 233.5,-1974 233.5,-1968 233.5,-1968 233.5,-1956 233.5,-1956 233.5,-1950 239.5,-1944 245.5,-1944 245.5,-1944 350.5,-1944 350.5,-1944 356.5,-1944 362.5,-1950 362.5,-1956 362.5,-1956 362.5,-1968 362.5,-1968 362.5,-1974 356.5,-1980 350.5,-1980"/>
<text text-anchor="middle" x="298" y="-1959.5" font-family="sans" font-size="10.00" fill="#000000">homologs_refine1_trim</text>
</g>
<!-- 32&#45;&gt;28 -->
<g id="edge42" class="edge">
<title>32&#45;&gt;28</title>
<path fill="none" stroke="#c0c0c0" stroke-width="2" d="M298,-1943.8314C298,-1936.131 298,-1926.9743 298,-1918.4166"/>
<polygon fill="#c0c0c0" stroke="#c0c0c0" stroke-width="2" points="301.5001,-1918.4132 298,-1908.4133 294.5001,-1918.4133 301.5001,-1918.4132"/>
</g>
<!-- 33 -->
<g id="node34" class="node">
<title>33</title>
<path fill="none" stroke="#56c9d8" stroke-width="2" d="M216,-3996C216,-3996 176,-3996 176,-3996 170,-3996 164,-3990 164,-3984 164,-3984 164,-3972 164,-3972 164,-3966 170,-3960 176,-3960 176,-3960 216,-3960 216,-3960 222,-3960 228,-3966 228,-3972 228,-3972 228,-3984 228,-3984 228,-3990 222,-3996 216,-3996"/>
<text text-anchor="middle" x="196" y="-3975.5" font-family="sans" font-size="10.00" fill="#000000">cdhit_pep</text>
</g>
<!-- 33&#45;&gt;31 -->
<g id="edge44" class="edge">
<title>33&#45;&gt;31</title>
<path fill="none" stroke="#c0c0c0" stroke-width="2" d="M176.5696,-3959.8314C167.268,-3951.1337 155.9796,-3940.5783 145.8714,-3931.1265"/>
<polygon fill="#c0c0c0" stroke="#c0c0c0" stroke-width="2" points="148.1189,-3928.4363 138.4241,-3924.1628 143.3379,-3933.5493 148.1189,-3928.4363"/>
</g>
<!-- 50 -->
<g id="node51" class="node">
<title>50</title>
<path fill="none" stroke="#56c1d8" stroke-width="2" d="M239.5,-3636C239.5,-3636 152.5,-3636 152.5,-3636 146.5,-3636 140.5,-3630 140.5,-3624 140.5,-3624 140.5,-3612 140.5,-3612 140.5,-3606 146.5,-3600 152.5,-3600 152.5,-3600 239.5,-3600 239.5,-3600 245.5,-3600 251.5,-3606 251.5,-3612 251.5,-3612 251.5,-3624 251.5,-3624 251.5,-3630 245.5,-3636 239.5,-3636"/>
<text text-anchor="middle" x="196" y="-3615.5" font-family="sans" font-size="10.00" fill="#000000">homologs_join_pep</text>
</g>
<!-- 33&#45;&gt;50 -->
<g id="edge67" class="edge">
<title>33&#45;&gt;50</title>
<path fill="none" stroke="#c0c0c0" stroke-width="2" d="M196,-3959.8146C196,-3932.4983 196,-3879.25 196,-3834 196,-3834 196,-3834 196,-3762 196,-3721.876 196,-3675.4631 196,-3646.4177"/>
<polygon fill="#c0c0c0" stroke="#c0c0c0" stroke-width="2" points="199.5001,-3646.1853 196,-3636.1854 192.5001,-3646.1854 199.5001,-3646.1853"/>
</g>
<!-- 63 -->
<g id="node64" class="node">
<title>63</title>
<path fill="none" stroke="#d8c356" stroke-width="2" d="M348,-3924C348,-3924 250,-3924 250,-3924 244,-3924 238,-3918 238,-3912 238,-3912 238,-3900 238,-3900 238,-3894 244,-3888 250,-3888 250,-3888 348,-3888 348,-3888 354,-3888 360,-3894 360,-3900 360,-3900 360,-3912 360,-3912 360,-3918 354,-3924 348,-3924"/>
<text text-anchor="middle" x="299" y="-3903.5" font-family="sans" font-size="10.00" fill="#000000">orthofinder_parse_ids</text>
</g>
<!-- 33&#45;&gt;63 -->
<g id="edge82" class="edge">
<title>33&#45;&gt;63</title>
<path fill="none" stroke="#c0c0c0" stroke-width="2" d="M221.9912,-3959.8314C234.9216,-3950.7927 250.7222,-3939.7476 264.6383,-3930.0198"/>
<polygon fill="#c0c0c0" stroke="#c0c0c0" stroke-width="2" points="266.8263,-3932.7608 273.0171,-3924.1628 262.8157,-3927.0235 266.8263,-3932.7608"/>
</g>
<!-- 34 -->
<g id="node35" class="node">
<title>34</title>
<path fill="none" stroke="#ced856" stroke-width="2" d="M393.5,-2052C393.5,-2052 202.5,-2052 202.5,-2052 196.5,-2052 190.5,-2046 190.5,-2040 190.5,-2040 190.5,-2028 190.5,-2028 190.5,-2022 196.5,-2016 202.5,-2016 202.5,-2016 393.5,-2016 393.5,-2016 399.5,-2016 405.5,-2022 405.5,-2028 405.5,-2028 405.5,-2040 405.5,-2040 405.5,-2046 399.5,-2052 393.5,-2052"/>
<text text-anchor="middle" x="298" y="-2031.5" font-family="sans" font-size="10.00" fill="#000000">homologs_refine1_tcoffee_backtranslate</text>
</g>
<!-- 34&#45;&gt;32 -->
<g id="edge45" class="edge">
<title>34&#45;&gt;32</title>
<path fill="none" stroke="#c0c0c0" stroke-width="2" d="M298,-2015.8314C298,-2008.131 298,-1998.9743 298,-1990.4166"/>
<polygon fill="#c0c0c0" stroke="#c0c0c0" stroke-width="2" points="301.5001,-1990.4132 298,-1980.4133 294.5001,-1990.4133 301.5001,-1990.4132"/>
</g>
<!-- 35 -->
<g id="node36" class="node">
<title>35</title>
<path fill="none" stroke="#61d856" stroke-width="2" d="M224.5,-4068C224.5,-4068 167.5,-4068 167.5,-4068 161.5,-4068 155.5,-4062 155.5,-4056 155.5,-4056 155.5,-4044 155.5,-4044 155.5,-4038 161.5,-4032 167.5,-4032 167.5,-4032 224.5,-4032 224.5,-4032 230.5,-4032 236.5,-4038 236.5,-4044 236.5,-4044 236.5,-4056 236.5,-4056 236.5,-4062 230.5,-4068 224.5,-4068"/>
<text text-anchor="middle" x="196" y="-4047.5" font-family="sans" font-size="10.00" fill="#000000">raw_link_pep</text>
</g>
<!-- 35&#45;&gt;33 -->
<g id="edge46" class="edge">
<title>35&#45;&gt;33</title>
<path fill="none" stroke="#c0c0c0" stroke-width="2" d="M196,-4031.8314C196,-4024.131 196,-4014.9743 196,-4006.4166"/>
<polygon fill="#c0c0c0" stroke="#c0c0c0" stroke-width="2" points="199.5001,-4006.4132 196,-3996.4133 192.5001,-4006.4133 199.5001,-4006.4132"/>
</g>
<!-- 36&#45;&gt;34 -->
<g id="edge48" class="edge">
<title>36&#45;&gt;34</title>
<path fill="none" stroke="#c0c0c0" stroke-width="2" d="M269.5756,-2303.9994C286.5881,-2295.8421 303.1233,-2284.2569 313,-2268 352.5806,-2202.8505 326.2301,-2107.8066 309.2252,-2061.4623"/>
<polygon fill="#c0c0c0" stroke="#c0c0c0" stroke-width="2" points="312.4841,-2060.185 305.6626,-2052.0783 305.9398,-2062.6696 312.4841,-2060.185"/>
</g>
<!-- 40 -->
<g id="node41" class="node">
<title>40</title>
<path fill="none" stroke="#61d856" stroke-width="2" d="M292.5,-2268C292.5,-2268 125.5,-2268 125.5,-2268 119.5,-2268 113.5,-2262 113.5,-2256 113.5,-2256 113.5,-2244 113.5,-2244 113.5,-2238 119.5,-2232 125.5,-2232 125.5,-2232 292.5,-2232 292.5,-2232 298.5,-2232 304.5,-2238 304.5,-2244 304.5,-2244 304.5,-2256 304.5,-2256 304.5,-2262 298.5,-2268 292.5,-2268"/>
<text text-anchor="middle" x="209" y="-2247.5" font-family="sans" font-size="10.00" fill="#000000">homologs_refine1_tcoffee_translate</text>
</g>
<!-- 36&#45;&gt;40 -->
<g id="edge56" class="edge">
<title>36&#45;&gt;40</title>
<path fill="none" stroke="#c0c0c0" stroke-width="2" d="M209,-2303.8314C209,-2296.131 209,-2286.9743 209,-2278.4166"/>
<polygon fill="#c0c0c0" stroke="#c0c0c0" stroke-width="2" points="212.5001,-2278.4132 209,-2268.4133 205.5001,-2278.4133 212.5001,-2278.4132"/>
</g>
<!-- 37 -->
<g id="node38" class="node">
<title>37</title>
<path fill="none" stroke="#56b9d8" stroke-width="2" d="M283,-2196C283,-2196 135,-2196 135,-2196 129,-2196 123,-2190 123,-2184 123,-2184 123,-2172 123,-2172 123,-2166 129,-2160 135,-2160 135,-2160 283,-2160 283,-2160 289,-2160 295,-2166 295,-2172 295,-2172 295,-2184 295,-2184 295,-2190 289,-2196 283,-2196"/>
<text text-anchor="middle" x="209" y="-2175.5" font-family="sans" font-size="10.00" fill="#000000">homologs_refine1_tcoffee_align</text>
</g>
<!-- 37&#45;&gt;34 -->
<g id="edge47" class="edge">
<title>37&#45;&gt;34</title>
<path fill="none" stroke="#c0c0c0" stroke-width="2" d="M240.9528,-2159.885C254.3115,-2150.7638 268.83,-2138.5387 278,-2124 289.6894,-2105.4669 294.5961,-2081.0191 296.6316,-2062.2819"/>
<polygon fill="#c0c0c0" stroke="#c0c0c0" stroke-width="2" points="300.1229,-2062.5337 297.51,-2052.2661 293.1496,-2061.9221 300.1229,-2062.5337"/>
</g>
<!-- 38 -->
<g id="node39" class="node">
<title>38</title>
<path fill="none" stroke="#56d8b9" stroke-width="2" d="M257.5,-2124C257.5,-2124 90.5,-2124 90.5,-2124 84.5,-2124 78.5,-2118 78.5,-2112 78.5,-2112 78.5,-2100 78.5,-2100 78.5,-2094 84.5,-2088 90.5,-2088 90.5,-2088 257.5,-2088 257.5,-2088 263.5,-2088 269.5,-2094 269.5,-2100 269.5,-2100 269.5,-2112 269.5,-2112 269.5,-2118 263.5,-2124 257.5,-2124"/>
<text text-anchor="middle" x="174" y="-2103.5" font-family="sans" font-size="10.00" fill="#000000">homologs_refine1_tcoffee_evaluate</text>
</g>
<!-- 37&#45;&gt;38 -->
<g id="edge53" class="edge">
<title>37&#45;&gt;38</title>
<path fill="none" stroke="#c0c0c0" stroke-width="2" d="M200.168,-2159.8314C196.3014,-2151.8771 191.6794,-2142.369 187.4032,-2133.5723"/>
<polygon fill="#c0c0c0" stroke="#c0c0c0" stroke-width="2" points="190.4707,-2131.8768 182.9509,-2124.4133 184.1751,-2134.9371 190.4707,-2131.8768"/>
</g>
<!-- 38&#45;&gt;34 -->
<g id="edge49" class="edge">
<title>38&#45;&gt;34</title>
<path fill="none" stroke="#c0c0c0" stroke-width="2" d="M205.2904,-2087.8314C221.2977,-2078.5368 240.9586,-2067.1208 258.0494,-2057.1971"/>
<polygon fill="#c0c0c0" stroke="#c0c0c0" stroke-width="2" points="259.8292,-2060.211 266.7196,-2052.1628 256.3142,-2054.1575 259.8292,-2060.211"/>
</g>
<!-- 39 -->
<g id="node40" class="node">
<title>39</title>
<path fill="none" stroke="#d85656" stroke-width="2" d="M276,-2412C276,-2412 142,-2412 142,-2412 136,-2412 130,-2406 130,-2400 130,-2400 130,-2388 130,-2388 130,-2382 136,-2376 142,-2376 142,-2376 276,-2376 276,-2376 282,-2376 288,-2382 288,-2388 288,-2388 288,-2400 288,-2400 288,-2406 282,-2412 276,-2412"/>
<text text-anchor="middle" x="209" y="-2391.5" font-family="sans" font-size="10.00" fill="#000000">homologs_rt_prune_paralogs</text>
</g>
<!-- 39&#45;&gt;36 -->
<g id="edge51" class="edge">
<title>39&#45;&gt;36</title>
<path fill="none" stroke="#c0c0c0" stroke-width="2" d="M209,-2375.8314C209,-2368.131 209,-2358.9743 209,-2350.4166"/>
<polygon fill="#c0c0c0" stroke="#c0c0c0" stroke-width="2" points="212.5001,-2350.4132 209,-2340.4133 205.5001,-2350.4133 212.5001,-2350.4132"/>
</g>
<!-- 40&#45;&gt;37 -->
<g id="edge52" class="edge">
<title>40&#45;&gt;37</title>
<path fill="none" stroke="#c0c0c0" stroke-width="2" d="M209,-2231.8314C209,-2224.131 209,-2214.9743 209,-2206.4166"/>
<polygon fill="#c0c0c0" stroke="#c0c0c0" stroke-width="2" points="212.5001,-2206.4132 209,-2196.4133 205.5001,-2206.4133 212.5001,-2206.4132"/>
</g>
<!-- 41 -->
<g id="node42" class="node">
<title>41</title>
<path fill="none" stroke="#56d882" stroke-width="2" d="M267,-2484C267,-2484 133,-2484 133,-2484 127,-2484 121,-2478 121,-2472 121,-2472 121,-2460 121,-2460 121,-2454 127,-2448 133,-2448 133,-2448 267,-2448 267,-2448 273,-2448 279,-2454 279,-2460 279,-2460 279,-2472 279,-2472 279,-2478 273,-2484 267,-2484"/>
<text text-anchor="middle" x="200" y="-2463.5" font-family="sans" font-size="10.00" fill="#000000">homologs_create_taxa_inout</text>
</g>
<!-- 41&#45;&gt;39 -->
<g id="edge54" class="edge">
<title>41&#45;&gt;39</title>
<path fill="none" stroke="#c0c0c0" stroke-width="2" d="M202.2711,-2447.8314C203.2336,-2440.131 204.3782,-2430.9743 205.4479,-2422.4166"/>
<polygon fill="#c0c0c0" stroke="#c0c0c0" stroke-width="2" points="208.9309,-2422.7702 206.6983,-2412.4133 201.9849,-2421.9019 208.9309,-2422.7702"/>
</g>
<!-- 42 -->
<g id="node43" class="node">
<title>42</title>
<path fill="none" stroke="#97d856" stroke-width="2" d="M527,-2484C527,-2484 309,-2484 309,-2484 303,-2484 297,-2478 297,-2472 297,-2472 297,-2460 297,-2460 297,-2454 303,-2448 309,-2448 309,-2448 527,-2448 527,-2448 533,-2448 539,-2454 539,-2460 539,-2460 539,-2472 539,-2472 539,-2478 533,-2484 527,-2484"/>
<text text-anchor="middle" x="418" y="-2463.5" font-family="sans" font-size="10.00" fill="#000000">homologs_round2_cut_internal_long_branches</text>
</g>
<!-- 42&#45;&gt;39 -->
<g id="edge55" class="edge">
<title>42&#45;&gt;39</title>
<path fill="none" stroke="#c0c0c0" stroke-width="2" d="M365.5302,-2447.9243C336.8345,-2438.0387 301.1112,-2425.7321 271.04,-2415.3726"/>
<polygon fill="#c0c0c0" stroke="#c0c0c0" stroke-width="2" points="272.0861,-2412.0312 261.4913,-2412.0831 269.806,-2418.6495 272.0861,-2412.0312"/>
</g>
<!-- 43 -->
<g id="node44" class="node">
<title>43</title>
<path fill="none" stroke="#80d856" stroke-width="2" d="M518,-2556C518,-2556 318,-2556 318,-2556 312,-2556 306,-2550 306,-2544 306,-2544 306,-2532 306,-2532 306,-2526 312,-2520 318,-2520 318,-2520 518,-2520 518,-2520 524,-2520 530,-2526 530,-2532 530,-2532 530,-2544 530,-2544 530,-2550 524,-2556 518,-2556"/>
<text text-anchor="middle" x="418" y="-2535.5" font-family="sans" font-size="10.00" fill="#000000">homologs_round2_mask_tips_by_taxon_id</text>
</g>
<!-- 43&#45;&gt;42 -->
<g id="edge57" class="edge">
<title>43&#45;&gt;42</title>
<path fill="none" stroke="#c0c0c0" stroke-width="2" d="M418,-2519.8314C418,-2512.131 418,-2502.9743 418,-2494.4166"/>
<polygon fill="#c0c0c0" stroke="#c0c0c0" stroke-width="2" points="421.5001,-2494.4132 418,-2484.4133 414.5001,-2494.4133 421.5001,-2494.4132"/>
</g>
<!-- 44 -->
<g id="node45" class="node">
<title>44</title>
<path fill="none" stroke="#d86e56" stroke-width="2" d="M488,-2628C488,-2628 360,-2628 360,-2628 354,-2628 348,-2622 348,-2616 348,-2616 348,-2604 348,-2604 348,-2598 354,-2592 360,-2592 360,-2592 488,-2592 488,-2592 494,-2592 500,-2598 500,-2604 500,-2604 500,-2616 500,-2616 500,-2622 494,-2628 488,-2628"/>
<text text-anchor="middle" x="424" y="-2607.5" font-family="sans" font-size="10.00" fill="#000000">homologs_round2_trim_tips</text>
</g>
<!-- 44&#45;&gt;43 -->
<g id="edge58" class="edge">
<title>44&#45;&gt;43</title>
<path fill="none" stroke="#c0c0c0" stroke-width="2" d="M422.4859,-2591.8314C421.8442,-2584.131 421.0812,-2574.9743 420.3681,-2566.4166"/>
<polygon fill="#c0c0c0" stroke="#c0c0c0" stroke-width="2" points="423.8529,-2566.088 419.5344,-2556.4133 416.8771,-2566.6694 423.8529,-2566.088"/>
</g>
<!-- 45 -->
<g id="node46" class="node">
<title>45</title>
<path fill="none" stroke="#d88d56" stroke-width="2" d="M401,-2844C401,-2844 285,-2844 285,-2844 279,-2844 273,-2838 273,-2832 273,-2832 273,-2820 273,-2820 273,-2814 279,-2808 285,-2808 285,-2808 401,-2808 401,-2808 407,-2808 413,-2814 413,-2820 413,-2820 413,-2832 413,-2832 413,-2838 407,-2844 401,-2844"/>
<text text-anchor="middle" x="343" y="-2823.5" font-family="sans" font-size="10.00" fill="#000000">homologs_round2_pxclsq</text>
</g>
<!-- 45&#45;&gt;43 -->
<g id="edge59" class="edge">
<title>45&#45;&gt;43</title>
<path fill="none" stroke="#c0c0c0" stroke-width="2" d="M336.8073,-2807.7411C323.8943,-2766.1863 298.5028,-2662.6861 339,-2592 346.0444,-2579.7044 357.1648,-2569.6075 368.863,-2561.6091"/>
<polygon fill="#c0c0c0" stroke="#c0c0c0" stroke-width="2" points="370.8762,-2564.4766 377.4332,-2556.1545 367.1176,-2558.5712 370.8762,-2564.4766"/>
</g>
<!-- 48 -->
<g id="node49" class="node">
<title>48</title>
<path fill="none" stroke="#d85e56" stroke-width="2" d="M520,-2772C520,-2772 350,-2772 350,-2772 344,-2772 338,-2766 338,-2760 338,-2760 338,-2748 338,-2748 338,-2742 344,-2736 350,-2736 350,-2736 520,-2736 520,-2736 526,-2736 532,-2742 532,-2748 532,-2748 532,-2760 532,-2760 532,-2766 526,-2772 520,-2772"/>
<text text-anchor="middle" x="435" y="-2751.5" font-family="sans" font-size="10.00" fill="#000000">homologs_round2_raxmlng_reduced</text>
</g>
<!-- 45&#45;&gt;48 -->
<g id="edge64" class="edge">
<title>45&#45;&gt;48</title>
<path fill="none" stroke="#c0c0c0" stroke-width="2" d="M366.2155,-2807.8314C377.547,-2798.9632 391.3464,-2788.1637 403.6027,-2778.5718"/>
<polygon fill="#c0c0c0" stroke="#c0c0c0" stroke-width="2" points="406.074,-2781.0822 411.7919,-2772.1628 401.7598,-2775.5697 406.074,-2781.0822"/>
</g>
<!-- 46 -->
<g id="node47" class="node">
<title>46</title>
<path fill="none" stroke="#56d8b1" stroke-width="2" d="M487.5,-2700C487.5,-2700 362.5,-2700 362.5,-2700 356.5,-2700 350.5,-2694 350.5,-2688 350.5,-2688 350.5,-2676 350.5,-2676 350.5,-2670 356.5,-2664 362.5,-2664 362.5,-2664 487.5,-2664 487.5,-2664 493.5,-2664 499.5,-2670 499.5,-2676 499.5,-2676 499.5,-2688 499.5,-2688 499.5,-2694 493.5,-2700 487.5,-2700"/>
<text text-anchor="middle" x="425" y="-2679.5" font-family="sans" font-size="10.00" fill="#000000">homologs_round2_raxmlng</text>
</g>
<!-- 46&#45;&gt;44 -->
<g id="edge60" class="edge">
<title>46&#45;&gt;44</title>
<path fill="none" stroke="#c0c0c0" stroke-width="2" d="M424.7477,-2663.8314C424.6407,-2656.131 424.5135,-2646.9743 424.3947,-2638.4166"/>
<polygon fill="#c0c0c0" stroke="#c0c0c0" stroke-width="2" points="427.8944,-2638.3637 424.2557,-2628.4133 420.8951,-2638.4609 427.8944,-2638.3637"/>
</g>
<!-- 47 -->
<g id="node48" class="node">
<title>47</title>
<path fill="none" stroke="#d8cb56" stroke-width="2" d="M398.5,-2916C398.5,-2916 287.5,-2916 287.5,-2916 281.5,-2916 275.5,-2910 275.5,-2904 275.5,-2904 275.5,-2892 275.5,-2892 275.5,-2886 281.5,-2880 287.5,-2880 287.5,-2880 398.5,-2880 398.5,-2880 404.5,-2880 410.5,-2886 410.5,-2892 410.5,-2892 410.5,-2904 410.5,-2904 410.5,-2910 404.5,-2916 398.5,-2916"/>
<text text-anchor="middle" x="343" y="-2895.5" font-family="sans" font-size="10.00" fill="#000000">homologs_round2_mafft</text>
</g>
<!-- 47&#45;&gt;45 -->
<g id="edge61" class="edge">
<title>47&#45;&gt;45</title>
<path fill="none" stroke="#c0c0c0" stroke-width="2" d="M343,-2879.8314C343,-2872.131 343,-2862.9743 343,-2854.4166"/>
<polygon fill="#c0c0c0" stroke="#c0c0c0" stroke-width="2" points="346.5001,-2854.4132 343,-2844.4133 339.5001,-2854.4133 346.5001,-2854.4132"/>
</g>
<!-- 48&#45;&gt;46 -->
<g id="edge62" class="edge">
<title>48&#45;&gt;46</title>
<path fill="none" stroke="#c0c0c0" stroke-width="2" d="M432.4766,-2735.8314C431.4071,-2728.131 430.1353,-2718.9743 428.9468,-2710.4166"/>
<polygon fill="#c0c0c0" stroke="#c0c0c0" stroke-width="2" points="432.3999,-2709.8367 427.5574,-2700.4133 425.4664,-2710.7997 432.3999,-2709.8367"/>
</g>
<!-- 49 -->
<g id="node50" class="node">
<title>49</title>
<path fill="none" stroke="#56d8c1" stroke-width="2" d="M417.5,-2988C417.5,-2988 268.5,-2988 268.5,-2988 262.5,-2988 256.5,-2982 256.5,-2976 256.5,-2976 256.5,-2964 256.5,-2964 256.5,-2958 262.5,-2952 268.5,-2952 268.5,-2952 417.5,-2952 417.5,-2952 423.5,-2952 429.5,-2958 429.5,-2964 429.5,-2964 429.5,-2976 429.5,-2976 429.5,-2982 423.5,-2988 417.5,-2988"/>
<text text-anchor="middle" x="343" y="-2967.5" font-family="sans" font-size="10.00" fill="#000000">homologs_round2_tree_to_fasta</text>
</g>
<!-- 49&#45;&gt;47 -->
<g id="edge63" class="edge">
<title>49&#45;&gt;47</title>
<path fill="none" stroke="#c0c0c0" stroke-width="2" d="M343,-2951.8314C343,-2944.131 343,-2934.9743 343,-2926.4166"/>
<polygon fill="#c0c0c0" stroke="#c0c0c0" stroke-width="2" points="346.5001,-2926.4132 343,-2916.4133 339.5001,-2926.4133 346.5001,-2926.4132"/>
</g>
<!-- 50&#45;&gt;49 -->
<g id="edge66" class="edge">
<title>50&#45;&gt;49</title>
<path fill="none" stroke="#c0c0c0" stroke-width="2" d="M196,-3599.8146C196,-3572.4983 196,-3519.25 196,-3474 196,-3474 196,-3474 196,-3114 196,-3073.1184 188.9831,-3055.5346 215,-3024 226.2912,-3010.3142 241.6625,-3000.0348 257.8367,-2992.3342"/>
<polygon fill="#c0c0c0" stroke="#c0c0c0" stroke-width="2" points="259.6982,-2995.338 267.4278,-2988.092 256.8666,-2988.9362 259.6982,-2995.338"/>
</g>
<!-- 58 -->
<g id="node59" class="node">
<title>58</title>
<path fill="none" stroke="#d89c56" stroke-width="2" d="M406.5,-3564C406.5,-3564 257.5,-3564 257.5,-3564 251.5,-3564 245.5,-3558 245.5,-3552 245.5,-3552 245.5,-3540 245.5,-3540 245.5,-3534 251.5,-3528 257.5,-3528 257.5,-3528 406.5,-3528 406.5,-3528 412.5,-3528 418.5,-3534 418.5,-3540 418.5,-3540 418.5,-3552 418.5,-3552 418.5,-3558 412.5,-3564 406.5,-3564"/>
<text text-anchor="middle" x="332" y="-3543.5" font-family="sans" font-size="10.00" fill="#000000">homologs_round1_tree_to_fasta</text>
</g>
<!-- 50&#45;&gt;58 -->
<g id="edge76" class="edge">
<title>50&#45;&gt;58</title>
<path fill="none" stroke="#c0c0c0" stroke-width="2" d="M230.3185,-3599.8314C248.0359,-3590.4516 269.8345,-3578.9112 288.6984,-3568.9244"/>
<polygon fill="#c0c0c0" stroke="#c0c0c0" stroke-width="2" points="290.4922,-3571.935 297.6924,-3564.1628 287.2169,-3565.7485 290.4922,-3571.935"/>
</g>
<!-- 51 -->
<g id="node52" class="node">
<title>51</title>
<path fill="none" stroke="#afd856" stroke-width="2" d="M454,-3060C454,-3060 236,-3060 236,-3060 230,-3060 224,-3054 224,-3048 224,-3048 224,-3036 224,-3036 224,-3030 230,-3024 236,-3024 236,-3024 454,-3024 454,-3024 460,-3024 466,-3030 466,-3036 466,-3036 466,-3048 466,-3048 466,-3054 460,-3060 454,-3060"/>
<text text-anchor="middle" x="345" y="-3039.5" font-family="sans" font-size="10.00" fill="#000000">homologs_round1_cut_internal_long_branches</text>
</g>
<!-- 51&#45;&gt;49 -->
<g id="edge65" class="edge">
<title>51&#45;&gt;49</title>
<path fill="none" stroke="#c0c0c0" stroke-width="2" d="M344.4953,-3023.8314C344.2814,-3016.131 344.0271,-3006.9743 343.7894,-2998.4166"/>
<polygon fill="#c0c0c0" stroke="#c0c0c0" stroke-width="2" points="347.2879,-2998.3122 343.5115,-2988.4133 340.2906,-2998.5066 347.2879,-2998.3122"/>
</g>
<!-- 52 -->
<g id="node53" class="node">
<title>52</title>
<path fill="none" stroke="#b6d856" stroke-width="2" d="M445,-3132C445,-3132 245,-3132 245,-3132 239,-3132 233,-3126 233,-3120 233,-3120 233,-3108 233,-3108 233,-3102 239,-3096 245,-3096 245,-3096 445,-3096 445,-3096 451,-3096 457,-3102 457,-3108 457,-3108 457,-3120 457,-3120 457,-3126 451,-3132 445,-3132"/>
<text text-anchor="middle" x="345" y="-3111.5" font-family="sans" font-size="10.00" fill="#000000">homologs_round1_mask_tips_by_taxon_id</text>
</g>
<!-- 52&#45;&gt;51 -->
<g id="edge68" class="edge">
<title>52&#45;&gt;51</title>
<path fill="none" stroke="#c0c0c0" stroke-width="2" d="M345,-3095.8314C345,-3088.131 345,-3078.9743 345,-3070.4166"/>
<polygon fill="#c0c0c0" stroke="#c0c0c0" stroke-width="2" points="348.5001,-3070.4132 345,-3060.4133 341.5001,-3070.4133 348.5001,-3070.4132"/>
</g>
<!-- 53 -->
<g id="node54" class="node">
<title>53</title>
<path fill="none" stroke="#d85e56" stroke-width="2" d="M405,-3204C405,-3204 277,-3204 277,-3204 271,-3204 265,-3198 265,-3192 265,-3192 265,-3180 265,-3180 265,-3174 271,-3168 277,-3168 277,-3168 405,-3168 405,-3168 411,-3168 417,-3174 417,-3180 417,-3180 417,-3192 417,-3192 417,-3198 411,-3204 405,-3204"/>
<text text-anchor="middle" x="341" y="-3183.5" font-family="sans" font-size="10.00" fill="#000000">homologs_round1_trim_tips</text>
</g>
<!-- 53&#45;&gt;52 -->
<g id="edge69" class="edge">
<title>53&#45;&gt;52</title>
<path fill="none" stroke="#c0c0c0" stroke-width="2" d="M342.0094,-3167.8314C342.4372,-3160.131 342.9459,-3150.9743 343.4213,-3142.4166"/>
<polygon fill="#c0c0c0" stroke="#c0c0c0" stroke-width="2" points="346.9169,-3142.592 343.977,-3132.4133 339.9276,-3142.2037 346.9169,-3142.592"/>
</g>
<!-- 54 -->
<g id="node55" class="node">
<title>54</title>
<path fill="none" stroke="#9fd856" stroke-width="2" d="M390,-3420C390,-3420 274,-3420 274,-3420 268,-3420 262,-3414 262,-3408 262,-3408 262,-3396 262,-3396 262,-3390 268,-3384 274,-3384 274,-3384 390,-3384 390,-3384 396,-3384 402,-3390 402,-3396 402,-3396 402,-3408 402,-3408 402,-3414 396,-3420 390,-3420"/>
<text text-anchor="middle" x="332" y="-3399.5" font-family="sans" font-size="10.00" fill="#000000">homologs_round1_pxclsq</text>
</g>
<!-- 54&#45;&gt;52 -->
<g id="edge70" class="edge">
<title>54&#45;&gt;52</title>
<path fill="none" stroke="#c0c0c0" stroke-width="2" d="M391.1712,-3383.88C407.9521,-3375.7024 424.285,-3364.1357 434,-3348 453.1246,-3316.2359 491.062,-3281.8586 426,-3168 418.9151,-3155.6015 407.6835,-3145.5048 395.8141,-3137.5412"/>
<polygon fill="#c0c0c0" stroke="#c0c0c0" stroke-width="2" points="397.4471,-3134.4349 387.1088,-3132.1171 393.7452,-3140.376 397.4471,-3134.4349"/>
</g>
<!-- 57 -->
<g id="node58" class="node">
<title>57</title>
<path fill="none" stroke="#56d8a2" stroke-width="2" d="M413,-3348C413,-3348 243,-3348 243,-3348 237,-3348 231,-3342 231,-3336 231,-3336 231,-3324 231,-3324 231,-3318 237,-3312 243,-3312 243,-3312 413,-3312 413,-3312 419,-3312 425,-3318 425,-3324 425,-3324 425,-3336 425,-3336 425,-3342 419,-3348 413,-3348"/>
<text text-anchor="middle" x="328" y="-3327.5" font-family="sans" font-size="10.00" fill="#000000">homologs_round1_raxmlng_reduced</text>
</g>
<!-- 54&#45;&gt;57 -->
<g id="edge75" class="edge">
<title>54&#45;&gt;57</title>
<path fill="none" stroke="#c0c0c0" stroke-width="2" d="M330.9906,-3383.8314C330.5628,-3376.131 330.0541,-3366.9743 329.5787,-3358.4166"/>
<polygon fill="#c0c0c0" stroke="#c0c0c0" stroke-width="2" points="333.0724,-3358.2037 329.023,-3348.4133 326.0831,-3358.592 333.0724,-3358.2037"/>
</g>
<!-- 55 -->
<g id="node56" class="node">
<title>55</title>
<path fill="none" stroke="#5663d8" stroke-width="2" d="M393.5,-3276C393.5,-3276 268.5,-3276 268.5,-3276 262.5,-3276 256.5,-3270 256.5,-3264 256.5,-3264 256.5,-3252 256.5,-3252 256.5,-3246 262.5,-3240 268.5,-3240 268.5,-3240 393.5,-3240 393.5,-3240 399.5,-3240 405.5,-3246 405.5,-3252 405.5,-3252 405.5,-3264 405.5,-3264 405.5,-3270 399.5,-3276 393.5,-3276"/>
<text text-anchor="middle" x="331" y="-3255.5" font-family="sans" font-size="10.00" fill="#000000">homologs_round1_raxmlng</text>
</g>
<!-- 55&#45;&gt;53 -->
<g id="edge71" class="edge">
<title>55&#45;&gt;53</title>
<path fill="none" stroke="#c0c0c0" stroke-width="2" d="M333.5234,-3239.8314C334.5929,-3232.131 335.8647,-3222.9743 337.0532,-3214.4166"/>
<polygon fill="#c0c0c0" stroke="#c0c0c0" stroke-width="2" points="340.5336,-3214.7997 338.4426,-3204.4133 333.6001,-3213.8367 340.5336,-3214.7997"/>
</g>
<!-- 56 -->
<g id="node57" class="node">
<title>56</title>
<path fill="none" stroke="#d88556" stroke-width="2" d="M387.5,-3492C387.5,-3492 276.5,-3492 276.5,-3492 270.5,-3492 264.5,-3486 264.5,-3480 264.5,-3480 264.5,-3468 264.5,-3468 264.5,-3462 270.5,-3456 276.5,-3456 276.5,-3456 387.5,-3456 387.5,-3456 393.5,-3456 399.5,-3462 399.5,-3468 399.5,-3468 399.5,-3480 399.5,-3480 399.5,-3486 393.5,-3492 387.5,-3492"/>
<text text-anchor="middle" x="332" y="-3471.5" font-family="sans" font-size="10.00" fill="#000000">homologs_round1_mafft</text>
</g>
<!-- 56&#45;&gt;54 -->
<g id="edge72" class="edge">
<title>56&#45;&gt;54</title>
<path fill="none" stroke="#c0c0c0" stroke-width="2" d="M332,-3455.8314C332,-3448.131 332,-3438.9743 332,-3430.4166"/>
<polygon fill="#c0c0c0" stroke="#c0c0c0" stroke-width="2" points="335.5001,-3430.4132 332,-3420.4133 328.5001,-3430.4133 335.5001,-3430.4132"/>
</g>
<!-- 57&#45;&gt;55 -->
<g id="edge73" class="edge">
<title>57&#45;&gt;55</title>
<path fill="none" stroke="#c0c0c0" stroke-width="2" d="M328.757,-3311.8314C329.0779,-3304.131 329.4594,-3294.9743 329.816,-3286.4166"/>
<polygon fill="#c0c0c0" stroke="#c0c0c0" stroke-width="2" points="333.3133,-3286.5503 330.2328,-3276.4133 326.3194,-3286.2589 333.3133,-3286.5503"/>
</g>
<!-- 58&#45;&gt;56 -->
<g id="edge74" class="edge">
<title>58&#45;&gt;56</title>
<path fill="none" stroke="#c0c0c0" stroke-width="2" d="M332,-3527.8314C332,-3520.131 332,-3510.9743 332,-3502.4166"/>
<polygon fill="#c0c0c0" stroke="#c0c0c0" stroke-width="2" points="335.5001,-3502.4132 332,-3492.4133 328.5001,-3502.4133 335.5001,-3502.4132"/>
</g>
<!-- 59 -->
<g id="node60" class="node">
<title>59</title>
<path fill="none" stroke="#5663d8" stroke-width="2" d="M390.5,-3636C390.5,-3636 281.5,-3636 281.5,-3636 275.5,-3636 269.5,-3630 269.5,-3624 269.5,-3624 269.5,-3612 269.5,-3612 269.5,-3606 275.5,-3600 281.5,-3600 281.5,-3600 390.5,-3600 390.5,-3600 396.5,-3600 402.5,-3606 402.5,-3612 402.5,-3612 402.5,-3624 402.5,-3624 402.5,-3630 396.5,-3636 390.5,-3636"/>
<text text-anchor="middle" x="336" y="-3615.5" font-family="sans" font-size="10.00" fill="#000000">homologs_correct_leafs</text>
</g>
<!-- 59&#45;&gt;58 -->
<g id="edge77" class="edge">
<title>59&#45;&gt;58</title>
<path fill="none" stroke="#c0c0c0" stroke-width="2" d="M334.9906,-3599.8314C334.5628,-3592.131 334.0541,-3582.9743 333.5787,-3574.4166"/>
<polygon fill="#c0c0c0" stroke="#c0c0c0" stroke-width="2" points="337.0724,-3574.2037 333.023,-3564.4133 330.0831,-3574.592 337.0724,-3574.2037"/>
</g>
<!-- 60 -->
<g id="node61" class="node">
<title>60</title>
<path fill="none" stroke="#d87556" stroke-width="2" d="M367.5,-3708C367.5,-3708 258.5,-3708 258.5,-3708 252.5,-3708 246.5,-3702 246.5,-3696 246.5,-3696 246.5,-3684 246.5,-3684 246.5,-3678 252.5,-3672 258.5,-3672 258.5,-3672 367.5,-3672 367.5,-3672 373.5,-3672 379.5,-3678 379.5,-3684 379.5,-3684 379.5,-3696 379.5,-3696 379.5,-3702 373.5,-3708 367.5,-3708"/>
<text text-anchor="middle" x="313" y="-3687.5" font-family="sans" font-size="10.00" fill="#000000">orthofinder_orthologues</text>
</g>
<!-- 60&#45;&gt;59 -->
<g id="edge78" class="edge">
<title>60&#45;&gt;59</title>
<path fill="none" stroke="#c0c0c0" stroke-width="2" d="M318.8039,-3671.8314C321.2908,-3664.0463 324.2531,-3654.7729 327.0125,-3646.1347"/>
<polygon fill="#c0c0c0" stroke="#c0c0c0" stroke-width="2" points="330.409,-3647.0041 330.118,-3636.4133 323.7409,-3644.874 330.409,-3647.0041"/>
</g>
<!-- 61 -->
<g id="node62" class="node">
<title>61</title>
<path fill="none" stroke="#5673d8" stroke-width="2" d="M347,-3780C347,-3780 271,-3780 271,-3780 265,-3780 259,-3774 259,-3768 259,-3768 259,-3756 259,-3756 259,-3750 265,-3744 271,-3744 271,-3744 347,-3744 347,-3744 353,-3744 359,-3750 359,-3756 359,-3756 359,-3768 359,-3768 359,-3774 353,-3780 347,-3780"/>
<text text-anchor="middle" x="309" y="-3759.5" font-family="sans" font-size="10.00" fill="#000000">orthofinder_trees</text>
</g>
<!-- 61&#45;&gt;60 -->
<g id="edge79" class="edge">
<title>61&#45;&gt;60</title>
<path fill="none" stroke="#c0c0c0" stroke-width="2" d="M310.0094,-3743.8314C310.4372,-3736.131 310.9459,-3726.9743 311.4213,-3718.4166"/>
<polygon fill="#c0c0c0" stroke="#c0c0c0" stroke-width="2" points="314.9169,-3718.592 311.977,-3708.4133 307.9276,-3718.2037 314.9169,-3718.592"/>
</g>
<!-- 62 -->
<g id="node63" class="node">
<title>62</title>
<path fill="none" stroke="#56d8c9" stroke-width="2" d="M348,-3852C348,-3852 264,-3852 264,-3852 258,-3852 252,-3846 252,-3840 252,-3840 252,-3828 252,-3828 252,-3822 258,-3816 264,-3816 264,-3816 348,-3816 348,-3816 354,-3816 360,-3822 360,-3828 360,-3828 360,-3840 360,-3840 360,-3846 354,-3852 348,-3852"/>
<text text-anchor="middle" x="306" y="-3831.5" font-family="sans" font-size="10.00" fill="#000000">orthofinder_groups</text>
</g>
<!-- 62&#45;&gt;61 -->
<g id="edge80" class="edge">
<title>62&#45;&gt;61</title>
<path fill="none" stroke="#c0c0c0" stroke-width="2" d="M306.757,-3815.8314C307.0779,-3808.131 307.4594,-3798.9743 307.816,-3790.4166"/>
<polygon fill="#c0c0c0" stroke="#c0c0c0" stroke-width="2" points="311.3133,-3790.5503 308.2328,-3780.4133 304.3194,-3790.2589 311.3133,-3790.5503"/>
</g>
<!-- 63&#45;&gt;62 -->
<g id="edge81" class="edge">
<title>63&#45;&gt;62</title>
<path fill="none" stroke="#c0c0c0" stroke-width="2" d="M300.7664,-3887.8314C301.515,-3880.131 302.4053,-3870.9743 303.2373,-3862.4166"/>
<polygon fill="#c0c0c0" stroke="#c0c0c0" stroke-width="2" points="306.7256,-3862.7051 304.2098,-3852.4133 299.7585,-3862.0276 306.7256,-3862.7051"/>
</g>
</g>
</svg>
